G04 MADE WITH FRITZING*
G04 WWW.FRITZING.ORG*
G04 DOUBLE SIDED*
G04 HOLES PLATED*
G04 CONTOUR ON CENTER OF CONTOUR VECTOR*
%ASAXBY*%
%FSLAX23Y23*%
%MOIN*%
%OFA0B0*%
%SFA1.0B1.0*%
%ADD10R,0.234361X0.793417X0.206583X0.765639*%
%ADD11C,0.013889*%
%ADD12C,0.010000*%
%ADD13C,0.020000*%
%ADD14C,0.005000*%
%ADD15R,0.001000X0.001000*%
%LNSILK1*%
G90*
G70*
G54D11*
X890Y1088D02*
X1111Y1088D01*
X1111Y309D01*
X890Y309D01*
X890Y1088D01*
D02*
G54D12*
X664Y968D02*
X664Y828D01*
D02*
X275Y923D02*
X425Y923D01*
D02*
X425Y923D02*
X425Y873D01*
D02*
X425Y873D02*
X275Y873D01*
D02*
X275Y873D02*
X275Y923D01*
D02*
X755Y752D02*
X755Y947D01*
D02*
X845Y947D02*
X845Y752D01*
D02*
X845Y752D02*
X755Y752D01*
G54D13*
D02*
X845Y772D02*
X755Y772D01*
G54D12*
D02*
X50Y148D02*
X50Y48D01*
D02*
X50Y48D02*
X150Y48D01*
D02*
X150Y48D02*
X150Y148D01*
D02*
X150Y148D02*
X50Y148D01*
G54D14*
D02*
X50Y113D02*
X85Y148D01*
G54D12*
D02*
X50Y748D02*
X50Y648D01*
D02*
X50Y648D02*
X150Y648D01*
D02*
X150Y648D02*
X150Y748D01*
D02*
X150Y748D02*
X50Y748D01*
D02*
X150Y848D02*
X50Y848D01*
D02*
X50Y848D02*
X50Y748D01*
D02*
X50Y748D02*
X150Y748D01*
D02*
X150Y748D02*
X150Y848D01*
D02*
X50Y648D02*
X50Y548D01*
D02*
X50Y548D02*
X150Y548D01*
D02*
X150Y548D02*
X150Y648D01*
D02*
X150Y648D02*
X50Y648D01*
D02*
X1050Y148D02*
X1050Y48D01*
D02*
X1050Y48D02*
X1150Y48D01*
D02*
X1150Y48D02*
X1150Y148D01*
D02*
X1150Y148D02*
X1050Y148D01*
D02*
X550Y348D02*
X550Y248D01*
D02*
X550Y248D02*
X650Y248D01*
D02*
X650Y248D02*
X650Y348D01*
D02*
X650Y348D02*
X550Y348D01*
D02*
X650Y348D02*
X650Y248D01*
D02*
X650Y248D02*
X750Y248D01*
D02*
X750Y248D02*
X750Y348D01*
D02*
X750Y348D02*
X650Y348D01*
G54D15*
X0Y1098D02*
X1195Y1098D01*
X0Y1097D02*
X1195Y1097D01*
X0Y1096D02*
X1195Y1096D01*
X0Y1095D02*
X1195Y1095D01*
X0Y1094D02*
X1195Y1094D01*
X0Y1093D02*
X1195Y1093D01*
X0Y1092D02*
X1195Y1092D01*
X0Y1091D02*
X1195Y1091D01*
X0Y1090D02*
X7Y1090D01*
X1188Y1090D02*
X1195Y1090D01*
X0Y1089D02*
X7Y1089D01*
X1188Y1089D02*
X1195Y1089D01*
X0Y1088D02*
X7Y1088D01*
X1188Y1088D02*
X1195Y1088D01*
X0Y1087D02*
X7Y1087D01*
X1188Y1087D02*
X1195Y1087D01*
X0Y1086D02*
X7Y1086D01*
X1188Y1086D02*
X1195Y1086D01*
X0Y1085D02*
X7Y1085D01*
X1188Y1085D02*
X1195Y1085D01*
X0Y1084D02*
X7Y1084D01*
X1188Y1084D02*
X1195Y1084D01*
X0Y1083D02*
X7Y1083D01*
X1188Y1083D02*
X1195Y1083D01*
X0Y1082D02*
X7Y1082D01*
X1188Y1082D02*
X1195Y1082D01*
X0Y1081D02*
X7Y1081D01*
X1188Y1081D02*
X1195Y1081D01*
X0Y1080D02*
X7Y1080D01*
X1188Y1080D02*
X1195Y1080D01*
X0Y1079D02*
X7Y1079D01*
X1188Y1079D02*
X1195Y1079D01*
X0Y1078D02*
X7Y1078D01*
X1188Y1078D02*
X1195Y1078D01*
X0Y1077D02*
X7Y1077D01*
X1188Y1077D02*
X1195Y1077D01*
X0Y1076D02*
X7Y1076D01*
X1188Y1076D02*
X1195Y1076D01*
X0Y1075D02*
X7Y1075D01*
X1188Y1075D02*
X1195Y1075D01*
X0Y1074D02*
X7Y1074D01*
X1188Y1074D02*
X1195Y1074D01*
X0Y1073D02*
X7Y1073D01*
X1188Y1073D02*
X1195Y1073D01*
X0Y1072D02*
X7Y1072D01*
X1188Y1072D02*
X1195Y1072D01*
X0Y1071D02*
X7Y1071D01*
X1188Y1071D02*
X1195Y1071D01*
X0Y1070D02*
X7Y1070D01*
X1188Y1070D02*
X1195Y1070D01*
X0Y1069D02*
X7Y1069D01*
X1188Y1069D02*
X1195Y1069D01*
X0Y1068D02*
X7Y1068D01*
X1188Y1068D02*
X1195Y1068D01*
X0Y1067D02*
X7Y1067D01*
X1188Y1067D02*
X1195Y1067D01*
X0Y1066D02*
X7Y1066D01*
X1188Y1066D02*
X1195Y1066D01*
X0Y1065D02*
X7Y1065D01*
X1188Y1065D02*
X1195Y1065D01*
X0Y1064D02*
X7Y1064D01*
X1188Y1064D02*
X1195Y1064D01*
X0Y1063D02*
X7Y1063D01*
X1188Y1063D02*
X1195Y1063D01*
X0Y1062D02*
X7Y1062D01*
X1188Y1062D02*
X1195Y1062D01*
X0Y1061D02*
X7Y1061D01*
X501Y1061D02*
X504Y1061D01*
X530Y1061D02*
X547Y1061D01*
X1188Y1061D02*
X1195Y1061D01*
X0Y1060D02*
X7Y1060D01*
X499Y1060D02*
X506Y1060D01*
X528Y1060D02*
X547Y1060D01*
X1188Y1060D02*
X1195Y1060D01*
X0Y1059D02*
X7Y1059D01*
X498Y1059D02*
X508Y1059D01*
X528Y1059D02*
X547Y1059D01*
X1188Y1059D02*
X1195Y1059D01*
X0Y1058D02*
X7Y1058D01*
X496Y1058D02*
X509Y1058D01*
X527Y1058D02*
X547Y1058D01*
X1188Y1058D02*
X1195Y1058D01*
X0Y1057D02*
X7Y1057D01*
X495Y1057D02*
X510Y1057D01*
X528Y1057D02*
X547Y1057D01*
X1126Y1057D02*
X1177Y1057D01*
X1188Y1057D02*
X1195Y1057D01*
X0Y1056D02*
X7Y1056D01*
X494Y1056D02*
X510Y1056D01*
X528Y1056D02*
X547Y1056D01*
X1125Y1056D02*
X1177Y1056D01*
X1188Y1056D02*
X1195Y1056D01*
X0Y1055D02*
X7Y1055D01*
X493Y1055D02*
X510Y1055D01*
X529Y1055D02*
X547Y1055D01*
X1124Y1055D02*
X1177Y1055D01*
X1188Y1055D02*
X1195Y1055D01*
X0Y1054D02*
X7Y1054D01*
X492Y1054D02*
X511Y1054D01*
X541Y1054D02*
X547Y1054D01*
X1124Y1054D02*
X1177Y1054D01*
X1188Y1054D02*
X1195Y1054D01*
X0Y1053D02*
X7Y1053D01*
X490Y1053D02*
X500Y1053D01*
X505Y1053D02*
X511Y1053D01*
X541Y1053D02*
X547Y1053D01*
X1124Y1053D02*
X1177Y1053D01*
X1188Y1053D02*
X1195Y1053D01*
X0Y1052D02*
X7Y1052D01*
X489Y1052D02*
X499Y1052D01*
X505Y1052D02*
X511Y1052D01*
X541Y1052D02*
X547Y1052D01*
X1124Y1052D02*
X1177Y1052D01*
X1188Y1052D02*
X1195Y1052D01*
X0Y1051D02*
X7Y1051D01*
X46Y1051D02*
X48Y1051D01*
X68Y1051D02*
X70Y1051D01*
X209Y1051D02*
X231Y1051D01*
X292Y1051D02*
X312Y1051D01*
X373Y1051D02*
X393Y1051D01*
X488Y1051D02*
X498Y1051D01*
X505Y1051D02*
X511Y1051D01*
X541Y1051D02*
X547Y1051D01*
X1125Y1051D02*
X1177Y1051D01*
X1188Y1051D02*
X1195Y1051D01*
X0Y1050D02*
X7Y1050D01*
X45Y1050D02*
X49Y1050D01*
X67Y1050D02*
X71Y1050D01*
X208Y1050D02*
X232Y1050D01*
X290Y1050D02*
X313Y1050D01*
X372Y1050D02*
X395Y1050D01*
X487Y1050D02*
X497Y1050D01*
X505Y1050D02*
X511Y1050D01*
X541Y1050D02*
X547Y1050D01*
X1153Y1050D02*
X1160Y1050D01*
X1171Y1050D02*
X1177Y1050D01*
X1188Y1050D02*
X1195Y1050D01*
X0Y1049D02*
X7Y1049D01*
X45Y1049D02*
X49Y1049D01*
X67Y1049D02*
X72Y1049D01*
X207Y1049D02*
X233Y1049D01*
X290Y1049D02*
X314Y1049D01*
X371Y1049D02*
X396Y1049D01*
X486Y1049D02*
X496Y1049D01*
X505Y1049D02*
X511Y1049D01*
X541Y1049D02*
X547Y1049D01*
X1153Y1049D02*
X1159Y1049D01*
X1171Y1049D02*
X1177Y1049D01*
X1188Y1049D02*
X1195Y1049D01*
X0Y1048D02*
X7Y1048D01*
X45Y1048D02*
X49Y1048D01*
X67Y1048D02*
X72Y1048D01*
X207Y1048D02*
X234Y1048D01*
X289Y1048D02*
X315Y1048D01*
X370Y1048D02*
X396Y1048D01*
X485Y1048D02*
X494Y1048D01*
X505Y1048D02*
X511Y1048D01*
X541Y1048D02*
X547Y1048D01*
X1153Y1048D02*
X1159Y1048D01*
X1171Y1048D02*
X1177Y1048D01*
X1188Y1048D02*
X1195Y1048D01*
X0Y1047D02*
X7Y1047D01*
X45Y1047D02*
X49Y1047D01*
X67Y1047D02*
X72Y1047D01*
X208Y1047D02*
X234Y1047D01*
X289Y1047D02*
X315Y1047D01*
X370Y1047D02*
X397Y1047D01*
X483Y1047D02*
X493Y1047D01*
X505Y1047D02*
X511Y1047D01*
X541Y1047D02*
X547Y1047D01*
X1153Y1047D02*
X1159Y1047D01*
X1171Y1047D02*
X1177Y1047D01*
X1188Y1047D02*
X1195Y1047D01*
X0Y1046D02*
X7Y1046D01*
X45Y1046D02*
X49Y1046D01*
X67Y1046D02*
X72Y1046D01*
X209Y1046D02*
X234Y1046D01*
X288Y1046D02*
X315Y1046D01*
X370Y1046D02*
X397Y1046D01*
X482Y1046D02*
X492Y1046D01*
X505Y1046D02*
X511Y1046D01*
X541Y1046D02*
X547Y1046D01*
X1153Y1046D02*
X1159Y1046D01*
X1171Y1046D02*
X1177Y1046D01*
X1188Y1046D02*
X1195Y1046D01*
X0Y1045D02*
X7Y1045D01*
X45Y1045D02*
X49Y1045D01*
X67Y1045D02*
X72Y1045D01*
X229Y1045D02*
X234Y1045D01*
X288Y1045D02*
X293Y1045D01*
X311Y1045D02*
X315Y1045D01*
X370Y1045D02*
X374Y1045D01*
X392Y1045D02*
X397Y1045D01*
X481Y1045D02*
X491Y1045D01*
X505Y1045D02*
X511Y1045D01*
X541Y1045D02*
X547Y1045D01*
X1153Y1045D02*
X1159Y1045D01*
X1171Y1045D02*
X1177Y1045D01*
X1188Y1045D02*
X1195Y1045D01*
X0Y1044D02*
X7Y1044D01*
X45Y1044D02*
X49Y1044D01*
X67Y1044D02*
X72Y1044D01*
X229Y1044D02*
X234Y1044D01*
X288Y1044D02*
X293Y1044D01*
X311Y1044D02*
X315Y1044D01*
X370Y1044D02*
X374Y1044D01*
X392Y1044D02*
X397Y1044D01*
X480Y1044D02*
X490Y1044D01*
X505Y1044D02*
X511Y1044D01*
X541Y1044D02*
X547Y1044D01*
X1151Y1044D02*
X1159Y1044D01*
X1171Y1044D02*
X1177Y1044D01*
X1188Y1044D02*
X1195Y1044D01*
X0Y1043D02*
X7Y1043D01*
X45Y1043D02*
X49Y1043D01*
X67Y1043D02*
X72Y1043D01*
X229Y1043D02*
X234Y1043D01*
X288Y1043D02*
X293Y1043D01*
X311Y1043D02*
X315Y1043D01*
X370Y1043D02*
X374Y1043D01*
X392Y1043D02*
X397Y1043D01*
X480Y1043D02*
X488Y1043D01*
X505Y1043D02*
X511Y1043D01*
X541Y1043D02*
X547Y1043D01*
X1149Y1043D02*
X1159Y1043D01*
X1171Y1043D02*
X1177Y1043D01*
X1188Y1043D02*
X1195Y1043D01*
X0Y1042D02*
X7Y1042D01*
X45Y1042D02*
X49Y1042D01*
X67Y1042D02*
X72Y1042D01*
X229Y1042D02*
X234Y1042D01*
X288Y1042D02*
X293Y1042D01*
X311Y1042D02*
X315Y1042D01*
X370Y1042D02*
X374Y1042D01*
X392Y1042D02*
X397Y1042D01*
X479Y1042D02*
X487Y1042D01*
X505Y1042D02*
X511Y1042D01*
X541Y1042D02*
X547Y1042D01*
X1147Y1042D02*
X1159Y1042D01*
X1171Y1042D02*
X1177Y1042D01*
X1188Y1042D02*
X1195Y1042D01*
X0Y1041D02*
X7Y1041D01*
X45Y1041D02*
X49Y1041D01*
X67Y1041D02*
X72Y1041D01*
X229Y1041D02*
X234Y1041D01*
X288Y1041D02*
X293Y1041D01*
X311Y1041D02*
X315Y1041D01*
X370Y1041D02*
X374Y1041D01*
X392Y1041D02*
X397Y1041D01*
X478Y1041D02*
X486Y1041D01*
X505Y1041D02*
X511Y1041D01*
X541Y1041D02*
X547Y1041D01*
X1146Y1041D02*
X1159Y1041D01*
X1171Y1041D02*
X1177Y1041D01*
X1188Y1041D02*
X1195Y1041D01*
X0Y1040D02*
X7Y1040D01*
X45Y1040D02*
X49Y1040D01*
X67Y1040D02*
X72Y1040D01*
X229Y1040D02*
X234Y1040D01*
X288Y1040D02*
X293Y1040D01*
X311Y1040D02*
X315Y1040D01*
X370Y1040D02*
X374Y1040D01*
X392Y1040D02*
X397Y1040D01*
X478Y1040D02*
X485Y1040D01*
X505Y1040D02*
X511Y1040D01*
X541Y1040D02*
X547Y1040D01*
X1144Y1040D02*
X1159Y1040D01*
X1171Y1040D02*
X1177Y1040D01*
X1188Y1040D02*
X1195Y1040D01*
X0Y1039D02*
X7Y1039D01*
X45Y1039D02*
X50Y1039D01*
X67Y1039D02*
X72Y1039D01*
X93Y1039D02*
X105Y1039D01*
X127Y1039D02*
X129Y1039D01*
X138Y1039D02*
X147Y1039D01*
X229Y1039D02*
X234Y1039D01*
X288Y1039D02*
X293Y1039D01*
X311Y1039D02*
X315Y1039D01*
X370Y1039D02*
X374Y1039D01*
X392Y1039D02*
X397Y1039D01*
X478Y1039D02*
X484Y1039D01*
X505Y1039D02*
X511Y1039D01*
X541Y1039D02*
X547Y1039D01*
X1142Y1039D02*
X1159Y1039D01*
X1171Y1039D02*
X1177Y1039D01*
X1188Y1039D02*
X1195Y1039D01*
X0Y1038D02*
X7Y1038D01*
X45Y1038D02*
X50Y1038D01*
X66Y1038D02*
X71Y1038D01*
X91Y1038D02*
X107Y1038D01*
X126Y1038D02*
X130Y1038D01*
X137Y1038D02*
X149Y1038D01*
X229Y1038D02*
X234Y1038D01*
X288Y1038D02*
X293Y1038D01*
X311Y1038D02*
X315Y1038D01*
X370Y1038D02*
X374Y1038D01*
X392Y1038D02*
X397Y1038D01*
X477Y1038D02*
X484Y1038D01*
X505Y1038D02*
X511Y1038D01*
X541Y1038D02*
X547Y1038D01*
X1141Y1038D02*
X1159Y1038D01*
X1171Y1038D02*
X1177Y1038D01*
X1188Y1038D02*
X1195Y1038D01*
X0Y1037D02*
X7Y1037D01*
X45Y1037D02*
X50Y1037D01*
X66Y1037D02*
X71Y1037D01*
X90Y1037D02*
X108Y1037D01*
X126Y1037D02*
X131Y1037D01*
X136Y1037D02*
X150Y1037D01*
X229Y1037D02*
X234Y1037D01*
X288Y1037D02*
X293Y1037D01*
X311Y1037D02*
X315Y1037D01*
X370Y1037D02*
X374Y1037D01*
X392Y1037D02*
X397Y1037D01*
X477Y1037D02*
X483Y1037D01*
X505Y1037D02*
X511Y1037D01*
X541Y1037D02*
X547Y1037D01*
X1139Y1037D02*
X1159Y1037D01*
X1171Y1037D02*
X1177Y1037D01*
X1188Y1037D02*
X1195Y1037D01*
X0Y1036D02*
X7Y1036D01*
X46Y1036D02*
X51Y1036D01*
X66Y1036D02*
X71Y1036D01*
X89Y1036D02*
X109Y1036D01*
X126Y1036D02*
X131Y1036D01*
X135Y1036D02*
X151Y1036D01*
X229Y1036D02*
X234Y1036D01*
X288Y1036D02*
X293Y1036D01*
X311Y1036D02*
X315Y1036D01*
X370Y1036D02*
X374Y1036D01*
X392Y1036D02*
X397Y1036D01*
X477Y1036D02*
X483Y1036D01*
X505Y1036D02*
X511Y1036D01*
X541Y1036D02*
X547Y1036D01*
X1137Y1036D02*
X1150Y1036D01*
X1153Y1036D02*
X1159Y1036D01*
X1171Y1036D02*
X1177Y1036D01*
X1188Y1036D02*
X1195Y1036D01*
X0Y1035D02*
X7Y1035D01*
X46Y1035D02*
X51Y1035D01*
X65Y1035D02*
X70Y1035D01*
X88Y1035D02*
X110Y1035D01*
X126Y1035D02*
X131Y1035D01*
X134Y1035D02*
X152Y1035D01*
X229Y1035D02*
X234Y1035D01*
X288Y1035D02*
X293Y1035D01*
X311Y1035D02*
X315Y1035D01*
X370Y1035D02*
X374Y1035D01*
X392Y1035D02*
X397Y1035D01*
X477Y1035D02*
X483Y1035D01*
X505Y1035D02*
X511Y1035D01*
X541Y1035D02*
X547Y1035D01*
X1135Y1035D02*
X1148Y1035D01*
X1153Y1035D02*
X1159Y1035D01*
X1171Y1035D02*
X1177Y1035D01*
X1188Y1035D02*
X1195Y1035D01*
X0Y1034D02*
X7Y1034D01*
X46Y1034D02*
X52Y1034D01*
X65Y1034D02*
X70Y1034D01*
X87Y1034D02*
X111Y1034D01*
X126Y1034D02*
X152Y1034D01*
X229Y1034D02*
X234Y1034D01*
X288Y1034D02*
X293Y1034D01*
X311Y1034D02*
X315Y1034D01*
X370Y1034D02*
X374Y1034D01*
X392Y1034D02*
X397Y1034D01*
X477Y1034D02*
X483Y1034D01*
X505Y1034D02*
X511Y1034D01*
X541Y1034D02*
X547Y1034D01*
X1134Y1034D02*
X1147Y1034D01*
X1153Y1034D02*
X1159Y1034D01*
X1171Y1034D02*
X1177Y1034D01*
X1188Y1034D02*
X1195Y1034D01*
X0Y1033D02*
X7Y1033D01*
X47Y1033D02*
X52Y1033D01*
X64Y1033D02*
X70Y1033D01*
X86Y1033D02*
X93Y1033D01*
X105Y1033D02*
X111Y1033D01*
X126Y1033D02*
X139Y1033D01*
X147Y1033D02*
X153Y1033D01*
X229Y1033D02*
X234Y1033D01*
X288Y1033D02*
X293Y1033D01*
X311Y1033D02*
X315Y1033D01*
X370Y1033D02*
X374Y1033D01*
X392Y1033D02*
X397Y1033D01*
X477Y1033D02*
X483Y1033D01*
X505Y1033D02*
X511Y1033D01*
X541Y1033D02*
X547Y1033D01*
X1132Y1033D02*
X1145Y1033D01*
X1153Y1033D02*
X1159Y1033D01*
X1171Y1033D02*
X1177Y1033D01*
X1188Y1033D02*
X1195Y1033D01*
X0Y1032D02*
X7Y1032D01*
X47Y1032D02*
X52Y1032D01*
X64Y1032D02*
X69Y1032D01*
X86Y1032D02*
X92Y1032D01*
X106Y1032D02*
X112Y1032D01*
X126Y1032D02*
X138Y1032D01*
X148Y1032D02*
X153Y1032D01*
X211Y1032D02*
X234Y1032D01*
X288Y1032D02*
X293Y1032D01*
X311Y1032D02*
X315Y1032D01*
X370Y1032D02*
X374Y1032D01*
X392Y1032D02*
X397Y1032D01*
X477Y1032D02*
X483Y1032D01*
X505Y1032D02*
X511Y1032D01*
X541Y1032D02*
X547Y1032D01*
X1130Y1032D02*
X1143Y1032D01*
X1153Y1032D02*
X1160Y1032D01*
X1171Y1032D02*
X1177Y1032D01*
X1188Y1032D02*
X1195Y1032D01*
X0Y1031D02*
X7Y1031D01*
X48Y1031D02*
X53Y1031D01*
X64Y1031D02*
X69Y1031D01*
X85Y1031D02*
X91Y1031D01*
X107Y1031D02*
X112Y1031D01*
X126Y1031D02*
X137Y1031D01*
X148Y1031D02*
X153Y1031D01*
X209Y1031D02*
X234Y1031D01*
X288Y1031D02*
X293Y1031D01*
X311Y1031D02*
X315Y1031D01*
X370Y1031D02*
X374Y1031D01*
X392Y1031D02*
X397Y1031D01*
X477Y1031D02*
X483Y1031D01*
X492Y1031D02*
X495Y1031D01*
X504Y1031D02*
X511Y1031D01*
X541Y1031D02*
X547Y1031D01*
X556Y1031D02*
X560Y1031D01*
X1129Y1031D02*
X1142Y1031D01*
X1154Y1031D02*
X1160Y1031D01*
X1170Y1031D02*
X1177Y1031D01*
X1188Y1031D02*
X1195Y1031D01*
X0Y1030D02*
X7Y1030D01*
X48Y1030D02*
X53Y1030D01*
X63Y1030D02*
X68Y1030D01*
X85Y1030D02*
X90Y1030D01*
X107Y1030D02*
X112Y1030D01*
X126Y1030D02*
X135Y1030D01*
X148Y1030D02*
X153Y1030D01*
X208Y1030D02*
X234Y1030D01*
X288Y1030D02*
X293Y1030D01*
X311Y1030D02*
X315Y1030D01*
X370Y1030D02*
X374Y1030D01*
X392Y1030D02*
X397Y1030D01*
X477Y1030D02*
X483Y1030D01*
X492Y1030D02*
X496Y1030D01*
X504Y1030D02*
X510Y1030D01*
X541Y1030D02*
X547Y1030D01*
X555Y1030D02*
X560Y1030D01*
X1127Y1030D02*
X1140Y1030D01*
X1154Y1030D02*
X1162Y1030D01*
X1169Y1030D02*
X1176Y1030D01*
X1188Y1030D02*
X1195Y1030D01*
X0Y1029D02*
X7Y1029D01*
X48Y1029D02*
X53Y1029D01*
X63Y1029D02*
X68Y1029D01*
X85Y1029D02*
X90Y1029D01*
X108Y1029D02*
X112Y1029D01*
X126Y1029D02*
X134Y1029D01*
X148Y1029D02*
X153Y1029D01*
X208Y1029D02*
X233Y1029D01*
X288Y1029D02*
X293Y1029D01*
X311Y1029D02*
X315Y1029D01*
X370Y1029D02*
X374Y1029D01*
X392Y1029D02*
X397Y1029D01*
X477Y1029D02*
X483Y1029D01*
X491Y1029D02*
X497Y1029D01*
X503Y1029D02*
X510Y1029D01*
X541Y1029D02*
X547Y1029D01*
X555Y1029D02*
X561Y1029D01*
X1125Y1029D02*
X1138Y1029D01*
X1154Y1029D02*
X1176Y1029D01*
X1188Y1029D02*
X1195Y1029D01*
X0Y1028D02*
X7Y1028D01*
X49Y1028D02*
X54Y1028D01*
X62Y1028D02*
X68Y1028D01*
X85Y1028D02*
X90Y1028D01*
X108Y1028D02*
X112Y1028D01*
X126Y1028D02*
X133Y1028D01*
X149Y1028D02*
X152Y1028D01*
X207Y1028D02*
X232Y1028D01*
X288Y1028D02*
X293Y1028D01*
X311Y1028D02*
X315Y1028D01*
X370Y1028D02*
X374Y1028D01*
X392Y1028D02*
X397Y1028D01*
X477Y1028D02*
X483Y1028D01*
X491Y1028D02*
X497Y1028D01*
X503Y1028D02*
X510Y1028D01*
X541Y1028D02*
X547Y1028D01*
X555Y1028D02*
X561Y1028D01*
X1124Y1028D02*
X1136Y1028D01*
X1155Y1028D02*
X1176Y1028D01*
X1188Y1028D02*
X1195Y1028D01*
X0Y1027D02*
X7Y1027D01*
X49Y1027D02*
X54Y1027D01*
X62Y1027D02*
X67Y1027D01*
X85Y1027D02*
X90Y1027D01*
X108Y1027D02*
X112Y1027D01*
X126Y1027D02*
X132Y1027D01*
X150Y1027D02*
X151Y1027D01*
X207Y1027D02*
X230Y1027D01*
X288Y1027D02*
X293Y1027D01*
X311Y1027D02*
X315Y1027D01*
X370Y1027D02*
X374Y1027D01*
X392Y1027D02*
X397Y1027D01*
X477Y1027D02*
X483Y1027D01*
X491Y1027D02*
X498Y1027D01*
X501Y1027D02*
X509Y1027D01*
X541Y1027D02*
X547Y1027D01*
X555Y1027D02*
X561Y1027D01*
X1124Y1027D02*
X1135Y1027D01*
X1155Y1027D02*
X1175Y1027D01*
X1188Y1027D02*
X1195Y1027D01*
X0Y1026D02*
X7Y1026D01*
X49Y1026D02*
X55Y1026D01*
X62Y1026D02*
X67Y1026D01*
X85Y1026D02*
X90Y1026D01*
X108Y1026D02*
X112Y1026D01*
X126Y1026D02*
X131Y1026D01*
X207Y1026D02*
X212Y1026D01*
X288Y1026D02*
X293Y1026D01*
X311Y1026D02*
X315Y1026D01*
X370Y1026D02*
X374Y1026D01*
X392Y1026D02*
X397Y1026D01*
X477Y1026D02*
X483Y1026D01*
X492Y1026D02*
X498Y1026D01*
X500Y1026D02*
X509Y1026D01*
X541Y1026D02*
X547Y1026D01*
X555Y1026D02*
X561Y1026D01*
X1124Y1026D02*
X1133Y1026D01*
X1156Y1026D02*
X1174Y1026D01*
X1188Y1026D02*
X1195Y1026D01*
X0Y1025D02*
X7Y1025D01*
X50Y1025D02*
X55Y1025D01*
X61Y1025D02*
X66Y1025D01*
X85Y1025D02*
X112Y1025D01*
X126Y1025D02*
X131Y1025D01*
X207Y1025D02*
X212Y1025D01*
X258Y1025D02*
X264Y1025D01*
X288Y1025D02*
X293Y1025D01*
X311Y1025D02*
X315Y1025D01*
X339Y1025D02*
X346Y1025D01*
X370Y1025D02*
X374Y1025D01*
X392Y1025D02*
X397Y1025D01*
X477Y1025D02*
X483Y1025D01*
X492Y1025D02*
X508Y1025D01*
X541Y1025D02*
X547Y1025D01*
X555Y1025D02*
X561Y1025D01*
X1124Y1025D02*
X1131Y1025D01*
X1157Y1025D02*
X1173Y1025D01*
X1188Y1025D02*
X1195Y1025D01*
X0Y1024D02*
X7Y1024D01*
X50Y1024D02*
X55Y1024D01*
X61Y1024D02*
X66Y1024D01*
X85Y1024D02*
X112Y1024D01*
X126Y1024D02*
X131Y1024D01*
X207Y1024D02*
X212Y1024D01*
X257Y1024D02*
X266Y1024D01*
X288Y1024D02*
X293Y1024D01*
X311Y1024D02*
X315Y1024D01*
X338Y1024D02*
X347Y1024D01*
X370Y1024D02*
X374Y1024D01*
X392Y1024D02*
X397Y1024D01*
X477Y1024D02*
X483Y1024D01*
X492Y1024D02*
X507Y1024D01*
X541Y1024D02*
X547Y1024D01*
X555Y1024D02*
X561Y1024D01*
X1125Y1024D02*
X1130Y1024D01*
X1159Y1024D02*
X1172Y1024D01*
X1188Y1024D02*
X1195Y1024D01*
X0Y1023D02*
X7Y1023D01*
X51Y1023D02*
X56Y1023D01*
X60Y1023D02*
X66Y1023D01*
X85Y1023D02*
X112Y1023D01*
X126Y1023D02*
X131Y1023D01*
X207Y1023D02*
X212Y1023D01*
X256Y1023D02*
X266Y1023D01*
X288Y1023D02*
X293Y1023D01*
X311Y1023D02*
X315Y1023D01*
X338Y1023D02*
X348Y1023D01*
X370Y1023D02*
X374Y1023D01*
X392Y1023D02*
X397Y1023D01*
X477Y1023D02*
X483Y1023D01*
X493Y1023D02*
X506Y1023D01*
X541Y1023D02*
X547Y1023D01*
X555Y1023D02*
X561Y1023D01*
X1126Y1023D02*
X1128Y1023D01*
X1161Y1023D02*
X1169Y1023D01*
X1188Y1023D02*
X1195Y1023D01*
X0Y1022D02*
X7Y1022D01*
X51Y1022D02*
X56Y1022D01*
X60Y1022D02*
X65Y1022D01*
X85Y1022D02*
X112Y1022D01*
X126Y1022D02*
X131Y1022D01*
X207Y1022D02*
X212Y1022D01*
X256Y1022D02*
X266Y1022D01*
X288Y1022D02*
X293Y1022D01*
X311Y1022D02*
X315Y1022D01*
X337Y1022D02*
X348Y1022D01*
X370Y1022D02*
X374Y1022D01*
X392Y1022D02*
X397Y1022D01*
X477Y1022D02*
X483Y1022D01*
X493Y1022D02*
X505Y1022D01*
X541Y1022D02*
X547Y1022D01*
X555Y1022D02*
X561Y1022D01*
X1188Y1022D02*
X1195Y1022D01*
X0Y1021D02*
X7Y1021D01*
X51Y1021D02*
X57Y1021D01*
X60Y1021D02*
X65Y1021D01*
X85Y1021D02*
X112Y1021D01*
X126Y1021D02*
X131Y1021D01*
X207Y1021D02*
X212Y1021D01*
X256Y1021D02*
X266Y1021D01*
X288Y1021D02*
X293Y1021D01*
X311Y1021D02*
X315Y1021D01*
X337Y1021D02*
X348Y1021D01*
X370Y1021D02*
X374Y1021D01*
X392Y1021D02*
X397Y1021D01*
X477Y1021D02*
X483Y1021D01*
X494Y1021D02*
X504Y1021D01*
X541Y1021D02*
X547Y1021D01*
X555Y1021D02*
X561Y1021D01*
X1188Y1021D02*
X1195Y1021D01*
X0Y1020D02*
X7Y1020D01*
X52Y1020D02*
X57Y1020D01*
X59Y1020D02*
X64Y1020D01*
X85Y1020D02*
X111Y1020D01*
X126Y1020D02*
X131Y1020D01*
X207Y1020D02*
X212Y1020D01*
X256Y1020D02*
X266Y1020D01*
X288Y1020D02*
X293Y1020D01*
X311Y1020D02*
X315Y1020D01*
X337Y1020D02*
X348Y1020D01*
X370Y1020D02*
X374Y1020D01*
X392Y1020D02*
X397Y1020D01*
X477Y1020D02*
X483Y1020D01*
X493Y1020D02*
X503Y1020D01*
X541Y1020D02*
X547Y1020D01*
X555Y1020D02*
X561Y1020D01*
X1188Y1020D02*
X1195Y1020D01*
X0Y1019D02*
X7Y1019D01*
X52Y1019D02*
X57Y1019D01*
X59Y1019D02*
X64Y1019D01*
X85Y1019D02*
X90Y1019D01*
X126Y1019D02*
X131Y1019D01*
X207Y1019D02*
X212Y1019D01*
X256Y1019D02*
X266Y1019D01*
X288Y1019D02*
X293Y1019D01*
X311Y1019D02*
X315Y1019D01*
X337Y1019D02*
X348Y1019D01*
X370Y1019D02*
X374Y1019D01*
X392Y1019D02*
X397Y1019D01*
X477Y1019D02*
X483Y1019D01*
X492Y1019D02*
X502Y1019D01*
X541Y1019D02*
X547Y1019D01*
X555Y1019D02*
X561Y1019D01*
X1188Y1019D02*
X1195Y1019D01*
X0Y1018D02*
X7Y1018D01*
X53Y1018D02*
X64Y1018D01*
X85Y1018D02*
X90Y1018D01*
X126Y1018D02*
X131Y1018D01*
X207Y1018D02*
X212Y1018D01*
X256Y1018D02*
X266Y1018D01*
X288Y1018D02*
X293Y1018D01*
X311Y1018D02*
X315Y1018D01*
X337Y1018D02*
X348Y1018D01*
X370Y1018D02*
X374Y1018D01*
X392Y1018D02*
X397Y1018D01*
X477Y1018D02*
X483Y1018D01*
X491Y1018D02*
X501Y1018D01*
X541Y1018D02*
X547Y1018D01*
X555Y1018D02*
X561Y1018D01*
X1188Y1018D02*
X1195Y1018D01*
X0Y1017D02*
X7Y1017D01*
X53Y1017D02*
X63Y1017D01*
X85Y1017D02*
X90Y1017D01*
X126Y1017D02*
X131Y1017D01*
X207Y1017D02*
X212Y1017D01*
X256Y1017D02*
X266Y1017D01*
X288Y1017D02*
X293Y1017D01*
X311Y1017D02*
X315Y1017D01*
X338Y1017D02*
X348Y1017D01*
X370Y1017D02*
X374Y1017D01*
X392Y1017D02*
X397Y1017D01*
X477Y1017D02*
X483Y1017D01*
X490Y1017D02*
X502Y1017D01*
X541Y1017D02*
X547Y1017D01*
X555Y1017D02*
X561Y1017D01*
X1188Y1017D02*
X1195Y1017D01*
X0Y1016D02*
X7Y1016D01*
X53Y1016D02*
X63Y1016D01*
X85Y1016D02*
X91Y1016D01*
X126Y1016D02*
X131Y1016D01*
X207Y1016D02*
X212Y1016D01*
X257Y1016D02*
X266Y1016D01*
X288Y1016D02*
X293Y1016D01*
X311Y1016D02*
X315Y1016D01*
X338Y1016D02*
X347Y1016D01*
X370Y1016D02*
X374Y1016D01*
X392Y1016D02*
X397Y1016D01*
X477Y1016D02*
X483Y1016D01*
X489Y1016D02*
X502Y1016D01*
X541Y1016D02*
X547Y1016D01*
X555Y1016D02*
X561Y1016D01*
X1188Y1016D02*
X1195Y1016D01*
X0Y1015D02*
X7Y1015D01*
X54Y1015D02*
X62Y1015D01*
X86Y1015D02*
X92Y1015D01*
X126Y1015D02*
X131Y1015D01*
X207Y1015D02*
X212Y1015D01*
X258Y1015D02*
X265Y1015D01*
X288Y1015D02*
X293Y1015D01*
X311Y1015D02*
X315Y1015D01*
X339Y1015D02*
X346Y1015D01*
X370Y1015D02*
X374Y1015D01*
X392Y1015D02*
X397Y1015D01*
X477Y1015D02*
X483Y1015D01*
X487Y1015D02*
X502Y1015D01*
X541Y1015D02*
X547Y1015D01*
X555Y1015D02*
X560Y1015D01*
X1188Y1015D02*
X1195Y1015D01*
X0Y1014D02*
X7Y1014D01*
X54Y1014D02*
X62Y1014D01*
X86Y1014D02*
X93Y1014D01*
X126Y1014D02*
X131Y1014D01*
X207Y1014D02*
X212Y1014D01*
X288Y1014D02*
X293Y1014D01*
X311Y1014D02*
X315Y1014D01*
X370Y1014D02*
X374Y1014D01*
X392Y1014D02*
X397Y1014D01*
X477Y1014D02*
X508Y1014D01*
X531Y1014D02*
X560Y1014D01*
X1188Y1014D02*
X1195Y1014D01*
X0Y1013D02*
X7Y1013D01*
X55Y1013D02*
X62Y1013D01*
X87Y1013D02*
X111Y1013D01*
X126Y1013D02*
X131Y1013D01*
X207Y1013D02*
X232Y1013D01*
X288Y1013D02*
X315Y1013D01*
X370Y1013D02*
X397Y1013D01*
X478Y1013D02*
X495Y1013D01*
X497Y1013D02*
X510Y1013D01*
X528Y1013D02*
X559Y1013D01*
X1188Y1013D02*
X1195Y1013D01*
X0Y1012D02*
X7Y1012D01*
X55Y1012D02*
X61Y1012D01*
X88Y1012D02*
X112Y1012D01*
X126Y1012D02*
X131Y1012D01*
X207Y1012D02*
X234Y1012D01*
X289Y1012D02*
X315Y1012D01*
X370Y1012D02*
X397Y1012D01*
X478Y1012D02*
X494Y1012D01*
X497Y1012D02*
X510Y1012D01*
X528Y1012D02*
X559Y1012D01*
X1188Y1012D02*
X1195Y1012D01*
X0Y1011D02*
X7Y1011D01*
X55Y1011D02*
X61Y1011D01*
X89Y1011D02*
X112Y1011D01*
X126Y1011D02*
X131Y1011D01*
X207Y1011D02*
X234Y1011D01*
X289Y1011D02*
X315Y1011D01*
X370Y1011D02*
X396Y1011D01*
X479Y1011D02*
X492Y1011D01*
X497Y1011D02*
X511Y1011D01*
X527Y1011D02*
X559Y1011D01*
X1188Y1011D02*
X1195Y1011D01*
X0Y1010D02*
X7Y1010D01*
X56Y1010D02*
X61Y1010D01*
X90Y1010D02*
X112Y1010D01*
X126Y1010D02*
X131Y1010D01*
X207Y1010D02*
X234Y1010D01*
X290Y1010D02*
X314Y1010D01*
X371Y1010D02*
X395Y1010D01*
X479Y1010D02*
X491Y1010D01*
X498Y1010D02*
X511Y1010D01*
X527Y1010D02*
X558Y1010D01*
X1188Y1010D02*
X1195Y1010D01*
X0Y1009D02*
X7Y1009D01*
X56Y1009D02*
X60Y1009D01*
X91Y1009D02*
X112Y1009D01*
X126Y1009D02*
X130Y1009D01*
X207Y1009D02*
X234Y1009D01*
X291Y1009D02*
X313Y1009D01*
X372Y1009D02*
X395Y1009D01*
X480Y1009D02*
X490Y1009D01*
X498Y1009D02*
X510Y1009D01*
X528Y1009D02*
X558Y1009D01*
X1188Y1009D02*
X1195Y1009D01*
X0Y1008D02*
X7Y1008D01*
X57Y1008D02*
X59Y1008D01*
X93Y1008D02*
X111Y1008D01*
X127Y1008D02*
X129Y1008D01*
X207Y1008D02*
X233Y1008D01*
X292Y1008D02*
X312Y1008D01*
X373Y1008D02*
X393Y1008D01*
X482Y1008D02*
X488Y1008D01*
X499Y1008D02*
X510Y1008D01*
X529Y1008D02*
X558Y1008D01*
X1188Y1008D02*
X1195Y1008D01*
X0Y1007D02*
X7Y1007D01*
X1136Y1007D02*
X1150Y1007D01*
X1188Y1007D02*
X1195Y1007D01*
X0Y1006D02*
X7Y1006D01*
X1132Y1006D02*
X1154Y1006D01*
X1188Y1006D02*
X1195Y1006D01*
X0Y1005D02*
X7Y1005D01*
X1130Y1005D02*
X1156Y1005D01*
X1188Y1005D02*
X1195Y1005D01*
X0Y1004D02*
X7Y1004D01*
X1129Y1004D02*
X1157Y1004D01*
X1188Y1004D02*
X1195Y1004D01*
X0Y1003D02*
X7Y1003D01*
X1128Y1003D02*
X1158Y1003D01*
X1188Y1003D02*
X1195Y1003D01*
X0Y1002D02*
X7Y1002D01*
X1127Y1002D02*
X1159Y1002D01*
X1188Y1002D02*
X1195Y1002D01*
X0Y1001D02*
X7Y1001D01*
X1126Y1001D02*
X1160Y1001D01*
X1188Y1001D02*
X1195Y1001D01*
X0Y1000D02*
X7Y1000D01*
X1126Y1000D02*
X1135Y1000D01*
X1138Y1000D02*
X1145Y1000D01*
X1151Y1000D02*
X1160Y1000D01*
X1188Y1000D02*
X1195Y1000D01*
X0Y999D02*
X7Y999D01*
X1125Y999D02*
X1133Y999D01*
X1139Y999D02*
X1145Y999D01*
X1153Y999D02*
X1161Y999D01*
X1188Y999D02*
X1195Y999D01*
X0Y998D02*
X7Y998D01*
X1125Y998D02*
X1132Y998D01*
X1139Y998D02*
X1145Y998D01*
X1154Y998D02*
X1162Y998D01*
X1188Y998D02*
X1195Y998D01*
X0Y997D02*
X7Y997D01*
X1124Y997D02*
X1131Y997D01*
X1139Y997D02*
X1145Y997D01*
X1155Y997D02*
X1162Y997D01*
X1188Y997D02*
X1195Y997D01*
X0Y996D02*
X7Y996D01*
X1124Y996D02*
X1131Y996D01*
X1139Y996D02*
X1145Y996D01*
X1156Y996D02*
X1162Y996D01*
X1188Y996D02*
X1195Y996D01*
X0Y995D02*
X7Y995D01*
X1124Y995D02*
X1130Y995D01*
X1139Y995D02*
X1145Y995D01*
X1156Y995D02*
X1162Y995D01*
X1188Y995D02*
X1195Y995D01*
X0Y994D02*
X7Y994D01*
X1124Y994D02*
X1130Y994D01*
X1139Y994D02*
X1145Y994D01*
X1156Y994D02*
X1162Y994D01*
X1188Y994D02*
X1195Y994D01*
X0Y993D02*
X7Y993D01*
X1124Y993D02*
X1130Y993D01*
X1139Y993D02*
X1145Y993D01*
X1156Y993D02*
X1162Y993D01*
X1188Y993D02*
X1195Y993D01*
X0Y992D02*
X7Y992D01*
X1124Y992D02*
X1130Y992D01*
X1139Y992D02*
X1145Y992D01*
X1156Y992D02*
X1162Y992D01*
X1188Y992D02*
X1195Y992D01*
X0Y991D02*
X7Y991D01*
X1124Y991D02*
X1130Y991D01*
X1139Y991D02*
X1145Y991D01*
X1156Y991D02*
X1162Y991D01*
X1188Y991D02*
X1195Y991D01*
X0Y990D02*
X7Y990D01*
X553Y990D02*
X557Y990D01*
X1124Y990D02*
X1130Y990D01*
X1139Y990D02*
X1145Y990D01*
X1156Y990D02*
X1162Y990D01*
X1188Y990D02*
X1195Y990D01*
X0Y989D02*
X7Y989D01*
X548Y989D02*
X558Y989D01*
X1124Y989D02*
X1130Y989D01*
X1139Y989D02*
X1145Y989D01*
X1156Y989D02*
X1162Y989D01*
X1188Y989D02*
X1195Y989D01*
X0Y988D02*
X7Y988D01*
X545Y988D02*
X558Y988D01*
X1124Y988D02*
X1130Y988D01*
X1139Y988D02*
X1145Y988D01*
X1156Y988D02*
X1162Y988D01*
X1188Y988D02*
X1195Y988D01*
X0Y987D02*
X7Y987D01*
X543Y987D02*
X558Y987D01*
X1124Y987D02*
X1130Y987D01*
X1139Y987D02*
X1145Y987D01*
X1156Y987D02*
X1162Y987D01*
X1188Y987D02*
X1195Y987D01*
X0Y986D02*
X7Y986D01*
X540Y986D02*
X558Y986D01*
X1124Y986D02*
X1130Y986D01*
X1139Y986D02*
X1145Y986D01*
X1156Y986D02*
X1162Y986D01*
X1188Y986D02*
X1195Y986D01*
X0Y985D02*
X7Y985D01*
X539Y985D02*
X559Y985D01*
X1124Y985D02*
X1130Y985D01*
X1139Y985D02*
X1145Y985D01*
X1156Y985D02*
X1162Y985D01*
X1188Y985D02*
X1195Y985D01*
X0Y984D02*
X7Y984D01*
X537Y984D02*
X559Y984D01*
X1124Y984D02*
X1130Y984D01*
X1139Y984D02*
X1145Y984D01*
X1156Y984D02*
X1162Y984D01*
X1188Y984D02*
X1195Y984D01*
X0Y983D02*
X7Y983D01*
X535Y983D02*
X559Y983D01*
X1124Y983D02*
X1130Y983D01*
X1139Y983D02*
X1145Y983D01*
X1155Y983D02*
X1162Y983D01*
X1188Y983D02*
X1195Y983D01*
X0Y982D02*
X7Y982D01*
X534Y982D02*
X560Y982D01*
X1124Y982D02*
X1130Y982D01*
X1139Y982D02*
X1145Y982D01*
X1155Y982D02*
X1162Y982D01*
X1188Y982D02*
X1195Y982D01*
X0Y981D02*
X7Y981D01*
X533Y981D02*
X559Y981D01*
X1124Y981D02*
X1130Y981D01*
X1139Y981D02*
X1145Y981D01*
X1154Y981D02*
X1161Y981D01*
X1188Y981D02*
X1195Y981D01*
X0Y980D02*
X7Y980D01*
X531Y980D02*
X553Y980D01*
X1124Y980D02*
X1130Y980D01*
X1139Y980D02*
X1145Y980D01*
X1152Y980D02*
X1161Y980D01*
X1188Y980D02*
X1195Y980D01*
X0Y979D02*
X7Y979D01*
X530Y979D02*
X548Y979D01*
X1124Y979D02*
X1130Y979D01*
X1139Y979D02*
X1160Y979D01*
X1188Y979D02*
X1195Y979D01*
X0Y978D02*
X7Y978D01*
X529Y978D02*
X545Y978D01*
X1124Y978D02*
X1130Y978D01*
X1139Y978D02*
X1159Y978D01*
X1188Y978D02*
X1195Y978D01*
X0Y977D02*
X7Y977D01*
X528Y977D02*
X543Y977D01*
X1124Y977D02*
X1130Y977D01*
X1139Y977D02*
X1158Y977D01*
X1188Y977D02*
X1195Y977D01*
X0Y976D02*
X7Y976D01*
X527Y976D02*
X541Y976D01*
X1124Y976D02*
X1130Y976D01*
X1139Y976D02*
X1157Y976D01*
X1188Y976D02*
X1195Y976D01*
X0Y975D02*
X7Y975D01*
X526Y975D02*
X540Y975D01*
X1124Y975D02*
X1130Y975D01*
X1139Y975D02*
X1156Y975D01*
X1188Y975D02*
X1195Y975D01*
X0Y974D02*
X7Y974D01*
X525Y974D02*
X538Y974D01*
X1125Y974D02*
X1129Y974D01*
X1139Y974D02*
X1155Y974D01*
X1188Y974D02*
X1195Y974D01*
X0Y973D02*
X7Y973D01*
X524Y973D02*
X537Y973D01*
X1126Y973D02*
X1128Y973D01*
X1140Y973D02*
X1153Y973D01*
X1188Y973D02*
X1195Y973D01*
X0Y972D02*
X7Y972D01*
X523Y972D02*
X536Y972D01*
X1188Y972D02*
X1195Y972D01*
X0Y971D02*
X7Y971D01*
X522Y971D02*
X535Y971D01*
X1188Y971D02*
X1195Y971D01*
X0Y970D02*
X7Y970D01*
X521Y970D02*
X534Y970D01*
X1188Y970D02*
X1195Y970D01*
X0Y969D02*
X7Y969D01*
X521Y969D02*
X533Y969D01*
X1188Y969D02*
X1195Y969D01*
X0Y968D02*
X7Y968D01*
X520Y968D02*
X532Y968D01*
X1188Y968D02*
X1195Y968D01*
X0Y967D02*
X7Y967D01*
X519Y967D02*
X531Y967D01*
X1188Y967D02*
X1195Y967D01*
X0Y966D02*
X7Y966D01*
X518Y966D02*
X530Y966D01*
X1188Y966D02*
X1195Y966D01*
X0Y965D02*
X7Y965D01*
X518Y965D02*
X529Y965D01*
X1188Y965D02*
X1195Y965D01*
X0Y964D02*
X7Y964D01*
X517Y964D02*
X528Y964D01*
X1188Y964D02*
X1195Y964D01*
X0Y963D02*
X7Y963D01*
X516Y963D02*
X527Y963D01*
X1188Y963D02*
X1195Y963D01*
X0Y962D02*
X7Y962D01*
X516Y962D02*
X527Y962D01*
X1188Y962D02*
X1195Y962D01*
X0Y961D02*
X7Y961D01*
X515Y961D02*
X526Y961D01*
X1188Y961D02*
X1195Y961D01*
X0Y960D02*
X7Y960D01*
X515Y960D02*
X525Y960D01*
X1188Y960D02*
X1195Y960D01*
X0Y959D02*
X7Y959D01*
X514Y959D02*
X525Y959D01*
X1188Y959D02*
X1195Y959D01*
X0Y958D02*
X7Y958D01*
X514Y958D02*
X524Y958D01*
X1188Y958D02*
X1195Y958D01*
X0Y957D02*
X7Y957D01*
X513Y957D02*
X523Y957D01*
X1188Y957D02*
X1195Y957D01*
X0Y956D02*
X7Y956D01*
X513Y956D02*
X523Y956D01*
X1188Y956D02*
X1195Y956D01*
X0Y955D02*
X7Y955D01*
X512Y955D02*
X522Y955D01*
X1188Y955D02*
X1195Y955D01*
X0Y954D02*
X7Y954D01*
X512Y954D02*
X522Y954D01*
X1188Y954D02*
X1195Y954D01*
X0Y953D02*
X7Y953D01*
X511Y953D02*
X521Y953D01*
X1126Y953D02*
X1128Y953D01*
X1173Y953D02*
X1175Y953D01*
X1188Y953D02*
X1195Y953D01*
X0Y952D02*
X7Y952D01*
X511Y952D02*
X521Y952D01*
X755Y952D02*
X787Y952D01*
X812Y952D02*
X844Y952D01*
X1125Y952D02*
X1129Y952D01*
X1172Y952D02*
X1176Y952D01*
X1188Y952D02*
X1195Y952D01*
X0Y951D02*
X7Y951D01*
X510Y951D02*
X520Y951D01*
X755Y951D02*
X791Y951D01*
X808Y951D02*
X844Y951D01*
X1124Y951D02*
X1130Y951D01*
X1171Y951D02*
X1177Y951D01*
X1188Y951D02*
X1195Y951D01*
X0Y950D02*
X7Y950D01*
X510Y950D02*
X520Y950D01*
X755Y950D02*
X844Y950D01*
X1124Y950D02*
X1130Y950D01*
X1171Y950D02*
X1177Y950D01*
X1188Y950D02*
X1195Y950D01*
X0Y949D02*
X7Y949D01*
X509Y949D02*
X519Y949D01*
X755Y949D02*
X844Y949D01*
X1124Y949D02*
X1130Y949D01*
X1171Y949D02*
X1177Y949D01*
X1188Y949D02*
X1195Y949D01*
X0Y948D02*
X7Y948D01*
X509Y948D02*
X519Y948D01*
X755Y948D02*
X844Y948D01*
X1124Y948D02*
X1130Y948D01*
X1171Y948D02*
X1177Y948D01*
X1188Y948D02*
X1195Y948D01*
X0Y947D02*
X7Y947D01*
X509Y947D02*
X518Y947D01*
X755Y947D02*
X844Y947D01*
X1124Y947D02*
X1130Y947D01*
X1171Y947D02*
X1177Y947D01*
X1188Y947D02*
X1195Y947D01*
X0Y946D02*
X7Y946D01*
X508Y946D02*
X518Y946D01*
X755Y946D02*
X844Y946D01*
X1124Y946D02*
X1130Y946D01*
X1171Y946D02*
X1177Y946D01*
X1188Y946D02*
X1195Y946D01*
X0Y945D02*
X7Y945D01*
X508Y945D02*
X517Y945D01*
X755Y945D02*
X844Y945D01*
X1124Y945D02*
X1130Y945D01*
X1171Y945D02*
X1177Y945D01*
X1188Y945D02*
X1195Y945D01*
X0Y944D02*
X7Y944D01*
X508Y944D02*
X517Y944D01*
X755Y944D02*
X844Y944D01*
X1124Y944D02*
X1130Y944D01*
X1171Y944D02*
X1177Y944D01*
X1188Y944D02*
X1195Y944D01*
X0Y943D02*
X7Y943D01*
X507Y943D02*
X517Y943D01*
X755Y943D02*
X844Y943D01*
X1124Y943D02*
X1177Y943D01*
X1188Y943D02*
X1195Y943D01*
X0Y942D02*
X7Y942D01*
X507Y942D02*
X516Y942D01*
X1124Y942D02*
X1177Y942D01*
X1188Y942D02*
X1195Y942D01*
X0Y941D02*
X7Y941D01*
X506Y941D02*
X516Y941D01*
X1124Y941D02*
X1177Y941D01*
X1188Y941D02*
X1195Y941D01*
X0Y940D02*
X7Y940D01*
X507Y940D02*
X516Y940D01*
X1124Y940D02*
X1177Y940D01*
X1188Y940D02*
X1195Y940D01*
X0Y939D02*
X7Y939D01*
X512Y939D02*
X515Y939D01*
X1124Y939D02*
X1177Y939D01*
X1188Y939D02*
X1195Y939D01*
X0Y938D02*
X7Y938D01*
X515Y938D02*
X515Y938D01*
X1124Y938D02*
X1177Y938D01*
X1188Y938D02*
X1195Y938D01*
X0Y937D02*
X7Y937D01*
X1124Y937D02*
X1176Y937D01*
X1188Y937D02*
X1195Y937D01*
X0Y936D02*
X7Y936D01*
X1124Y936D02*
X1130Y936D01*
X1188Y936D02*
X1195Y936D01*
X0Y935D02*
X7Y935D01*
X1124Y935D02*
X1130Y935D01*
X1188Y935D02*
X1195Y935D01*
X0Y934D02*
X7Y934D01*
X1124Y934D02*
X1130Y934D01*
X1188Y934D02*
X1195Y934D01*
X0Y933D02*
X7Y933D01*
X1124Y933D02*
X1130Y933D01*
X1188Y933D02*
X1195Y933D01*
X0Y932D02*
X7Y932D01*
X1124Y932D02*
X1130Y932D01*
X1188Y932D02*
X1195Y932D01*
X0Y931D02*
X7Y931D01*
X1124Y931D02*
X1130Y931D01*
X1188Y931D02*
X1195Y931D01*
X0Y930D02*
X7Y930D01*
X1124Y930D02*
X1130Y930D01*
X1188Y930D02*
X1195Y930D01*
X0Y929D02*
X7Y929D01*
X1124Y929D02*
X1130Y929D01*
X1188Y929D02*
X1195Y929D01*
X0Y928D02*
X7Y928D01*
X1124Y928D02*
X1130Y928D01*
X1188Y928D02*
X1195Y928D01*
X0Y927D02*
X7Y927D01*
X1125Y927D02*
X1129Y927D01*
X1188Y927D02*
X1195Y927D01*
X0Y926D02*
X7Y926D01*
X1126Y926D02*
X1128Y926D01*
X1188Y926D02*
X1195Y926D01*
X0Y925D02*
X7Y925D01*
X1188Y925D02*
X1195Y925D01*
X0Y924D02*
X7Y924D01*
X1188Y924D02*
X1195Y924D01*
X0Y923D02*
X7Y923D01*
X720Y923D02*
X741Y923D01*
X1188Y923D02*
X1195Y923D01*
X0Y922D02*
X7Y922D01*
X719Y922D02*
X742Y922D01*
X1188Y922D02*
X1195Y922D01*
X0Y921D02*
X7Y921D01*
X719Y921D02*
X742Y921D01*
X1188Y921D02*
X1195Y921D01*
X0Y920D02*
X7Y920D01*
X718Y920D02*
X742Y920D01*
X1188Y920D02*
X1195Y920D01*
X0Y919D02*
X7Y919D01*
X719Y919D02*
X742Y919D01*
X1188Y919D02*
X1195Y919D01*
X0Y918D02*
X7Y918D01*
X719Y918D02*
X742Y918D01*
X1188Y918D02*
X1195Y918D01*
X0Y917D02*
X7Y917D01*
X720Y917D02*
X742Y917D01*
X1188Y917D02*
X1195Y917D01*
X0Y916D02*
X7Y916D01*
X736Y916D02*
X742Y916D01*
X1188Y916D02*
X1195Y916D01*
X0Y915D02*
X7Y915D01*
X736Y915D02*
X742Y915D01*
X1188Y915D02*
X1195Y915D01*
X0Y914D02*
X7Y914D01*
X736Y914D02*
X742Y914D01*
X1188Y914D02*
X1195Y914D01*
X0Y913D02*
X7Y913D01*
X736Y913D02*
X742Y913D01*
X1188Y913D02*
X1195Y913D01*
X0Y912D02*
X7Y912D01*
X736Y912D02*
X742Y912D01*
X1188Y912D02*
X1195Y912D01*
X0Y911D02*
X7Y911D01*
X736Y911D02*
X742Y911D01*
X1188Y911D02*
X1195Y911D01*
X0Y910D02*
X7Y910D01*
X736Y910D02*
X742Y910D01*
X1188Y910D02*
X1195Y910D01*
X0Y909D02*
X7Y909D01*
X689Y909D02*
X742Y909D01*
X1188Y909D02*
X1195Y909D01*
X0Y908D02*
X7Y908D01*
X689Y908D02*
X742Y908D01*
X1188Y908D02*
X1195Y908D01*
X0Y907D02*
X7Y907D01*
X689Y907D02*
X742Y907D01*
X1188Y907D02*
X1195Y907D01*
X0Y906D02*
X7Y906D01*
X689Y906D02*
X742Y906D01*
X1131Y906D02*
X1141Y906D01*
X1188Y906D02*
X1195Y906D01*
X0Y905D02*
X7Y905D01*
X689Y905D02*
X742Y905D01*
X1129Y905D02*
X1143Y905D01*
X1188Y905D02*
X1195Y905D01*
X0Y904D02*
X7Y904D01*
X689Y904D02*
X742Y904D01*
X1127Y904D02*
X1144Y904D01*
X1188Y904D02*
X1195Y904D01*
X0Y903D02*
X7Y903D01*
X689Y903D02*
X742Y903D01*
X1126Y903D02*
X1145Y903D01*
X1188Y903D02*
X1195Y903D01*
X0Y902D02*
X7Y902D01*
X243Y902D02*
X274Y902D01*
X425Y902D02*
X457Y902D01*
X689Y902D02*
X695Y902D01*
X736Y902D02*
X742Y902D01*
X1126Y902D02*
X1146Y902D01*
X1188Y902D02*
X1195Y902D01*
X0Y901D02*
X7Y901D01*
X243Y901D02*
X274Y901D01*
X425Y901D02*
X457Y901D01*
X689Y901D02*
X695Y901D01*
X736Y901D02*
X742Y901D01*
X1125Y901D02*
X1146Y901D01*
X1188Y901D02*
X1195Y901D01*
X0Y900D02*
X7Y900D01*
X243Y900D02*
X274Y900D01*
X425Y900D02*
X457Y900D01*
X689Y900D02*
X695Y900D01*
X736Y900D02*
X742Y900D01*
X1125Y900D02*
X1147Y900D01*
X1188Y900D02*
X1195Y900D01*
X0Y899D02*
X7Y899D01*
X243Y899D02*
X274Y899D01*
X425Y899D02*
X457Y899D01*
X689Y899D02*
X695Y899D01*
X736Y899D02*
X742Y899D01*
X1124Y899D02*
X1131Y899D01*
X1140Y899D02*
X1147Y899D01*
X1158Y899D02*
X1161Y899D01*
X1188Y899D02*
X1195Y899D01*
X0Y898D02*
X7Y898D01*
X243Y898D02*
X274Y898D01*
X425Y898D02*
X457Y898D01*
X689Y898D02*
X695Y898D01*
X736Y898D02*
X742Y898D01*
X1124Y898D02*
X1130Y898D01*
X1141Y898D02*
X1147Y898D01*
X1157Y898D02*
X1162Y898D01*
X1188Y898D02*
X1195Y898D01*
X0Y897D02*
X7Y897D01*
X243Y897D02*
X274Y897D01*
X425Y897D02*
X457Y897D01*
X689Y897D02*
X695Y897D01*
X736Y897D02*
X742Y897D01*
X1124Y897D02*
X1130Y897D01*
X1141Y897D02*
X1148Y897D01*
X1156Y897D02*
X1162Y897D01*
X1188Y897D02*
X1195Y897D01*
X0Y896D02*
X7Y896D01*
X243Y896D02*
X274Y896D01*
X425Y896D02*
X457Y896D01*
X689Y896D02*
X695Y896D01*
X736Y896D02*
X742Y896D01*
X1124Y896D02*
X1130Y896D01*
X1142Y896D02*
X1148Y896D01*
X1156Y896D02*
X1162Y896D01*
X1188Y896D02*
X1195Y896D01*
X0Y895D02*
X7Y895D01*
X243Y895D02*
X274Y895D01*
X425Y895D02*
X457Y895D01*
X689Y895D02*
X695Y895D01*
X736Y895D02*
X742Y895D01*
X1124Y895D02*
X1130Y895D01*
X1142Y895D02*
X1148Y895D01*
X1156Y895D02*
X1162Y895D01*
X1188Y895D02*
X1195Y895D01*
X0Y894D02*
X7Y894D01*
X243Y894D02*
X274Y894D01*
X425Y894D02*
X457Y894D01*
X689Y894D02*
X695Y894D01*
X736Y894D02*
X742Y894D01*
X1124Y894D02*
X1130Y894D01*
X1142Y894D02*
X1148Y894D01*
X1156Y894D02*
X1162Y894D01*
X1188Y894D02*
X1195Y894D01*
X0Y893D02*
X7Y893D01*
X242Y893D02*
X274Y893D01*
X425Y893D02*
X457Y893D01*
X689Y893D02*
X695Y893D01*
X736Y893D02*
X742Y893D01*
X1124Y893D02*
X1130Y893D01*
X1142Y893D02*
X1148Y893D01*
X1156Y893D02*
X1162Y893D01*
X1188Y893D02*
X1195Y893D01*
X0Y892D02*
X7Y892D01*
X689Y892D02*
X695Y892D01*
X736Y892D02*
X742Y892D01*
X1124Y892D02*
X1130Y892D01*
X1142Y892D02*
X1148Y892D01*
X1156Y892D02*
X1162Y892D01*
X1188Y892D02*
X1195Y892D01*
X0Y891D02*
X7Y891D01*
X689Y891D02*
X695Y891D01*
X737Y891D02*
X742Y891D01*
X1124Y891D02*
X1130Y891D01*
X1142Y891D02*
X1148Y891D01*
X1156Y891D02*
X1162Y891D01*
X1188Y891D02*
X1195Y891D01*
X0Y890D02*
X7Y890D01*
X690Y890D02*
X694Y890D01*
X737Y890D02*
X741Y890D01*
X1124Y890D02*
X1130Y890D01*
X1142Y890D02*
X1148Y890D01*
X1156Y890D02*
X1162Y890D01*
X1188Y890D02*
X1195Y890D01*
X0Y889D02*
X7Y889D01*
X1124Y889D02*
X1130Y889D01*
X1142Y889D02*
X1148Y889D01*
X1156Y889D02*
X1162Y889D01*
X1188Y889D02*
X1195Y889D01*
X0Y888D02*
X7Y888D01*
X1124Y888D02*
X1130Y888D01*
X1142Y888D02*
X1148Y888D01*
X1156Y888D02*
X1162Y888D01*
X1188Y888D02*
X1195Y888D01*
X0Y887D02*
X7Y887D01*
X1124Y887D02*
X1130Y887D01*
X1142Y887D02*
X1148Y887D01*
X1156Y887D02*
X1162Y887D01*
X1188Y887D02*
X1195Y887D01*
X0Y886D02*
X7Y886D01*
X1124Y886D02*
X1130Y886D01*
X1142Y886D02*
X1148Y886D01*
X1156Y886D02*
X1162Y886D01*
X1188Y886D02*
X1195Y886D01*
X0Y885D02*
X7Y885D01*
X1124Y885D02*
X1131Y885D01*
X1142Y885D02*
X1148Y885D01*
X1156Y885D02*
X1162Y885D01*
X1188Y885D02*
X1195Y885D01*
X0Y884D02*
X7Y884D01*
X1124Y884D02*
X1132Y884D01*
X1142Y884D02*
X1148Y884D01*
X1156Y884D02*
X1162Y884D01*
X1188Y884D02*
X1195Y884D01*
X0Y883D02*
X7Y883D01*
X1125Y883D02*
X1132Y883D01*
X1142Y883D02*
X1148Y883D01*
X1156Y883D02*
X1162Y883D01*
X1188Y883D02*
X1195Y883D01*
X0Y882D02*
X7Y882D01*
X1126Y882D02*
X1133Y882D01*
X1141Y882D02*
X1148Y882D01*
X1156Y882D02*
X1162Y882D01*
X1188Y882D02*
X1195Y882D01*
X0Y881D02*
X7Y881D01*
X1126Y881D02*
X1133Y881D01*
X1141Y881D02*
X1147Y881D01*
X1155Y881D02*
X1162Y881D01*
X1188Y881D02*
X1195Y881D01*
X0Y880D02*
X7Y880D01*
X1127Y880D02*
X1134Y880D01*
X1140Y880D02*
X1148Y880D01*
X1152Y880D02*
X1162Y880D01*
X1188Y880D02*
X1195Y880D01*
X0Y879D02*
X7Y879D01*
X1127Y879D02*
X1161Y879D01*
X1188Y879D02*
X1195Y879D01*
X0Y878D02*
X7Y878D01*
X1125Y878D02*
X1161Y878D01*
X1188Y878D02*
X1195Y878D01*
X0Y877D02*
X7Y877D01*
X1124Y877D02*
X1160Y877D01*
X1188Y877D02*
X1195Y877D01*
X0Y876D02*
X7Y876D01*
X1124Y876D02*
X1159Y876D01*
X1188Y876D02*
X1195Y876D01*
X0Y875D02*
X7Y875D01*
X1124Y875D02*
X1158Y875D01*
X1188Y875D02*
X1195Y875D01*
X0Y874D02*
X7Y874D01*
X1124Y874D02*
X1156Y874D01*
X1188Y874D02*
X1195Y874D01*
X0Y873D02*
X7Y873D01*
X713Y873D02*
X719Y873D01*
X1125Y873D02*
X1152Y873D01*
X1188Y873D02*
X1195Y873D01*
X0Y872D02*
X7Y872D01*
X710Y872D02*
X721Y872D01*
X1188Y872D02*
X1195Y872D01*
X0Y871D02*
X7Y871D01*
X707Y871D02*
X724Y871D01*
X1188Y871D02*
X1195Y871D01*
X0Y870D02*
X7Y870D01*
X706Y870D02*
X726Y870D01*
X1188Y870D02*
X1195Y870D01*
X0Y869D02*
X7Y869D01*
X704Y869D02*
X728Y869D01*
X1188Y869D02*
X1195Y869D01*
X0Y868D02*
X7Y868D01*
X702Y868D02*
X730Y868D01*
X1188Y868D02*
X1195Y868D01*
X0Y867D02*
X7Y867D01*
X700Y867D02*
X732Y867D01*
X1188Y867D02*
X1195Y867D01*
X0Y866D02*
X7Y866D01*
X698Y866D02*
X713Y866D01*
X719Y866D02*
X734Y866D01*
X1188Y866D02*
X1195Y866D01*
X0Y865D02*
X7Y865D01*
X696Y865D02*
X710Y865D01*
X721Y865D02*
X736Y865D01*
X1188Y865D02*
X1195Y865D01*
X0Y864D02*
X7Y864D01*
X694Y864D02*
X708Y864D01*
X723Y864D02*
X737Y864D01*
X1188Y864D02*
X1195Y864D01*
X0Y863D02*
X7Y863D01*
X693Y863D02*
X706Y863D01*
X725Y863D02*
X739Y863D01*
X1188Y863D02*
X1195Y863D01*
X0Y862D02*
X7Y862D01*
X692Y862D02*
X704Y862D01*
X727Y862D02*
X740Y862D01*
X1188Y862D02*
X1195Y862D01*
X0Y861D02*
X7Y861D01*
X691Y861D02*
X702Y861D01*
X729Y861D02*
X740Y861D01*
X1188Y861D02*
X1195Y861D01*
X0Y860D02*
X7Y860D01*
X690Y860D02*
X700Y860D01*
X731Y860D02*
X741Y860D01*
X1188Y860D02*
X1195Y860D01*
X0Y859D02*
X7Y859D01*
X277Y859D02*
X295Y859D01*
X328Y859D02*
X330Y859D01*
X516Y859D02*
X516Y859D01*
X690Y859D02*
X698Y859D01*
X733Y859D02*
X741Y859D01*
X1188Y859D02*
X1195Y859D01*
X0Y858D02*
X7Y858D01*
X276Y858D02*
X295Y858D01*
X326Y858D02*
X331Y858D01*
X514Y858D02*
X517Y858D01*
X689Y858D02*
X696Y858D01*
X735Y858D02*
X742Y858D01*
X1188Y858D02*
X1195Y858D01*
X0Y857D02*
X7Y857D01*
X276Y857D02*
X295Y857D01*
X326Y857D02*
X332Y857D01*
X510Y857D02*
X517Y857D01*
X689Y857D02*
X696Y857D01*
X736Y857D02*
X742Y857D01*
X1188Y857D02*
X1195Y857D01*
X0Y856D02*
X7Y856D01*
X276Y856D02*
X295Y856D01*
X326Y856D02*
X332Y856D01*
X508Y856D02*
X517Y856D01*
X689Y856D02*
X695Y856D01*
X736Y856D02*
X742Y856D01*
X1111Y856D02*
X1113Y856D01*
X1152Y856D02*
X1160Y856D01*
X1188Y856D02*
X1195Y856D01*
X0Y855D02*
X7Y855D01*
X276Y855D02*
X295Y855D01*
X326Y855D02*
X332Y855D01*
X508Y855D02*
X518Y855D01*
X689Y855D02*
X695Y855D01*
X736Y855D02*
X742Y855D01*
X1110Y855D02*
X1114Y855D01*
X1150Y855D02*
X1162Y855D01*
X1188Y855D02*
X1195Y855D01*
X0Y854D02*
X7Y854D01*
X172Y854D02*
X188Y854D01*
X276Y854D02*
X295Y854D01*
X326Y854D02*
X332Y854D01*
X384Y854D02*
X393Y854D01*
X509Y854D02*
X518Y854D01*
X689Y854D02*
X695Y854D01*
X736Y854D02*
X742Y854D01*
X1109Y854D02*
X1115Y854D01*
X1147Y854D02*
X1162Y854D01*
X1188Y854D02*
X1195Y854D01*
X0Y853D02*
X7Y853D01*
X170Y853D02*
X190Y853D01*
X277Y853D02*
X295Y853D01*
X326Y853D02*
X332Y853D01*
X381Y853D02*
X396Y853D01*
X509Y853D02*
X519Y853D01*
X689Y853D02*
X695Y853D01*
X736Y853D02*
X742Y853D01*
X1109Y853D02*
X1115Y853D01*
X1145Y853D02*
X1162Y853D01*
X1188Y853D02*
X1195Y853D01*
X0Y852D02*
X7Y852D01*
X170Y852D02*
X191Y852D01*
X289Y852D02*
X295Y852D01*
X326Y852D02*
X332Y852D01*
X380Y852D02*
X397Y852D01*
X509Y852D02*
X519Y852D01*
X689Y852D02*
X742Y852D01*
X1109Y852D02*
X1115Y852D01*
X1143Y852D02*
X1162Y852D01*
X1188Y852D02*
X1195Y852D01*
X0Y851D02*
X7Y851D01*
X169Y851D02*
X192Y851D01*
X289Y851D02*
X295Y851D01*
X326Y851D02*
X332Y851D01*
X378Y851D02*
X399Y851D01*
X510Y851D02*
X520Y851D01*
X689Y851D02*
X742Y851D01*
X1109Y851D02*
X1115Y851D01*
X1141Y851D02*
X1162Y851D01*
X1188Y851D02*
X1195Y851D01*
X0Y850D02*
X7Y850D01*
X169Y850D02*
X172Y850D01*
X188Y850D02*
X194Y850D01*
X289Y850D02*
X295Y850D01*
X326Y850D02*
X332Y850D01*
X377Y850D02*
X400Y850D01*
X510Y850D02*
X520Y850D01*
X689Y850D02*
X742Y850D01*
X1109Y850D02*
X1115Y850D01*
X1138Y850D02*
X1160Y850D01*
X1188Y850D02*
X1195Y850D01*
X0Y849D02*
X7Y849D01*
X116Y849D02*
X117Y849D01*
X168Y849D02*
X172Y849D01*
X189Y849D02*
X195Y849D01*
X289Y849D02*
X295Y849D01*
X326Y849D02*
X332Y849D01*
X376Y849D02*
X386Y849D01*
X391Y849D02*
X401Y849D01*
X511Y849D02*
X521Y849D01*
X689Y849D02*
X742Y849D01*
X1109Y849D02*
X1115Y849D01*
X1136Y849D02*
X1153Y849D01*
X1188Y849D02*
X1195Y849D01*
X0Y848D02*
X7Y848D01*
X115Y848D02*
X118Y848D01*
X168Y848D02*
X171Y848D01*
X190Y848D02*
X196Y848D01*
X289Y848D02*
X295Y848D01*
X326Y848D02*
X332Y848D01*
X375Y848D02*
X383Y848D01*
X394Y848D02*
X401Y848D01*
X511Y848D02*
X521Y848D01*
X689Y848D02*
X742Y848D01*
X1109Y848D02*
X1115Y848D01*
X1134Y848D02*
X1150Y848D01*
X1188Y848D02*
X1195Y848D01*
X0Y847D02*
X7Y847D01*
X114Y847D02*
X119Y847D01*
X168Y847D02*
X171Y847D01*
X192Y847D02*
X197Y847D01*
X289Y847D02*
X295Y847D01*
X326Y847D02*
X332Y847D01*
X375Y847D02*
X382Y847D01*
X395Y847D02*
X402Y847D01*
X512Y847D02*
X522Y847D01*
X689Y847D02*
X742Y847D01*
X1109Y847D02*
X1115Y847D01*
X1132Y847D02*
X1148Y847D01*
X1188Y847D02*
X1195Y847D01*
X0Y846D02*
X7Y846D01*
X114Y846D02*
X120Y846D01*
X168Y846D02*
X171Y846D01*
X193Y846D02*
X198Y846D01*
X289Y846D02*
X295Y846D01*
X326Y846D02*
X332Y846D01*
X374Y846D02*
X381Y846D01*
X396Y846D02*
X403Y846D01*
X512Y846D02*
X522Y846D01*
X689Y846D02*
X742Y846D01*
X1109Y846D02*
X1115Y846D01*
X1129Y846D02*
X1146Y846D01*
X1188Y846D02*
X1195Y846D01*
X0Y845D02*
X7Y845D01*
X115Y845D02*
X121Y845D01*
X168Y845D02*
X171Y845D01*
X194Y845D02*
X199Y845D01*
X289Y845D02*
X295Y845D01*
X326Y845D02*
X332Y845D01*
X374Y845D02*
X380Y845D01*
X397Y845D02*
X403Y845D01*
X513Y845D02*
X523Y845D01*
X689Y845D02*
X695Y845D01*
X736Y845D02*
X742Y845D01*
X1109Y845D02*
X1117Y845D01*
X1128Y845D02*
X1143Y845D01*
X1188Y845D02*
X1195Y845D01*
X0Y844D02*
X7Y844D01*
X116Y844D02*
X122Y844D01*
X168Y844D02*
X171Y844D01*
X180Y844D02*
X181Y844D01*
X195Y844D02*
X199Y844D01*
X289Y844D02*
X295Y844D01*
X326Y844D02*
X332Y844D01*
X351Y844D02*
X355Y844D01*
X373Y844D02*
X379Y844D01*
X398Y844D02*
X404Y844D01*
X513Y844D02*
X523Y844D01*
X689Y844D02*
X695Y844D01*
X736Y844D02*
X742Y844D01*
X1109Y844D02*
X1119Y844D01*
X1127Y844D02*
X1141Y844D01*
X1188Y844D02*
X1195Y844D01*
X0Y843D02*
X7Y843D01*
X117Y843D02*
X123Y843D01*
X168Y843D02*
X171Y843D01*
X179Y843D02*
X182Y843D01*
X196Y843D02*
X200Y843D01*
X289Y843D02*
X295Y843D01*
X326Y843D02*
X332Y843D01*
X350Y843D02*
X355Y843D01*
X373Y843D02*
X379Y843D01*
X398Y843D02*
X404Y843D01*
X514Y843D02*
X524Y843D01*
X689Y843D02*
X695Y843D01*
X736Y843D02*
X742Y843D01*
X1109Y843D02*
X1122Y843D01*
X1127Y843D02*
X1139Y843D01*
X1188Y843D02*
X1195Y843D01*
X0Y842D02*
X7Y842D01*
X118Y842D02*
X124Y842D01*
X168Y842D02*
X171Y842D01*
X179Y842D02*
X182Y842D01*
X197Y842D02*
X200Y842D01*
X289Y842D02*
X295Y842D01*
X326Y842D02*
X332Y842D01*
X349Y842D02*
X356Y842D01*
X372Y842D02*
X378Y842D01*
X399Y842D02*
X404Y842D01*
X514Y842D02*
X525Y842D01*
X689Y842D02*
X695Y842D01*
X736Y842D02*
X742Y842D01*
X1110Y842D02*
X1124Y842D01*
X1127Y842D02*
X1137Y842D01*
X1188Y842D02*
X1195Y842D01*
X0Y841D02*
X7Y841D01*
X119Y841D02*
X125Y841D01*
X168Y841D02*
X171Y841D01*
X179Y841D02*
X182Y841D01*
X197Y841D02*
X200Y841D01*
X289Y841D02*
X295Y841D01*
X326Y841D02*
X332Y841D01*
X348Y841D02*
X356Y841D01*
X372Y841D02*
X378Y841D01*
X399Y841D02*
X405Y841D01*
X515Y841D02*
X525Y841D01*
X689Y841D02*
X695Y841D01*
X736Y841D02*
X742Y841D01*
X1110Y841D02*
X1134Y841D01*
X1188Y841D02*
X1195Y841D01*
X0Y840D02*
X7Y840D01*
X120Y840D02*
X126Y840D01*
X168Y840D02*
X172Y840D01*
X179Y840D02*
X182Y840D01*
X197Y840D02*
X200Y840D01*
X289Y840D02*
X295Y840D01*
X326Y840D02*
X332Y840D01*
X346Y840D02*
X356Y840D01*
X372Y840D02*
X378Y840D01*
X399Y840D02*
X405Y840D01*
X515Y840D02*
X526Y840D01*
X690Y840D02*
X694Y840D01*
X737Y840D02*
X741Y840D01*
X1112Y840D02*
X1133Y840D01*
X1188Y840D02*
X1195Y840D01*
X0Y839D02*
X7Y839D01*
X121Y839D02*
X127Y839D01*
X168Y839D02*
X172Y839D01*
X179Y839D02*
X182Y839D01*
X197Y839D02*
X200Y839D01*
X289Y839D02*
X295Y839D01*
X326Y839D02*
X332Y839D01*
X345Y839D02*
X355Y839D01*
X372Y839D02*
X377Y839D01*
X400Y839D02*
X405Y839D01*
X516Y839D02*
X527Y839D01*
X692Y839D02*
X692Y839D01*
X739Y839D02*
X739Y839D01*
X1114Y839D02*
X1133Y839D01*
X1188Y839D02*
X1195Y839D01*
X0Y838D02*
X7Y838D01*
X122Y838D02*
X128Y838D01*
X169Y838D02*
X182Y838D01*
X197Y838D02*
X200Y838D01*
X289Y838D02*
X295Y838D01*
X326Y838D02*
X332Y838D01*
X344Y838D02*
X354Y838D01*
X372Y838D02*
X377Y838D01*
X400Y838D02*
X405Y838D01*
X516Y838D02*
X527Y838D01*
X1116Y838D02*
X1133Y838D01*
X1188Y838D02*
X1195Y838D01*
X0Y837D02*
X7Y837D01*
X123Y837D02*
X129Y837D01*
X169Y837D02*
X182Y837D01*
X197Y837D02*
X200Y837D01*
X289Y837D02*
X295Y837D01*
X326Y837D02*
X332Y837D01*
X343Y837D02*
X353Y837D01*
X371Y837D02*
X377Y837D01*
X400Y837D02*
X406Y837D01*
X517Y837D02*
X528Y837D01*
X1119Y837D02*
X1135Y837D01*
X1188Y837D02*
X1195Y837D01*
X0Y836D02*
X7Y836D01*
X124Y836D02*
X130Y836D01*
X170Y836D02*
X182Y836D01*
X197Y836D02*
X200Y836D01*
X289Y836D02*
X295Y836D01*
X326Y836D02*
X332Y836D01*
X342Y836D02*
X352Y836D01*
X371Y836D02*
X377Y836D01*
X400Y836D02*
X406Y836D01*
X518Y836D02*
X529Y836D01*
X1121Y836D02*
X1138Y836D01*
X1188Y836D02*
X1195Y836D01*
X0Y835D02*
X7Y835D01*
X125Y835D02*
X131Y835D01*
X171Y835D02*
X182Y835D01*
X197Y835D02*
X199Y835D01*
X289Y835D02*
X295Y835D01*
X326Y835D02*
X332Y835D01*
X341Y835D02*
X350Y835D01*
X371Y835D02*
X377Y835D01*
X400Y835D02*
X406Y835D01*
X518Y835D02*
X530Y835D01*
X1123Y835D02*
X1140Y835D01*
X1188Y835D02*
X1195Y835D01*
X0Y834D02*
X7Y834D01*
X126Y834D02*
X132Y834D01*
X173Y834D02*
X182Y834D01*
X198Y834D02*
X198Y834D01*
X289Y834D02*
X295Y834D01*
X326Y834D02*
X332Y834D01*
X339Y834D02*
X349Y834D01*
X371Y834D02*
X377Y834D01*
X400Y834D02*
X406Y834D01*
X519Y834D02*
X531Y834D01*
X1126Y834D02*
X1142Y834D01*
X1188Y834D02*
X1195Y834D01*
X0Y833D02*
X7Y833D01*
X127Y833D02*
X133Y833D01*
X289Y833D02*
X295Y833D01*
X326Y833D02*
X332Y833D01*
X338Y833D02*
X348Y833D01*
X371Y833D02*
X377Y833D01*
X400Y833D02*
X406Y833D01*
X520Y833D02*
X532Y833D01*
X1128Y833D02*
X1145Y833D01*
X1188Y833D02*
X1195Y833D01*
X0Y832D02*
X7Y832D01*
X129Y832D02*
X134Y832D01*
X289Y832D02*
X295Y832D01*
X326Y832D02*
X332Y832D01*
X337Y832D02*
X347Y832D01*
X371Y832D02*
X377Y832D01*
X400Y832D02*
X406Y832D01*
X521Y832D02*
X533Y832D01*
X1130Y832D02*
X1147Y832D01*
X1188Y832D02*
X1195Y832D01*
X0Y831D02*
X7Y831D01*
X130Y831D02*
X135Y831D01*
X289Y831D02*
X295Y831D01*
X326Y831D02*
X332Y831D01*
X336Y831D02*
X346Y831D01*
X371Y831D02*
X377Y831D01*
X400Y831D02*
X406Y831D01*
X521Y831D02*
X534Y831D01*
X1132Y831D02*
X1149Y831D01*
X1188Y831D02*
X1195Y831D01*
X0Y830D02*
X7Y830D01*
X131Y830D02*
X136Y830D01*
X289Y830D02*
X295Y830D01*
X306Y830D02*
X306Y830D01*
X326Y830D02*
X332Y830D01*
X335Y830D02*
X345Y830D01*
X371Y830D02*
X377Y830D01*
X400Y830D02*
X406Y830D01*
X522Y830D02*
X535Y830D01*
X1135Y830D02*
X1151Y830D01*
X1188Y830D02*
X1195Y830D01*
X0Y829D02*
X7Y829D01*
X132Y829D02*
X137Y829D01*
X289Y829D02*
X295Y829D01*
X304Y829D02*
X308Y829D01*
X326Y829D02*
X332Y829D01*
X334Y829D02*
X343Y829D01*
X371Y829D02*
X377Y829D01*
X400Y829D02*
X406Y829D01*
X523Y829D02*
X536Y829D01*
X1137Y829D02*
X1154Y829D01*
X1188Y829D02*
X1195Y829D01*
X0Y828D02*
X7Y828D01*
X133Y828D02*
X138Y828D01*
X289Y828D02*
X295Y828D01*
X304Y828D02*
X309Y828D01*
X326Y828D02*
X342Y828D01*
X371Y828D02*
X377Y828D01*
X400Y828D02*
X406Y828D01*
X524Y828D02*
X537Y828D01*
X1139Y828D02*
X1161Y828D01*
X1188Y828D02*
X1195Y828D01*
X0Y827D02*
X7Y827D01*
X134Y827D02*
X139Y827D01*
X289Y827D02*
X295Y827D01*
X303Y827D02*
X309Y827D01*
X326Y827D02*
X341Y827D01*
X371Y827D02*
X377Y827D01*
X400Y827D02*
X406Y827D01*
X525Y827D02*
X538Y827D01*
X1142Y827D02*
X1162Y827D01*
X1188Y827D02*
X1195Y827D01*
X0Y826D02*
X7Y826D01*
X134Y826D02*
X140Y826D01*
X289Y826D02*
X295Y826D01*
X303Y826D02*
X309Y826D01*
X326Y826D02*
X341Y826D01*
X371Y826D02*
X377Y826D01*
X400Y826D02*
X405Y826D01*
X526Y826D02*
X540Y826D01*
X1144Y826D02*
X1162Y826D01*
X1188Y826D02*
X1195Y826D01*
X0Y825D02*
X7Y825D01*
X135Y825D02*
X141Y825D01*
X289Y825D02*
X295Y825D01*
X303Y825D02*
X309Y825D01*
X326Y825D02*
X342Y825D01*
X372Y825D02*
X377Y825D01*
X400Y825D02*
X405Y825D01*
X527Y825D02*
X541Y825D01*
X1146Y825D02*
X1162Y825D01*
X1188Y825D02*
X1195Y825D01*
X0Y824D02*
X7Y824D01*
X136Y824D02*
X142Y824D01*
X169Y824D02*
X200Y824D01*
X289Y824D02*
X295Y824D01*
X303Y824D02*
X309Y824D01*
X326Y824D02*
X344Y824D01*
X372Y824D02*
X378Y824D01*
X399Y824D02*
X405Y824D01*
X528Y824D02*
X543Y824D01*
X1148Y824D02*
X1162Y824D01*
X1188Y824D02*
X1195Y824D01*
X0Y823D02*
X7Y823D01*
X137Y823D02*
X143Y823D01*
X168Y823D02*
X200Y823D01*
X289Y823D02*
X295Y823D01*
X303Y823D02*
X309Y823D01*
X326Y823D02*
X345Y823D01*
X372Y823D02*
X378Y823D01*
X399Y823D02*
X405Y823D01*
X529Y823D02*
X546Y823D01*
X1151Y823D02*
X1161Y823D01*
X1188Y823D02*
X1195Y823D01*
X0Y822D02*
X7Y822D01*
X138Y822D02*
X144Y822D01*
X168Y822D02*
X200Y822D01*
X289Y822D02*
X295Y822D01*
X303Y822D02*
X309Y822D01*
X326Y822D02*
X346Y822D01*
X372Y822D02*
X378Y822D01*
X399Y822D02*
X404Y822D01*
X530Y822D02*
X548Y822D01*
X1153Y822D02*
X1159Y822D01*
X1188Y822D02*
X1195Y822D01*
X0Y821D02*
X7Y821D01*
X139Y821D02*
X145Y821D01*
X169Y821D02*
X200Y821D01*
X289Y821D02*
X295Y821D01*
X303Y821D02*
X309Y821D01*
X326Y821D02*
X334Y821D01*
X337Y821D02*
X347Y821D01*
X373Y821D02*
X378Y821D01*
X399Y821D02*
X404Y821D01*
X531Y821D02*
X553Y821D01*
X1188Y821D02*
X1195Y821D01*
X0Y820D02*
X7Y820D01*
X140Y820D02*
X146Y820D01*
X180Y820D02*
X184Y820D01*
X196Y820D02*
X200Y820D01*
X289Y820D02*
X295Y820D01*
X303Y820D02*
X309Y820D01*
X326Y820D02*
X333Y820D01*
X338Y820D02*
X348Y820D01*
X373Y820D02*
X379Y820D01*
X398Y820D02*
X404Y820D01*
X533Y820D02*
X559Y820D01*
X1188Y820D02*
X1195Y820D01*
X0Y819D02*
X7Y819D01*
X141Y819D02*
X147Y819D01*
X181Y819D02*
X184Y819D01*
X197Y819D02*
X200Y819D01*
X289Y819D02*
X295Y819D01*
X303Y819D02*
X309Y819D01*
X326Y819D02*
X332Y819D01*
X340Y819D02*
X349Y819D01*
X374Y819D02*
X379Y819D01*
X398Y819D02*
X403Y819D01*
X534Y819D02*
X561Y819D01*
X1188Y819D02*
X1195Y819D01*
X0Y818D02*
X7Y818D01*
X142Y818D02*
X148Y818D01*
X181Y818D02*
X184Y818D01*
X197Y818D02*
X200Y818D01*
X289Y818D02*
X295Y818D01*
X303Y818D02*
X309Y818D01*
X326Y818D02*
X332Y818D01*
X341Y818D02*
X351Y818D01*
X374Y818D02*
X380Y818D01*
X397Y818D02*
X403Y818D01*
X535Y818D02*
X561Y818D01*
X1188Y818D02*
X1195Y818D01*
X0Y817D02*
X7Y817D01*
X143Y817D02*
X149Y817D01*
X181Y817D02*
X184Y817D01*
X197Y817D02*
X200Y817D01*
X289Y817D02*
X295Y817D01*
X303Y817D02*
X309Y817D01*
X326Y817D02*
X332Y817D01*
X342Y817D02*
X352Y817D01*
X375Y817D02*
X380Y817D01*
X397Y817D02*
X402Y817D01*
X537Y817D02*
X561Y817D01*
X1188Y817D02*
X1195Y817D01*
X0Y816D02*
X7Y816D01*
X144Y816D02*
X150Y816D01*
X181Y816D02*
X184Y816D01*
X197Y816D02*
X200Y816D01*
X289Y816D02*
X295Y816D01*
X303Y816D02*
X309Y816D01*
X326Y816D02*
X332Y816D01*
X343Y816D02*
X353Y816D01*
X375Y816D02*
X381Y816D01*
X396Y816D02*
X402Y816D01*
X539Y816D02*
X560Y816D01*
X1188Y816D02*
X1195Y816D01*
X0Y815D02*
X7Y815D01*
X145Y815D02*
X151Y815D01*
X181Y815D02*
X184Y815D01*
X197Y815D02*
X200Y815D01*
X289Y815D02*
X295Y815D01*
X303Y815D02*
X309Y815D01*
X326Y815D02*
X332Y815D01*
X344Y815D02*
X354Y815D01*
X376Y815D02*
X381Y815D01*
X396Y815D02*
X401Y815D01*
X540Y815D02*
X560Y815D01*
X1188Y815D02*
X1195Y815D01*
X0Y814D02*
X7Y814D01*
X146Y814D02*
X150Y814D01*
X181Y814D02*
X184Y814D01*
X197Y814D02*
X200Y814D01*
X289Y814D02*
X295Y814D01*
X303Y814D02*
X309Y814D01*
X326Y814D02*
X332Y814D01*
X345Y814D02*
X355Y814D01*
X377Y814D02*
X382Y814D01*
X395Y814D02*
X400Y814D01*
X543Y814D02*
X560Y814D01*
X1188Y814D02*
X1195Y814D01*
X0Y813D02*
X7Y813D01*
X147Y813D02*
X149Y813D01*
X181Y813D02*
X184Y813D01*
X197Y813D02*
X200Y813D01*
X289Y813D02*
X295Y813D01*
X303Y813D02*
X309Y813D01*
X326Y813D02*
X332Y813D01*
X347Y813D02*
X356Y813D01*
X378Y813D02*
X383Y813D01*
X394Y813D02*
X399Y813D01*
X545Y813D02*
X559Y813D01*
X1188Y813D02*
X1195Y813D01*
X0Y812D02*
X7Y812D01*
X148Y812D02*
X148Y812D01*
X181Y812D02*
X184Y812D01*
X197Y812D02*
X200Y812D01*
X278Y812D02*
X309Y812D01*
X326Y812D02*
X332Y812D01*
X348Y812D02*
X358Y812D01*
X378Y812D02*
X384Y812D01*
X393Y812D02*
X399Y812D01*
X548Y812D02*
X559Y812D01*
X1188Y812D02*
X1195Y812D01*
X0Y811D02*
X7Y811D01*
X181Y811D02*
X184Y811D01*
X197Y811D02*
X200Y811D01*
X276Y811D02*
X309Y811D01*
X326Y811D02*
X332Y811D01*
X349Y811D02*
X359Y811D01*
X371Y811D02*
X385Y811D01*
X392Y811D02*
X406Y811D01*
X553Y811D02*
X558Y811D01*
X1188Y811D02*
X1195Y811D01*
X0Y810D02*
X7Y810D01*
X181Y810D02*
X184Y810D01*
X197Y810D02*
X200Y810D01*
X276Y810D02*
X309Y810D01*
X326Y810D02*
X332Y810D01*
X350Y810D02*
X359Y810D01*
X371Y810D02*
X385Y810D01*
X392Y810D02*
X406Y810D01*
X1188Y810D02*
X1195Y810D01*
X0Y809D02*
X7Y809D01*
X181Y809D02*
X184Y809D01*
X196Y809D02*
X200Y809D01*
X276Y809D02*
X309Y809D01*
X326Y809D02*
X332Y809D01*
X351Y809D02*
X359Y809D01*
X371Y809D02*
X385Y809D01*
X392Y809D02*
X406Y809D01*
X1188Y809D02*
X1195Y809D01*
X0Y808D02*
X7Y808D01*
X181Y808D02*
X186Y808D01*
X195Y808D02*
X199Y808D01*
X276Y808D02*
X309Y808D01*
X326Y808D02*
X332Y808D01*
X352Y808D02*
X359Y808D01*
X371Y808D02*
X385Y808D01*
X392Y808D02*
X406Y808D01*
X1188Y808D02*
X1195Y808D01*
X0Y807D02*
X7Y807D01*
X182Y807D02*
X199Y807D01*
X276Y807D02*
X309Y807D01*
X326Y807D02*
X331Y807D01*
X354Y807D02*
X359Y807D01*
X371Y807D02*
X385Y807D01*
X392Y807D02*
X406Y807D01*
X1188Y807D02*
X1195Y807D01*
X0Y806D02*
X7Y806D01*
X182Y806D02*
X198Y806D01*
X277Y806D02*
X308Y806D01*
X327Y806D02*
X330Y806D01*
X355Y806D02*
X358Y806D01*
X371Y806D02*
X385Y806D01*
X392Y806D02*
X406Y806D01*
X1126Y806D02*
X1128Y806D01*
X1173Y806D02*
X1175Y806D01*
X1188Y806D02*
X1195Y806D01*
X0Y805D02*
X7Y805D01*
X183Y805D02*
X197Y805D01*
X1125Y805D02*
X1129Y805D01*
X1172Y805D02*
X1176Y805D01*
X1188Y805D02*
X1195Y805D01*
X0Y804D02*
X7Y804D01*
X185Y804D02*
X195Y804D01*
X1124Y804D02*
X1130Y804D01*
X1171Y804D02*
X1177Y804D01*
X1188Y804D02*
X1195Y804D01*
X0Y803D02*
X7Y803D01*
X1124Y803D02*
X1130Y803D01*
X1171Y803D02*
X1177Y803D01*
X1188Y803D02*
X1195Y803D01*
X0Y802D02*
X7Y802D01*
X1124Y802D02*
X1130Y802D01*
X1171Y802D02*
X1177Y802D01*
X1188Y802D02*
X1195Y802D01*
X0Y801D02*
X7Y801D01*
X1124Y801D02*
X1130Y801D01*
X1171Y801D02*
X1177Y801D01*
X1188Y801D02*
X1195Y801D01*
X0Y800D02*
X7Y800D01*
X1124Y800D02*
X1130Y800D01*
X1171Y800D02*
X1177Y800D01*
X1188Y800D02*
X1195Y800D01*
X0Y799D02*
X7Y799D01*
X1124Y799D02*
X1130Y799D01*
X1171Y799D02*
X1177Y799D01*
X1188Y799D02*
X1195Y799D01*
X0Y798D02*
X7Y798D01*
X1124Y798D02*
X1130Y798D01*
X1171Y798D02*
X1177Y798D01*
X1188Y798D02*
X1195Y798D01*
X0Y797D02*
X7Y797D01*
X1124Y797D02*
X1130Y797D01*
X1171Y797D02*
X1177Y797D01*
X1188Y797D02*
X1195Y797D01*
X0Y796D02*
X7Y796D01*
X1124Y796D02*
X1130Y796D01*
X1171Y796D02*
X1177Y796D01*
X1188Y796D02*
X1195Y796D01*
X0Y795D02*
X7Y795D01*
X1124Y795D02*
X1130Y795D01*
X1171Y795D02*
X1177Y795D01*
X1188Y795D02*
X1195Y795D01*
X0Y794D02*
X7Y794D01*
X169Y794D02*
X170Y794D01*
X198Y794D02*
X199Y794D01*
X1124Y794D02*
X1130Y794D01*
X1171Y794D02*
X1177Y794D01*
X1188Y794D02*
X1195Y794D01*
X0Y793D02*
X7Y793D01*
X168Y793D02*
X171Y793D01*
X197Y793D02*
X200Y793D01*
X1124Y793D02*
X1130Y793D01*
X1171Y793D02*
X1177Y793D01*
X1188Y793D02*
X1195Y793D01*
X0Y792D02*
X7Y792D01*
X168Y792D02*
X171Y792D01*
X197Y792D02*
X200Y792D01*
X1124Y792D02*
X1177Y792D01*
X1188Y792D02*
X1195Y792D01*
X0Y791D02*
X7Y791D01*
X168Y791D02*
X171Y791D01*
X197Y791D02*
X200Y791D01*
X1124Y791D02*
X1177Y791D01*
X1188Y791D02*
X1195Y791D01*
X0Y790D02*
X7Y790D01*
X168Y790D02*
X171Y790D01*
X197Y790D02*
X200Y790D01*
X1124Y790D02*
X1177Y790D01*
X1188Y790D02*
X1195Y790D01*
X0Y789D02*
X7Y789D01*
X168Y789D02*
X171Y789D01*
X197Y789D02*
X200Y789D01*
X1124Y789D02*
X1177Y789D01*
X1188Y789D02*
X1195Y789D01*
X0Y788D02*
X7Y788D01*
X168Y788D02*
X171Y788D01*
X197Y788D02*
X200Y788D01*
X1124Y788D02*
X1177Y788D01*
X1188Y788D02*
X1195Y788D01*
X0Y787D02*
X7Y787D01*
X168Y787D02*
X171Y787D01*
X197Y787D02*
X200Y787D01*
X1124Y787D02*
X1177Y787D01*
X1188Y787D02*
X1195Y787D01*
X0Y786D02*
X7Y786D01*
X168Y786D02*
X200Y786D01*
X1124Y786D02*
X1177Y786D01*
X1188Y786D02*
X1195Y786D01*
X0Y785D02*
X7Y785D01*
X168Y785D02*
X200Y785D01*
X1124Y785D02*
X1130Y785D01*
X1188Y785D02*
X1195Y785D01*
X0Y784D02*
X7Y784D01*
X168Y784D02*
X200Y784D01*
X1124Y784D02*
X1130Y784D01*
X1188Y784D02*
X1195Y784D01*
X0Y783D02*
X7Y783D01*
X168Y783D02*
X200Y783D01*
X1124Y783D02*
X1130Y783D01*
X1188Y783D02*
X1195Y783D01*
X0Y782D02*
X7Y782D01*
X168Y782D02*
X200Y782D01*
X1124Y782D02*
X1130Y782D01*
X1188Y782D02*
X1195Y782D01*
X0Y781D02*
X7Y781D01*
X168Y781D02*
X171Y781D01*
X197Y781D02*
X200Y781D01*
X253Y781D02*
X498Y781D01*
X1124Y781D02*
X1130Y781D01*
X1188Y781D02*
X1195Y781D01*
X0Y780D02*
X7Y780D01*
X168Y780D02*
X171Y780D01*
X197Y780D02*
X200Y780D01*
X253Y780D02*
X498Y780D01*
X1124Y780D02*
X1130Y780D01*
X1188Y780D02*
X1195Y780D01*
X0Y779D02*
X7Y779D01*
X168Y779D02*
X171Y779D01*
X197Y779D02*
X200Y779D01*
X253Y779D02*
X498Y779D01*
X1124Y779D02*
X1130Y779D01*
X1188Y779D02*
X1195Y779D01*
X0Y778D02*
X7Y778D01*
X168Y778D02*
X171Y778D01*
X197Y778D02*
X200Y778D01*
X253Y778D02*
X498Y778D01*
X1124Y778D02*
X1146Y778D01*
X1188Y778D02*
X1195Y778D01*
X0Y777D02*
X7Y777D01*
X168Y777D02*
X171Y777D01*
X197Y777D02*
X200Y777D01*
X253Y777D02*
X498Y777D01*
X1124Y777D02*
X1147Y777D01*
X1188Y777D02*
X1195Y777D01*
X0Y776D02*
X7Y776D01*
X168Y776D02*
X171Y776D01*
X197Y776D02*
X200Y776D01*
X253Y776D02*
X498Y776D01*
X1124Y776D02*
X1147Y776D01*
X1188Y776D02*
X1195Y776D01*
X0Y775D02*
X7Y775D01*
X168Y775D02*
X171Y775D01*
X197Y775D02*
X200Y775D01*
X253Y775D02*
X498Y775D01*
X1124Y775D02*
X1148Y775D01*
X1188Y775D02*
X1195Y775D01*
X0Y774D02*
X7Y774D01*
X169Y774D02*
X170Y774D01*
X198Y774D02*
X199Y774D01*
X253Y774D02*
X498Y774D01*
X1124Y774D02*
X1147Y774D01*
X1188Y774D02*
X1195Y774D01*
X0Y773D02*
X7Y773D01*
X253Y773D02*
X498Y773D01*
X1125Y773D02*
X1147Y773D01*
X1188Y773D02*
X1195Y773D01*
X0Y772D02*
X7Y772D01*
X253Y772D02*
X498Y772D01*
X1126Y772D02*
X1145Y772D01*
X1188Y772D02*
X1195Y772D01*
X0Y771D02*
X7Y771D01*
X253Y771D02*
X262Y771D01*
X489Y771D02*
X498Y771D01*
X1188Y771D02*
X1195Y771D01*
X0Y770D02*
X7Y770D01*
X253Y770D02*
X262Y770D01*
X489Y770D02*
X498Y770D01*
X1188Y770D02*
X1195Y770D01*
X0Y769D02*
X7Y769D01*
X253Y769D02*
X262Y769D01*
X489Y769D02*
X498Y769D01*
X1188Y769D02*
X1195Y769D01*
X0Y768D02*
X7Y768D01*
X253Y768D02*
X262Y768D01*
X489Y768D02*
X498Y768D01*
X1188Y768D02*
X1195Y768D01*
X0Y767D02*
X7Y767D01*
X253Y767D02*
X262Y767D01*
X489Y767D02*
X498Y767D01*
X1188Y767D02*
X1195Y767D01*
X0Y766D02*
X7Y766D01*
X253Y766D02*
X262Y766D01*
X489Y766D02*
X498Y766D01*
X1188Y766D02*
X1195Y766D01*
X0Y765D02*
X7Y765D01*
X253Y765D02*
X262Y765D01*
X489Y765D02*
X498Y765D01*
X1188Y765D02*
X1195Y765D01*
X0Y764D02*
X7Y764D01*
X182Y764D02*
X186Y764D01*
X253Y764D02*
X262Y764D01*
X489Y764D02*
X498Y764D01*
X1188Y764D02*
X1195Y764D01*
X0Y763D02*
X7Y763D01*
X180Y763D02*
X188Y763D01*
X253Y763D02*
X262Y763D01*
X489Y763D02*
X498Y763D01*
X1188Y763D02*
X1195Y763D01*
X0Y762D02*
X7Y762D01*
X178Y762D02*
X190Y762D01*
X253Y762D02*
X262Y762D01*
X489Y762D02*
X498Y762D01*
X1188Y762D02*
X1195Y762D01*
X0Y761D02*
X7Y761D01*
X176Y761D02*
X192Y761D01*
X253Y761D02*
X262Y761D01*
X489Y761D02*
X498Y761D01*
X1188Y761D02*
X1195Y761D01*
X0Y760D02*
X7Y760D01*
X174Y760D02*
X183Y760D01*
X185Y760D02*
X194Y760D01*
X253Y760D02*
X262Y760D01*
X489Y760D02*
X498Y760D01*
X1188Y760D02*
X1195Y760D01*
X0Y759D02*
X7Y759D01*
X172Y759D02*
X180Y759D01*
X188Y759D02*
X196Y759D01*
X253Y759D02*
X262Y759D01*
X489Y759D02*
X498Y759D01*
X1188Y759D02*
X1195Y759D01*
X0Y758D02*
X7Y758D01*
X170Y758D02*
X178Y758D01*
X190Y758D02*
X198Y758D01*
X253Y758D02*
X262Y758D01*
X489Y758D02*
X498Y758D01*
X1188Y758D02*
X1195Y758D01*
X0Y757D02*
X7Y757D01*
X169Y757D02*
X176Y757D01*
X192Y757D02*
X199Y757D01*
X253Y757D02*
X262Y757D01*
X489Y757D02*
X498Y757D01*
X1188Y757D02*
X1195Y757D01*
X0Y756D02*
X7Y756D01*
X169Y756D02*
X174Y756D01*
X194Y756D02*
X199Y756D01*
X253Y756D02*
X262Y756D01*
X489Y756D02*
X498Y756D01*
X1188Y756D02*
X1195Y756D01*
X0Y755D02*
X7Y755D01*
X168Y755D02*
X172Y755D01*
X196Y755D02*
X200Y755D01*
X253Y755D02*
X262Y755D01*
X489Y755D02*
X498Y755D01*
X1188Y755D02*
X1195Y755D01*
X0Y754D02*
X7Y754D01*
X168Y754D02*
X172Y754D01*
X196Y754D02*
X200Y754D01*
X253Y754D02*
X262Y754D01*
X489Y754D02*
X498Y754D01*
X1188Y754D02*
X1195Y754D01*
X0Y753D02*
X7Y753D01*
X168Y753D02*
X172Y753D01*
X196Y753D02*
X200Y753D01*
X253Y753D02*
X262Y753D01*
X489Y753D02*
X498Y753D01*
X592Y753D02*
X607Y753D01*
X1188Y753D02*
X1195Y753D01*
X0Y752D02*
X7Y752D01*
X169Y752D02*
X174Y752D01*
X194Y752D02*
X199Y752D01*
X253Y752D02*
X262Y752D01*
X489Y752D02*
X498Y752D01*
X584Y752D02*
X615Y752D01*
X795Y752D02*
X804Y752D01*
X1188Y752D02*
X1195Y752D01*
X0Y751D02*
X7Y751D01*
X169Y751D02*
X176Y751D01*
X192Y751D02*
X199Y751D01*
X253Y751D02*
X262Y751D01*
X489Y751D02*
X498Y751D01*
X578Y751D02*
X621Y751D01*
X795Y751D02*
X804Y751D01*
X1188Y751D02*
X1195Y751D01*
X0Y750D02*
X7Y750D01*
X170Y750D02*
X178Y750D01*
X190Y750D02*
X198Y750D01*
X253Y750D02*
X262Y750D01*
X489Y750D02*
X498Y750D01*
X574Y750D02*
X625Y750D01*
X795Y750D02*
X804Y750D01*
X1188Y750D02*
X1195Y750D01*
X0Y749D02*
X7Y749D01*
X83Y749D02*
X84Y749D01*
X171Y749D02*
X180Y749D01*
X188Y749D02*
X197Y749D01*
X253Y749D02*
X262Y749D01*
X489Y749D02*
X498Y749D01*
X571Y749D02*
X629Y749D01*
X795Y749D02*
X804Y749D01*
X1188Y749D02*
X1195Y749D01*
X0Y748D02*
X7Y748D01*
X82Y748D02*
X85Y748D01*
X173Y748D02*
X182Y748D01*
X186Y748D02*
X195Y748D01*
X253Y748D02*
X262Y748D01*
X489Y748D02*
X498Y748D01*
X567Y748D02*
X632Y748D01*
X795Y748D02*
X804Y748D01*
X1188Y748D02*
X1195Y748D01*
X0Y747D02*
X7Y747D01*
X81Y747D02*
X86Y747D01*
X175Y747D02*
X193Y747D01*
X253Y747D02*
X262Y747D01*
X489Y747D02*
X498Y747D01*
X564Y747D02*
X635Y747D01*
X795Y747D02*
X804Y747D01*
X1188Y747D02*
X1195Y747D01*
X0Y746D02*
X7Y746D01*
X80Y746D02*
X86Y746D01*
X177Y746D02*
X191Y746D01*
X253Y746D02*
X262Y746D01*
X489Y746D02*
X498Y746D01*
X562Y746D02*
X637Y746D01*
X795Y746D02*
X804Y746D01*
X1188Y746D02*
X1195Y746D01*
X0Y745D02*
X7Y745D01*
X79Y745D02*
X85Y745D01*
X179Y745D02*
X189Y745D01*
X253Y745D02*
X262Y745D01*
X489Y745D02*
X498Y745D01*
X559Y745D02*
X640Y745D01*
X795Y745D02*
X804Y745D01*
X1188Y745D02*
X1195Y745D01*
X0Y744D02*
X7Y744D01*
X78Y744D02*
X84Y744D01*
X182Y744D02*
X186Y744D01*
X253Y744D02*
X262Y744D01*
X489Y744D02*
X498Y744D01*
X557Y744D02*
X642Y744D01*
X1188Y744D02*
X1195Y744D01*
X0Y743D02*
X7Y743D01*
X77Y743D02*
X83Y743D01*
X253Y743D02*
X262Y743D01*
X489Y743D02*
X498Y743D01*
X555Y743D02*
X591Y743D01*
X608Y743D02*
X644Y743D01*
X1188Y743D02*
X1195Y743D01*
X0Y742D02*
X7Y742D01*
X76Y742D02*
X82Y742D01*
X253Y742D02*
X262Y742D01*
X489Y742D02*
X498Y742D01*
X553Y742D02*
X583Y742D01*
X616Y742D02*
X646Y742D01*
X1188Y742D02*
X1195Y742D01*
X0Y741D02*
X7Y741D01*
X75Y741D02*
X81Y741D01*
X253Y741D02*
X262Y741D01*
X489Y741D02*
X498Y741D01*
X551Y741D02*
X578Y741D01*
X621Y741D02*
X648Y741D01*
X1188Y741D02*
X1195Y741D01*
X0Y740D02*
X7Y740D01*
X74Y740D02*
X80Y740D01*
X253Y740D02*
X257Y740D01*
X489Y740D02*
X498Y740D01*
X549Y740D02*
X557Y740D01*
X643Y740D02*
X650Y740D01*
X1188Y740D02*
X1195Y740D01*
X0Y739D02*
X7Y739D01*
X73Y739D02*
X79Y739D01*
X253Y739D02*
X257Y739D01*
X489Y739D02*
X498Y739D01*
X547Y739D02*
X557Y739D01*
X643Y739D02*
X652Y739D01*
X1188Y739D02*
X1195Y739D01*
X0Y738D02*
X7Y738D01*
X72Y738D02*
X78Y738D01*
X253Y738D02*
X257Y738D01*
X489Y738D02*
X498Y738D01*
X546Y738D02*
X557Y738D01*
X643Y738D02*
X653Y738D01*
X1188Y738D02*
X1195Y738D01*
X0Y737D02*
X7Y737D01*
X71Y737D02*
X77Y737D01*
X253Y737D02*
X257Y737D01*
X489Y737D02*
X498Y737D01*
X544Y737D02*
X557Y737D01*
X643Y737D02*
X655Y737D01*
X1188Y737D02*
X1195Y737D01*
X0Y736D02*
X7Y736D01*
X70Y736D02*
X76Y736D01*
X253Y736D02*
X257Y736D01*
X489Y736D02*
X498Y736D01*
X542Y736D02*
X557Y736D01*
X643Y736D02*
X657Y736D01*
X1188Y736D02*
X1195Y736D01*
X0Y735D02*
X7Y735D01*
X69Y735D02*
X75Y735D01*
X253Y735D02*
X257Y735D01*
X489Y735D02*
X498Y735D01*
X541Y735D02*
X557Y735D01*
X643Y735D02*
X658Y735D01*
X1188Y735D02*
X1195Y735D01*
X0Y734D02*
X7Y734D01*
X68Y734D02*
X74Y734D01*
X253Y734D02*
X257Y734D01*
X489Y734D02*
X498Y734D01*
X540Y734D02*
X557Y734D01*
X643Y734D02*
X659Y734D01*
X1188Y734D02*
X1195Y734D01*
X0Y733D02*
X7Y733D01*
X67Y733D02*
X72Y733D01*
X253Y733D02*
X257Y733D01*
X489Y733D02*
X498Y733D01*
X538Y733D02*
X556Y733D01*
X643Y733D02*
X661Y733D01*
X1188Y733D02*
X1195Y733D01*
X0Y732D02*
X7Y732D01*
X66Y732D02*
X71Y732D01*
X253Y732D02*
X257Y732D01*
X489Y732D02*
X498Y732D01*
X537Y732D02*
X554Y732D01*
X645Y732D02*
X662Y732D01*
X1188Y732D02*
X1195Y732D01*
X0Y731D02*
X7Y731D01*
X65Y731D02*
X70Y731D01*
X253Y731D02*
X257Y731D01*
X489Y731D02*
X498Y731D01*
X536Y731D02*
X552Y731D01*
X647Y731D02*
X664Y731D01*
X1188Y731D02*
X1195Y731D01*
X0Y730D02*
X7Y730D01*
X64Y730D02*
X69Y730D01*
X253Y730D02*
X257Y730D01*
X489Y730D02*
X498Y730D01*
X534Y730D02*
X551Y730D01*
X648Y730D02*
X665Y730D01*
X1188Y730D02*
X1195Y730D01*
X0Y729D02*
X7Y729D01*
X12Y729D02*
X29Y729D01*
X63Y729D02*
X68Y729D01*
X253Y729D02*
X257Y729D01*
X489Y729D02*
X498Y729D01*
X533Y729D02*
X549Y729D01*
X650Y729D02*
X666Y729D01*
X1188Y729D02*
X1195Y729D01*
X0Y728D02*
X7Y728D01*
X11Y728D02*
X31Y728D01*
X62Y728D02*
X67Y728D01*
X253Y728D02*
X257Y728D01*
X489Y728D02*
X498Y728D01*
X532Y728D02*
X547Y728D01*
X652Y728D02*
X667Y728D01*
X1188Y728D02*
X1195Y728D01*
X0Y727D02*
X7Y727D01*
X10Y727D02*
X32Y727D01*
X61Y727D02*
X66Y727D01*
X253Y727D02*
X257Y727D01*
X489Y727D02*
X498Y727D01*
X531Y727D02*
X546Y727D01*
X653Y727D02*
X668Y727D01*
X1188Y727D02*
X1195Y727D01*
X0Y726D02*
X7Y726D01*
X10Y726D02*
X33Y726D01*
X60Y726D02*
X65Y726D01*
X253Y726D02*
X257Y726D01*
X489Y726D02*
X498Y726D01*
X530Y726D02*
X544Y726D01*
X655Y726D02*
X669Y726D01*
X1188Y726D02*
X1195Y726D01*
X0Y725D02*
X7Y725D01*
X9Y725D02*
X13Y725D01*
X28Y725D02*
X34Y725D01*
X59Y725D02*
X65Y725D01*
X253Y725D02*
X257Y725D01*
X489Y725D02*
X498Y725D01*
X528Y725D02*
X543Y725D01*
X656Y725D02*
X671Y725D01*
X1188Y725D02*
X1195Y725D01*
X0Y724D02*
X7Y724D01*
X9Y724D02*
X12Y724D01*
X30Y724D02*
X36Y724D01*
X58Y724D02*
X64Y724D01*
X253Y724D02*
X257Y724D01*
X489Y724D02*
X498Y724D01*
X527Y724D02*
X542Y724D01*
X657Y724D02*
X672Y724D01*
X1188Y724D02*
X1195Y724D01*
X0Y723D02*
X7Y723D01*
X9Y723D02*
X12Y723D01*
X31Y723D02*
X37Y723D01*
X57Y723D02*
X63Y723D01*
X253Y723D02*
X257Y723D01*
X489Y723D02*
X498Y723D01*
X526Y723D02*
X540Y723D01*
X659Y723D02*
X673Y723D01*
X1188Y723D02*
X1195Y723D01*
X0Y722D02*
X7Y722D01*
X9Y722D02*
X12Y722D01*
X32Y722D02*
X38Y722D01*
X56Y722D02*
X62Y722D01*
X253Y722D02*
X257Y722D01*
X489Y722D02*
X498Y722D01*
X525Y722D02*
X539Y722D01*
X660Y722D02*
X674Y722D01*
X1188Y722D02*
X1195Y722D01*
X0Y721D02*
X7Y721D01*
X9Y721D02*
X12Y721D01*
X34Y721D02*
X39Y721D01*
X55Y721D02*
X61Y721D01*
X253Y721D02*
X257Y721D01*
X489Y721D02*
X498Y721D01*
X524Y721D02*
X538Y721D01*
X661Y721D02*
X675Y721D01*
X1188Y721D02*
X1195Y721D01*
X0Y720D02*
X7Y720D01*
X9Y720D02*
X12Y720D01*
X35Y720D02*
X40Y720D01*
X54Y720D02*
X60Y720D01*
X253Y720D02*
X257Y720D01*
X489Y720D02*
X498Y720D01*
X523Y720D02*
X537Y720D01*
X662Y720D02*
X676Y720D01*
X1188Y720D02*
X1195Y720D01*
X0Y719D02*
X7Y719D01*
X9Y719D02*
X12Y719D01*
X21Y719D02*
X22Y719D01*
X36Y719D02*
X40Y719D01*
X53Y719D02*
X59Y719D01*
X253Y719D02*
X257Y719D01*
X489Y719D02*
X498Y719D01*
X523Y719D02*
X536Y719D01*
X663Y719D02*
X676Y719D01*
X724Y719D02*
X744Y719D01*
X1188Y719D02*
X1195Y719D01*
X0Y718D02*
X7Y718D01*
X9Y718D02*
X12Y718D01*
X20Y718D02*
X23Y718D01*
X37Y718D02*
X40Y718D01*
X52Y718D02*
X58Y718D01*
X253Y718D02*
X257Y718D01*
X489Y718D02*
X498Y718D01*
X522Y718D02*
X535Y718D01*
X542Y718D02*
X547Y718D01*
X652Y718D02*
X657Y718D01*
X664Y718D02*
X677Y718D01*
X724Y718D02*
X745Y718D01*
X1188Y718D02*
X1195Y718D01*
X0Y717D02*
X7Y717D01*
X9Y717D02*
X12Y717D01*
X20Y717D02*
X23Y717D01*
X37Y717D02*
X40Y717D01*
X51Y717D02*
X57Y717D01*
X253Y717D02*
X257Y717D01*
X489Y717D02*
X498Y717D01*
X521Y717D02*
X534Y717D01*
X541Y717D02*
X548Y717D01*
X651Y717D02*
X658Y717D01*
X666Y717D02*
X678Y717D01*
X724Y717D02*
X745Y717D01*
X1188Y717D02*
X1195Y717D01*
X0Y716D02*
X7Y716D01*
X9Y716D02*
X12Y716D01*
X20Y716D02*
X23Y716D01*
X37Y716D02*
X40Y716D01*
X50Y716D02*
X56Y716D01*
X253Y716D02*
X257Y716D01*
X489Y716D02*
X498Y716D01*
X520Y716D02*
X532Y716D01*
X540Y716D02*
X549Y716D01*
X650Y716D02*
X659Y716D01*
X667Y716D02*
X679Y716D01*
X724Y716D02*
X744Y716D01*
X1188Y716D02*
X1195Y716D01*
X0Y715D02*
X7Y715D01*
X9Y715D02*
X12Y715D01*
X20Y715D02*
X23Y715D01*
X37Y715D02*
X40Y715D01*
X49Y715D02*
X55Y715D01*
X253Y715D02*
X257Y715D01*
X489Y715D02*
X498Y715D01*
X519Y715D02*
X531Y715D01*
X540Y715D02*
X549Y715D01*
X650Y715D02*
X659Y715D01*
X668Y715D02*
X680Y715D01*
X724Y715D02*
X727Y715D01*
X1188Y715D02*
X1195Y715D01*
X0Y714D02*
X7Y714D01*
X9Y714D02*
X13Y714D01*
X20Y714D02*
X23Y714D01*
X37Y714D02*
X40Y714D01*
X50Y714D02*
X54Y714D01*
X253Y714D02*
X257Y714D01*
X489Y714D02*
X498Y714D01*
X518Y714D02*
X531Y714D01*
X540Y714D02*
X549Y714D01*
X650Y714D02*
X659Y714D01*
X669Y714D02*
X681Y714D01*
X724Y714D02*
X727Y714D01*
X1188Y714D02*
X1195Y714D01*
X0Y713D02*
X7Y713D01*
X9Y713D02*
X23Y713D01*
X37Y713D02*
X40Y713D01*
X51Y713D02*
X53Y713D01*
X253Y713D02*
X257Y713D01*
X489Y713D02*
X498Y713D01*
X518Y713D02*
X530Y713D01*
X540Y713D02*
X550Y713D01*
X649Y713D02*
X659Y713D01*
X669Y713D02*
X682Y713D01*
X724Y713D02*
X727Y713D01*
X1188Y713D02*
X1195Y713D01*
X0Y712D02*
X7Y712D01*
X10Y712D02*
X23Y712D01*
X37Y712D02*
X40Y712D01*
X52Y712D02*
X52Y712D01*
X253Y712D02*
X257Y712D01*
X489Y712D02*
X498Y712D01*
X517Y712D02*
X529Y712D01*
X540Y712D02*
X550Y712D01*
X649Y712D02*
X659Y712D01*
X670Y712D02*
X682Y712D01*
X724Y712D02*
X727Y712D01*
X1188Y712D02*
X1195Y712D01*
X0Y711D02*
X7Y711D01*
X11Y711D02*
X23Y711D01*
X37Y711D02*
X40Y711D01*
X253Y711D02*
X257Y711D01*
X489Y711D02*
X498Y711D01*
X516Y711D02*
X528Y711D01*
X540Y711D02*
X550Y711D01*
X649Y711D02*
X659Y711D01*
X671Y711D02*
X683Y711D01*
X724Y711D02*
X727Y711D01*
X1188Y711D02*
X1195Y711D01*
X0Y710D02*
X7Y710D01*
X12Y710D02*
X23Y710D01*
X38Y710D02*
X40Y710D01*
X253Y710D02*
X257Y710D01*
X489Y710D02*
X498Y710D01*
X515Y710D02*
X527Y710D01*
X540Y710D02*
X550Y710D01*
X649Y710D02*
X659Y710D01*
X672Y710D02*
X684Y710D01*
X724Y710D02*
X727Y710D01*
X1188Y710D02*
X1195Y710D01*
X0Y709D02*
X7Y709D01*
X15Y709D02*
X22Y709D01*
X253Y709D02*
X257Y709D01*
X489Y709D02*
X498Y709D01*
X515Y709D02*
X526Y709D01*
X540Y709D02*
X550Y709D01*
X649Y709D02*
X659Y709D01*
X673Y709D02*
X685Y709D01*
X724Y709D02*
X727Y709D01*
X1188Y709D02*
X1195Y709D01*
X0Y708D02*
X7Y708D01*
X253Y708D02*
X257Y708D01*
X489Y708D02*
X498Y708D01*
X514Y708D02*
X525Y708D01*
X540Y708D02*
X550Y708D01*
X649Y708D02*
X659Y708D01*
X674Y708D02*
X685Y708D01*
X724Y708D02*
X727Y708D01*
X1188Y708D02*
X1195Y708D01*
X0Y707D02*
X7Y707D01*
X253Y707D02*
X257Y707D01*
X489Y707D02*
X498Y707D01*
X513Y707D02*
X524Y707D01*
X540Y707D02*
X550Y707D01*
X649Y707D02*
X659Y707D01*
X675Y707D02*
X686Y707D01*
X715Y707D02*
X740Y707D01*
X1188Y707D02*
X1195Y707D01*
X0Y706D02*
X7Y706D01*
X253Y706D02*
X257Y706D01*
X489Y706D02*
X498Y706D01*
X512Y706D02*
X524Y706D01*
X540Y706D02*
X550Y706D01*
X649Y706D02*
X659Y706D01*
X675Y706D02*
X687Y706D01*
X714Y706D02*
X741Y706D01*
X1188Y706D02*
X1195Y706D01*
X0Y705D02*
X7Y705D01*
X253Y705D02*
X257Y705D01*
X489Y705D02*
X498Y705D01*
X512Y705D02*
X523Y705D01*
X540Y705D02*
X550Y705D01*
X649Y705D02*
X659Y705D01*
X676Y705D02*
X687Y705D01*
X714Y705D02*
X741Y705D01*
X1188Y705D02*
X1195Y705D01*
X0Y704D02*
X7Y704D01*
X253Y704D02*
X257Y704D01*
X489Y704D02*
X498Y704D01*
X511Y704D02*
X522Y704D01*
X540Y704D02*
X550Y704D01*
X649Y704D02*
X659Y704D01*
X677Y704D02*
X688Y704D01*
X714Y704D02*
X741Y704D01*
X1188Y704D02*
X1195Y704D01*
X0Y703D02*
X7Y703D01*
X253Y703D02*
X257Y703D01*
X489Y703D02*
X498Y703D01*
X511Y703D02*
X521Y703D01*
X540Y703D02*
X550Y703D01*
X649Y703D02*
X659Y703D01*
X678Y703D02*
X688Y703D01*
X724Y703D02*
X728Y703D01*
X1188Y703D02*
X1195Y703D01*
X0Y702D02*
X7Y702D01*
X253Y702D02*
X257Y702D01*
X489Y702D02*
X498Y702D01*
X510Y702D02*
X521Y702D01*
X540Y702D02*
X550Y702D01*
X649Y702D02*
X659Y702D01*
X678Y702D02*
X689Y702D01*
X724Y702D02*
X727Y702D01*
X1188Y702D02*
X1195Y702D01*
X0Y701D02*
X7Y701D01*
X253Y701D02*
X257Y701D01*
X489Y701D02*
X498Y701D01*
X509Y701D02*
X520Y701D01*
X540Y701D02*
X550Y701D01*
X649Y701D02*
X659Y701D01*
X679Y701D02*
X690Y701D01*
X726Y701D02*
X726Y701D01*
X1188Y701D02*
X1195Y701D01*
X0Y700D02*
X7Y700D01*
X253Y700D02*
X257Y700D01*
X489Y700D02*
X498Y700D01*
X509Y700D02*
X519Y700D01*
X540Y700D02*
X550Y700D01*
X649Y700D02*
X659Y700D01*
X680Y700D02*
X690Y700D01*
X1188Y700D02*
X1195Y700D01*
X0Y699D02*
X7Y699D01*
X10Y699D02*
X40Y699D01*
X253Y699D02*
X257Y699D01*
X489Y699D02*
X498Y699D01*
X508Y699D02*
X519Y699D01*
X540Y699D02*
X550Y699D01*
X649Y699D02*
X659Y699D01*
X680Y699D02*
X691Y699D01*
X1188Y699D02*
X1195Y699D01*
X0Y698D02*
X7Y698D01*
X9Y698D02*
X40Y698D01*
X253Y698D02*
X257Y698D01*
X489Y698D02*
X498Y698D01*
X508Y698D02*
X518Y698D01*
X540Y698D02*
X550Y698D01*
X649Y698D02*
X659Y698D01*
X681Y698D02*
X691Y698D01*
X1188Y698D02*
X1195Y698D01*
X0Y697D02*
X7Y697D01*
X9Y697D02*
X40Y697D01*
X253Y697D02*
X257Y697D01*
X489Y697D02*
X498Y697D01*
X507Y697D02*
X518Y697D01*
X540Y697D02*
X550Y697D01*
X649Y697D02*
X659Y697D01*
X682Y697D02*
X692Y697D01*
X1188Y697D02*
X1195Y697D01*
X0Y696D02*
X7Y696D01*
X10Y696D02*
X40Y696D01*
X253Y696D02*
X257Y696D01*
X489Y696D02*
X498Y696D01*
X507Y696D02*
X517Y696D01*
X540Y696D02*
X550Y696D01*
X649Y696D02*
X659Y696D01*
X682Y696D02*
X692Y696D01*
X1188Y696D02*
X1195Y696D01*
X0Y695D02*
X7Y695D01*
X33Y695D02*
X40Y695D01*
X253Y695D02*
X257Y695D01*
X489Y695D02*
X498Y695D01*
X506Y695D02*
X516Y695D01*
X540Y695D02*
X550Y695D01*
X649Y695D02*
X659Y695D01*
X683Y695D02*
X693Y695D01*
X1188Y695D02*
X1195Y695D01*
X0Y694D02*
X7Y694D01*
X31Y694D02*
X40Y694D01*
X253Y694D02*
X257Y694D01*
X489Y694D02*
X498Y694D01*
X506Y694D02*
X516Y694D01*
X540Y694D02*
X550Y694D01*
X649Y694D02*
X659Y694D01*
X683Y694D02*
X693Y694D01*
X1188Y694D02*
X1195Y694D01*
X0Y693D02*
X7Y693D01*
X28Y693D02*
X38Y693D01*
X253Y693D02*
X257Y693D01*
X489Y693D02*
X498Y693D01*
X505Y693D02*
X515Y693D01*
X540Y693D02*
X550Y693D01*
X649Y693D02*
X659Y693D01*
X684Y693D02*
X694Y693D01*
X1188Y693D02*
X1195Y693D01*
X0Y692D02*
X7Y692D01*
X26Y692D02*
X36Y692D01*
X253Y692D02*
X257Y692D01*
X489Y692D02*
X498Y692D01*
X505Y692D02*
X515Y692D01*
X540Y692D02*
X550Y692D01*
X649Y692D02*
X659Y692D01*
X684Y692D02*
X694Y692D01*
X1188Y692D02*
X1195Y692D01*
X0Y691D02*
X7Y691D01*
X24Y691D02*
X33Y691D01*
X253Y691D02*
X257Y691D01*
X489Y691D02*
X498Y691D01*
X504Y691D02*
X514Y691D01*
X540Y691D02*
X550Y691D01*
X649Y691D02*
X659Y691D01*
X685Y691D02*
X695Y691D01*
X1188Y691D02*
X1195Y691D01*
X0Y690D02*
X7Y690D01*
X22Y690D02*
X31Y690D01*
X253Y690D02*
X257Y690D01*
X489Y690D02*
X498Y690D01*
X504Y690D02*
X514Y690D01*
X540Y690D02*
X550Y690D01*
X649Y690D02*
X659Y690D01*
X685Y690D02*
X695Y690D01*
X1188Y690D02*
X1195Y690D01*
X0Y689D02*
X7Y689D01*
X19Y689D02*
X29Y689D01*
X253Y689D02*
X257Y689D01*
X489Y689D02*
X498Y689D01*
X503Y689D02*
X513Y689D01*
X540Y689D02*
X550Y689D01*
X649Y689D02*
X659Y689D01*
X686Y689D02*
X696Y689D01*
X1188Y689D02*
X1195Y689D01*
X0Y688D02*
X7Y688D01*
X17Y688D02*
X27Y688D01*
X253Y688D02*
X257Y688D01*
X489Y688D02*
X498Y688D01*
X503Y688D02*
X513Y688D01*
X540Y688D02*
X550Y688D01*
X649Y688D02*
X659Y688D01*
X686Y688D02*
X696Y688D01*
X1188Y688D02*
X1195Y688D01*
X0Y687D02*
X7Y687D01*
X15Y687D02*
X24Y687D01*
X253Y687D02*
X257Y687D01*
X489Y687D02*
X498Y687D01*
X503Y687D02*
X512Y687D01*
X540Y687D02*
X550Y687D01*
X649Y687D02*
X659Y687D01*
X687Y687D02*
X696Y687D01*
X1188Y687D02*
X1195Y687D01*
X0Y686D02*
X7Y686D01*
X13Y686D02*
X22Y686D01*
X253Y686D02*
X257Y686D01*
X489Y686D02*
X498Y686D01*
X502Y686D02*
X512Y686D01*
X540Y686D02*
X550Y686D01*
X649Y686D02*
X659Y686D01*
X687Y686D02*
X697Y686D01*
X1188Y686D02*
X1195Y686D01*
X0Y685D02*
X7Y685D01*
X10Y685D02*
X20Y685D01*
X253Y685D02*
X257Y685D01*
X489Y685D02*
X498Y685D01*
X502Y685D02*
X511Y685D01*
X540Y685D02*
X550Y685D01*
X649Y685D02*
X659Y685D01*
X688Y685D02*
X697Y685D01*
X1188Y685D02*
X1195Y685D01*
X0Y684D02*
X7Y684D01*
X9Y684D02*
X17Y684D01*
X253Y684D02*
X257Y684D01*
X489Y684D02*
X498Y684D01*
X501Y684D02*
X511Y684D01*
X540Y684D02*
X550Y684D01*
X649Y684D02*
X659Y684D01*
X688Y684D02*
X698Y684D01*
X720Y684D02*
X725Y684D01*
X1188Y684D02*
X1195Y684D01*
X0Y683D02*
X7Y683D01*
X9Y683D02*
X39Y683D01*
X253Y683D02*
X257Y683D01*
X489Y683D02*
X498Y683D01*
X501Y683D02*
X511Y683D01*
X540Y683D02*
X549Y683D01*
X650Y683D02*
X659Y683D01*
X688Y683D02*
X698Y683D01*
X719Y683D02*
X725Y683D01*
X1188Y683D02*
X1195Y683D01*
X0Y682D02*
X7Y682D01*
X9Y682D02*
X40Y682D01*
X253Y682D02*
X257Y682D01*
X489Y682D02*
X498Y682D01*
X501Y682D02*
X510Y682D01*
X540Y682D02*
X549Y682D01*
X650Y682D02*
X659Y682D01*
X689Y682D02*
X698Y682D01*
X719Y682D02*
X726Y682D01*
X1188Y682D02*
X1195Y682D01*
X0Y681D02*
X7Y681D01*
X9Y681D02*
X40Y681D01*
X253Y681D02*
X257Y681D01*
X489Y681D02*
X498Y681D01*
X500Y681D02*
X510Y681D01*
X540Y681D02*
X549Y681D01*
X650Y681D02*
X659Y681D01*
X689Y681D02*
X699Y681D01*
X719Y681D02*
X726Y681D01*
X1188Y681D02*
X1195Y681D01*
X0Y680D02*
X7Y680D01*
X9Y680D02*
X40Y680D01*
X253Y680D02*
X257Y680D01*
X489Y680D02*
X498Y680D01*
X500Y680D02*
X510Y680D01*
X541Y680D02*
X548Y680D01*
X651Y680D02*
X658Y680D01*
X690Y680D02*
X699Y680D01*
X719Y680D02*
X726Y680D01*
X1188Y680D02*
X1195Y680D01*
X0Y679D02*
X7Y679D01*
X9Y679D02*
X39Y679D01*
X253Y679D02*
X257Y679D01*
X489Y679D02*
X498Y679D01*
X500Y679D02*
X509Y679D01*
X542Y679D02*
X547Y679D01*
X652Y679D02*
X657Y679D01*
X690Y679D02*
X699Y679D01*
X719Y679D02*
X726Y679D01*
X1188Y679D02*
X1195Y679D01*
X0Y678D02*
X7Y678D01*
X253Y678D02*
X257Y678D01*
X489Y678D02*
X509Y678D01*
X544Y678D02*
X545Y678D01*
X654Y678D02*
X655Y678D01*
X690Y678D02*
X700Y678D01*
X719Y678D02*
X726Y678D01*
X1188Y678D02*
X1195Y678D01*
X0Y677D02*
X7Y677D01*
X253Y677D02*
X257Y677D01*
X489Y677D02*
X508Y677D01*
X691Y677D02*
X700Y677D01*
X719Y677D02*
X725Y677D01*
X1188Y677D02*
X1195Y677D01*
X0Y676D02*
X7Y676D01*
X253Y676D02*
X257Y676D01*
X489Y676D02*
X508Y676D01*
X691Y676D02*
X700Y676D01*
X721Y676D02*
X723Y676D01*
X1188Y676D02*
X1195Y676D01*
X0Y675D02*
X7Y675D01*
X253Y675D02*
X257Y675D01*
X489Y675D02*
X508Y675D01*
X691Y675D02*
X700Y675D01*
X1188Y675D02*
X1195Y675D01*
X0Y674D02*
X7Y674D01*
X253Y674D02*
X257Y674D01*
X489Y674D02*
X508Y674D01*
X692Y674D02*
X701Y674D01*
X1188Y674D02*
X1195Y674D01*
X0Y673D02*
X7Y673D01*
X253Y673D02*
X257Y673D01*
X489Y673D02*
X507Y673D01*
X692Y673D02*
X701Y673D01*
X1188Y673D02*
X1195Y673D01*
X0Y672D02*
X7Y672D01*
X253Y672D02*
X257Y672D01*
X489Y672D02*
X507Y672D01*
X692Y672D02*
X701Y672D01*
X1188Y672D02*
X1195Y672D01*
X0Y671D02*
X7Y671D01*
X253Y671D02*
X257Y671D01*
X489Y671D02*
X507Y671D01*
X692Y671D02*
X701Y671D01*
X1188Y671D02*
X1195Y671D01*
X0Y670D02*
X7Y670D01*
X253Y670D02*
X257Y670D01*
X489Y670D02*
X507Y670D01*
X693Y670D02*
X702Y670D01*
X1188Y670D02*
X1195Y670D01*
X0Y669D02*
X7Y669D01*
X10Y669D02*
X11Y669D01*
X38Y669D02*
X40Y669D01*
X253Y669D02*
X257Y669D01*
X489Y669D02*
X506Y669D01*
X693Y669D02*
X702Y669D01*
X1188Y669D02*
X1195Y669D01*
X0Y668D02*
X7Y668D01*
X9Y668D02*
X12Y668D01*
X37Y668D02*
X40Y668D01*
X253Y668D02*
X257Y668D01*
X489Y668D02*
X506Y668D01*
X693Y668D02*
X702Y668D01*
X1188Y668D02*
X1195Y668D01*
X0Y667D02*
X7Y667D01*
X9Y667D02*
X12Y667D01*
X37Y667D02*
X40Y667D01*
X253Y667D02*
X257Y667D01*
X489Y667D02*
X506Y667D01*
X693Y667D02*
X702Y667D01*
X1188Y667D02*
X1195Y667D01*
X0Y666D02*
X7Y666D01*
X9Y666D02*
X12Y666D01*
X37Y666D02*
X40Y666D01*
X253Y666D02*
X257Y666D01*
X489Y666D02*
X506Y666D01*
X693Y666D02*
X702Y666D01*
X1188Y666D02*
X1195Y666D01*
X0Y665D02*
X7Y665D01*
X9Y665D02*
X40Y665D01*
X253Y665D02*
X257Y665D01*
X489Y665D02*
X506Y665D01*
X694Y665D02*
X703Y665D01*
X1188Y665D02*
X1195Y665D01*
X0Y664D02*
X7Y664D01*
X9Y664D02*
X40Y664D01*
X253Y664D02*
X257Y664D01*
X489Y664D02*
X505Y664D01*
X694Y664D02*
X703Y664D01*
X1188Y664D02*
X1195Y664D01*
X0Y663D02*
X7Y663D01*
X9Y663D02*
X40Y663D01*
X253Y663D02*
X257Y663D01*
X489Y663D02*
X505Y663D01*
X694Y663D02*
X703Y663D01*
X1188Y663D02*
X1195Y663D01*
X0Y662D02*
X7Y662D01*
X9Y662D02*
X40Y662D01*
X253Y662D02*
X257Y662D01*
X489Y662D02*
X505Y662D01*
X694Y662D02*
X703Y662D01*
X1188Y662D02*
X1195Y662D01*
X0Y661D02*
X7Y661D01*
X9Y661D02*
X12Y661D01*
X37Y661D02*
X40Y661D01*
X253Y661D02*
X257Y661D01*
X489Y661D02*
X505Y661D01*
X694Y661D02*
X703Y661D01*
X1188Y661D02*
X1195Y661D01*
X0Y660D02*
X7Y660D01*
X9Y660D02*
X12Y660D01*
X37Y660D02*
X40Y660D01*
X253Y660D02*
X257Y660D01*
X489Y660D02*
X505Y660D01*
X694Y660D02*
X703Y660D01*
X741Y660D02*
X744Y660D01*
X1188Y660D02*
X1195Y660D01*
X0Y659D02*
X7Y659D01*
X9Y659D02*
X12Y659D01*
X37Y659D02*
X40Y659D01*
X253Y659D02*
X257Y659D01*
X489Y659D02*
X505Y659D01*
X694Y659D02*
X703Y659D01*
X740Y659D02*
X745Y659D01*
X1188Y659D02*
X1195Y659D01*
X0Y658D02*
X7Y658D01*
X9Y658D02*
X13Y658D01*
X36Y658D02*
X40Y658D01*
X253Y658D02*
X257Y658D01*
X489Y658D02*
X505Y658D01*
X694Y658D02*
X703Y658D01*
X740Y658D02*
X745Y658D01*
X1188Y658D02*
X1195Y658D01*
X0Y657D02*
X7Y657D01*
X10Y657D02*
X15Y657D01*
X34Y657D02*
X40Y657D01*
X253Y657D02*
X257Y657D01*
X489Y657D02*
X504Y657D01*
X695Y657D02*
X704Y657D01*
X741Y657D02*
X745Y657D01*
X1188Y657D02*
X1195Y657D01*
X0Y656D02*
X7Y656D01*
X10Y656D02*
X17Y656D01*
X32Y656D02*
X39Y656D01*
X253Y656D02*
X257Y656D01*
X489Y656D02*
X504Y656D01*
X695Y656D02*
X704Y656D01*
X742Y656D02*
X745Y656D01*
X1188Y656D02*
X1195Y656D01*
X0Y655D02*
X7Y655D01*
X11Y655D02*
X19Y655D01*
X30Y655D02*
X38Y655D01*
X253Y655D02*
X262Y655D01*
X489Y655D02*
X504Y655D01*
X695Y655D02*
X704Y655D01*
X742Y655D02*
X745Y655D01*
X1188Y655D02*
X1195Y655D01*
X0Y654D02*
X7Y654D01*
X12Y654D02*
X21Y654D01*
X29Y654D02*
X37Y654D01*
X253Y654D02*
X262Y654D01*
X489Y654D02*
X504Y654D01*
X695Y654D02*
X704Y654D01*
X742Y654D02*
X745Y654D01*
X1188Y654D02*
X1195Y654D01*
X0Y653D02*
X7Y653D01*
X14Y653D02*
X24Y653D01*
X26Y653D02*
X35Y653D01*
X253Y653D02*
X262Y653D01*
X489Y653D02*
X504Y653D01*
X695Y653D02*
X704Y653D01*
X742Y653D02*
X745Y653D01*
X1188Y653D02*
X1195Y653D01*
X0Y652D02*
X7Y652D01*
X16Y652D02*
X33Y652D01*
X253Y652D02*
X262Y652D01*
X489Y652D02*
X504Y652D01*
X695Y652D02*
X704Y652D01*
X715Y652D02*
X726Y652D01*
X742Y652D02*
X745Y652D01*
X1188Y652D02*
X1195Y652D01*
X0Y651D02*
X7Y651D01*
X18Y651D02*
X31Y651D01*
X253Y651D02*
X262Y651D01*
X489Y651D02*
X504Y651D01*
X695Y651D02*
X704Y651D01*
X714Y651D02*
X727Y651D01*
X742Y651D02*
X745Y651D01*
X1188Y651D02*
X1195Y651D01*
X0Y650D02*
X7Y650D01*
X20Y650D02*
X29Y650D01*
X253Y650D02*
X262Y650D01*
X489Y650D02*
X504Y650D01*
X695Y650D02*
X704Y650D01*
X714Y650D02*
X728Y650D01*
X742Y650D02*
X745Y650D01*
X1188Y650D02*
X1195Y650D01*
X0Y649D02*
X7Y649D01*
X23Y649D02*
X26Y649D01*
X82Y649D02*
X84Y649D01*
X253Y649D02*
X262Y649D01*
X489Y649D02*
X504Y649D01*
X695Y649D02*
X704Y649D01*
X714Y649D02*
X729Y649D01*
X742Y649D02*
X745Y649D01*
X1188Y649D02*
X1195Y649D01*
X0Y648D02*
X7Y648D01*
X81Y648D02*
X85Y648D01*
X253Y648D02*
X262Y648D01*
X489Y648D02*
X504Y648D01*
X695Y648D02*
X704Y648D01*
X715Y648D02*
X730Y648D01*
X742Y648D02*
X745Y648D01*
X1188Y648D02*
X1195Y648D01*
X0Y647D02*
X7Y647D01*
X80Y647D02*
X86Y647D01*
X253Y647D02*
X262Y647D01*
X489Y647D02*
X504Y647D01*
X695Y647D02*
X704Y647D01*
X726Y647D02*
X731Y647D01*
X742Y647D02*
X745Y647D01*
X1188Y647D02*
X1195Y647D01*
X0Y646D02*
X7Y646D01*
X79Y646D02*
X86Y646D01*
X253Y646D02*
X262Y646D01*
X489Y646D02*
X504Y646D01*
X695Y646D02*
X704Y646D01*
X727Y646D02*
X732Y646D01*
X742Y646D02*
X745Y646D01*
X1188Y646D02*
X1195Y646D01*
X0Y645D02*
X7Y645D01*
X78Y645D02*
X85Y645D01*
X253Y645D02*
X262Y645D01*
X489Y645D02*
X504Y645D01*
X695Y645D02*
X704Y645D01*
X728Y645D02*
X732Y645D01*
X742Y645D02*
X745Y645D01*
X1188Y645D02*
X1195Y645D01*
X0Y644D02*
X7Y644D01*
X77Y644D02*
X84Y644D01*
X253Y644D02*
X262Y644D01*
X489Y644D02*
X504Y644D01*
X695Y644D02*
X704Y644D01*
X729Y644D02*
X733Y644D01*
X742Y644D02*
X745Y644D01*
X1188Y644D02*
X1195Y644D01*
X0Y643D02*
X7Y643D01*
X76Y643D02*
X83Y643D01*
X253Y643D02*
X262Y643D01*
X489Y643D02*
X504Y643D01*
X695Y643D02*
X704Y643D01*
X730Y643D02*
X745Y643D01*
X1188Y643D02*
X1195Y643D01*
X0Y642D02*
X7Y642D01*
X75Y642D02*
X82Y642D01*
X253Y642D02*
X262Y642D01*
X489Y642D02*
X504Y642D01*
X695Y642D02*
X704Y642D01*
X730Y642D02*
X745Y642D01*
X1188Y642D02*
X1195Y642D01*
X0Y641D02*
X7Y641D01*
X74Y641D02*
X81Y641D01*
X253Y641D02*
X262Y641D01*
X489Y641D02*
X504Y641D01*
X695Y641D02*
X704Y641D01*
X731Y641D02*
X745Y641D01*
X1188Y641D02*
X1195Y641D01*
X0Y640D02*
X7Y640D01*
X73Y640D02*
X80Y640D01*
X253Y640D02*
X262Y640D01*
X489Y640D02*
X504Y640D01*
X695Y640D02*
X704Y640D01*
X732Y640D02*
X745Y640D01*
X1188Y640D02*
X1195Y640D01*
X0Y639D02*
X7Y639D01*
X72Y639D02*
X79Y639D01*
X253Y639D02*
X262Y639D01*
X489Y639D02*
X505Y639D01*
X695Y639D02*
X704Y639D01*
X1188Y639D02*
X1195Y639D01*
X0Y638D02*
X7Y638D01*
X71Y638D02*
X78Y638D01*
X253Y638D02*
X262Y638D01*
X489Y638D02*
X505Y638D01*
X694Y638D02*
X703Y638D01*
X1188Y638D02*
X1195Y638D01*
X0Y637D02*
X7Y637D01*
X70Y637D02*
X77Y637D01*
X253Y637D02*
X262Y637D01*
X489Y637D02*
X505Y637D01*
X694Y637D02*
X703Y637D01*
X1188Y637D02*
X1195Y637D01*
X0Y636D02*
X7Y636D01*
X69Y636D02*
X76Y636D01*
X253Y636D02*
X262Y636D01*
X489Y636D02*
X505Y636D01*
X694Y636D02*
X703Y636D01*
X1188Y636D02*
X1195Y636D01*
X0Y635D02*
X7Y635D01*
X68Y635D02*
X75Y635D01*
X253Y635D02*
X262Y635D01*
X489Y635D02*
X505Y635D01*
X694Y635D02*
X703Y635D01*
X1188Y635D02*
X1195Y635D01*
X0Y634D02*
X7Y634D01*
X67Y634D02*
X74Y634D01*
X253Y634D02*
X262Y634D01*
X489Y634D02*
X505Y634D01*
X694Y634D02*
X703Y634D01*
X1188Y634D02*
X1195Y634D01*
X0Y633D02*
X7Y633D01*
X67Y633D02*
X72Y633D01*
X253Y633D02*
X262Y633D01*
X489Y633D02*
X505Y633D01*
X694Y633D02*
X703Y633D01*
X1188Y633D02*
X1195Y633D01*
X0Y632D02*
X7Y632D01*
X66Y632D02*
X71Y632D01*
X253Y632D02*
X262Y632D01*
X489Y632D02*
X505Y632D01*
X694Y632D02*
X703Y632D01*
X1188Y632D02*
X1195Y632D01*
X0Y631D02*
X7Y631D01*
X65Y631D02*
X70Y631D01*
X253Y631D02*
X262Y631D01*
X489Y631D02*
X506Y631D01*
X693Y631D02*
X702Y631D01*
X705Y631D02*
X735Y631D01*
X1188Y631D02*
X1195Y631D01*
X0Y630D02*
X7Y630D01*
X64Y630D02*
X69Y630D01*
X253Y630D02*
X262Y630D01*
X489Y630D02*
X506Y630D01*
X693Y630D02*
X702Y630D01*
X705Y630D02*
X735Y630D01*
X1188Y630D02*
X1195Y630D01*
X0Y629D02*
X7Y629D01*
X63Y629D02*
X68Y629D01*
X253Y629D02*
X262Y629D01*
X489Y629D02*
X506Y629D01*
X693Y629D02*
X702Y629D01*
X705Y629D02*
X735Y629D01*
X1188Y629D02*
X1195Y629D01*
X0Y628D02*
X7Y628D01*
X62Y628D02*
X67Y628D01*
X173Y628D02*
X177Y628D01*
X253Y628D02*
X262Y628D01*
X489Y628D02*
X506Y628D01*
X693Y628D02*
X702Y628D01*
X705Y628D02*
X735Y628D01*
X1188Y628D02*
X1195Y628D01*
X0Y627D02*
X7Y627D01*
X61Y627D02*
X66Y627D01*
X172Y627D02*
X178Y627D01*
X253Y627D02*
X262Y627D01*
X489Y627D02*
X506Y627D01*
X693Y627D02*
X702Y627D01*
X715Y627D02*
X719Y627D01*
X1188Y627D02*
X1195Y627D01*
X0Y626D02*
X7Y626D01*
X60Y626D02*
X65Y626D01*
X172Y626D02*
X178Y626D01*
X253Y626D02*
X262Y626D01*
X489Y626D02*
X507Y626D01*
X692Y626D02*
X701Y626D01*
X714Y626D02*
X717Y626D01*
X1188Y626D02*
X1195Y626D01*
X0Y625D02*
X7Y625D01*
X59Y625D02*
X65Y625D01*
X171Y625D02*
X178Y625D01*
X253Y625D02*
X262Y625D01*
X489Y625D02*
X507Y625D01*
X692Y625D02*
X701Y625D01*
X714Y625D02*
X716Y625D01*
X1188Y625D02*
X1195Y625D01*
X0Y624D02*
X7Y624D01*
X58Y624D02*
X64Y624D01*
X171Y624D02*
X178Y624D01*
X253Y624D02*
X262Y624D01*
X489Y624D02*
X507Y624D01*
X692Y624D02*
X701Y624D01*
X713Y624D02*
X716Y624D01*
X1188Y624D02*
X1195Y624D01*
X0Y623D02*
X7Y623D01*
X57Y623D02*
X63Y623D01*
X170Y623D02*
X177Y623D01*
X253Y623D02*
X262Y623D01*
X489Y623D02*
X507Y623D01*
X692Y623D02*
X701Y623D01*
X713Y623D02*
X715Y623D01*
X1188Y623D02*
X1195Y623D01*
X0Y622D02*
X7Y622D01*
X56Y622D02*
X62Y622D01*
X170Y622D02*
X177Y622D01*
X193Y622D02*
X222Y622D01*
X253Y622D02*
X262Y622D01*
X489Y622D02*
X508Y622D01*
X691Y622D02*
X701Y622D01*
X713Y622D02*
X715Y622D01*
X1188Y622D02*
X1195Y622D01*
X0Y621D02*
X7Y621D01*
X55Y621D02*
X61Y621D01*
X170Y621D02*
X176Y621D01*
X193Y621D02*
X222Y621D01*
X253Y621D02*
X262Y621D01*
X489Y621D02*
X508Y621D01*
X691Y621D02*
X700Y621D01*
X713Y621D02*
X715Y621D01*
X1188Y621D02*
X1195Y621D01*
X0Y620D02*
X7Y620D01*
X54Y620D02*
X60Y620D01*
X169Y620D02*
X176Y620D01*
X193Y620D02*
X222Y620D01*
X253Y620D02*
X262Y620D01*
X489Y620D02*
X508Y620D01*
X691Y620D02*
X700Y620D01*
X713Y620D02*
X716Y620D01*
X1188Y620D02*
X1195Y620D01*
X0Y619D02*
X7Y619D01*
X53Y619D02*
X59Y619D01*
X169Y619D02*
X176Y619D01*
X193Y619D02*
X222Y619D01*
X253Y619D02*
X262Y619D01*
X489Y619D02*
X509Y619D01*
X690Y619D02*
X700Y619D01*
X714Y619D02*
X717Y619D01*
X1188Y619D02*
X1195Y619D01*
X0Y618D02*
X7Y618D01*
X52Y618D02*
X58Y618D01*
X169Y618D02*
X175Y618D01*
X193Y618D02*
X222Y618D01*
X253Y618D02*
X262Y618D01*
X489Y618D02*
X498Y618D01*
X500Y618D02*
X509Y618D01*
X690Y618D02*
X699Y618D01*
X715Y618D02*
X719Y618D01*
X1188Y618D02*
X1195Y618D01*
X0Y617D02*
X7Y617D01*
X51Y617D02*
X57Y617D01*
X169Y617D02*
X175Y617D01*
X193Y617D02*
X222Y617D01*
X253Y617D02*
X261Y617D01*
X489Y617D02*
X498Y617D01*
X500Y617D02*
X509Y617D01*
X690Y617D02*
X699Y617D01*
X716Y617D02*
X735Y617D01*
X1188Y617D02*
X1195Y617D01*
X0Y616D02*
X7Y616D01*
X50Y616D02*
X56Y616D01*
X169Y616D02*
X175Y616D01*
X193Y616D02*
X222Y616D01*
X253Y616D02*
X261Y616D01*
X489Y616D02*
X498Y616D01*
X500Y616D02*
X510Y616D01*
X689Y616D02*
X699Y616D01*
X714Y616D02*
X735Y616D01*
X1188Y616D02*
X1195Y616D01*
X0Y615D02*
X7Y615D01*
X49Y615D02*
X55Y615D01*
X169Y615D02*
X175Y615D01*
X193Y615D02*
X199Y615D01*
X216Y615D02*
X222Y615D01*
X253Y615D02*
X260Y615D01*
X489Y615D02*
X498Y615D01*
X501Y615D02*
X510Y615D01*
X689Y615D02*
X698Y615D01*
X713Y615D02*
X735Y615D01*
X1188Y615D02*
X1195Y615D01*
X0Y614D02*
X7Y614D01*
X50Y614D02*
X54Y614D01*
X169Y614D02*
X175Y614D01*
X193Y614D02*
X199Y614D01*
X216Y614D02*
X222Y614D01*
X253Y614D02*
X260Y614D01*
X489Y614D02*
X498Y614D01*
X501Y614D02*
X511Y614D01*
X689Y614D02*
X698Y614D01*
X713Y614D02*
X735Y614D01*
X1188Y614D02*
X1195Y614D01*
X0Y613D02*
X7Y613D01*
X51Y613D02*
X53Y613D01*
X169Y613D02*
X175Y613D01*
X193Y613D02*
X199Y613D01*
X216Y613D02*
X222Y613D01*
X253Y613D02*
X259Y613D01*
X489Y613D02*
X498Y613D01*
X501Y613D02*
X511Y613D01*
X688Y613D02*
X698Y613D01*
X713Y613D02*
X716Y613D01*
X1188Y613D02*
X1195Y613D01*
X0Y612D02*
X7Y612D01*
X52Y612D02*
X52Y612D01*
X169Y612D02*
X175Y612D01*
X193Y612D02*
X199Y612D01*
X216Y612D02*
X222Y612D01*
X253Y612D02*
X259Y612D01*
X489Y612D02*
X498Y612D01*
X502Y612D02*
X511Y612D01*
X688Y612D02*
X697Y612D01*
X713Y612D02*
X716Y612D01*
X1188Y612D02*
X1195Y612D01*
X0Y611D02*
X7Y611D01*
X169Y611D02*
X175Y611D01*
X193Y611D02*
X199Y611D01*
X216Y611D02*
X222Y611D01*
X253Y611D02*
X259Y611D01*
X489Y611D02*
X498Y611D01*
X502Y611D02*
X512Y611D01*
X687Y611D02*
X697Y611D01*
X714Y611D02*
X715Y611D01*
X1188Y611D02*
X1195Y611D01*
X0Y610D02*
X7Y610D01*
X169Y610D02*
X175Y610D01*
X193Y610D02*
X199Y610D01*
X216Y610D02*
X222Y610D01*
X253Y610D02*
X258Y610D01*
X489Y610D02*
X498Y610D01*
X502Y610D02*
X512Y610D01*
X687Y610D02*
X697Y610D01*
X1188Y610D02*
X1195Y610D01*
X0Y609D02*
X7Y609D01*
X169Y609D02*
X175Y609D01*
X193Y609D02*
X199Y609D01*
X216Y609D02*
X222Y609D01*
X253Y609D02*
X258Y609D01*
X489Y609D02*
X498Y609D01*
X503Y609D02*
X513Y609D01*
X686Y609D02*
X696Y609D01*
X1188Y609D02*
X1195Y609D01*
X0Y608D02*
X7Y608D01*
X169Y608D02*
X175Y608D01*
X193Y608D02*
X199Y608D01*
X216Y608D02*
X222Y608D01*
X253Y608D02*
X258Y608D01*
X489Y608D02*
X498Y608D01*
X503Y608D02*
X513Y608D01*
X686Y608D02*
X696Y608D01*
X1188Y608D02*
X1195Y608D01*
X0Y607D02*
X7Y607D01*
X169Y607D02*
X175Y607D01*
X193Y607D02*
X199Y607D01*
X216Y607D02*
X222Y607D01*
X253Y607D02*
X258Y607D01*
X489Y607D02*
X498Y607D01*
X504Y607D02*
X514Y607D01*
X685Y607D02*
X695Y607D01*
X1188Y607D02*
X1195Y607D01*
X0Y606D02*
X7Y606D01*
X169Y606D02*
X175Y606D01*
X193Y606D02*
X199Y606D01*
X216Y606D02*
X222Y606D01*
X253Y606D02*
X258Y606D01*
X489Y606D02*
X498Y606D01*
X504Y606D02*
X514Y606D01*
X685Y606D02*
X695Y606D01*
X1188Y606D02*
X1195Y606D01*
X0Y605D02*
X7Y605D01*
X169Y605D02*
X175Y605D01*
X193Y605D02*
X199Y605D01*
X216Y605D02*
X222Y605D01*
X253Y605D02*
X257Y605D01*
X489Y605D02*
X498Y605D01*
X505Y605D02*
X515Y605D01*
X685Y605D02*
X694Y605D01*
X715Y605D02*
X745Y605D01*
X1188Y605D02*
X1195Y605D01*
X0Y604D02*
X7Y604D01*
X169Y604D02*
X175Y604D01*
X193Y604D02*
X199Y604D01*
X216Y604D02*
X222Y604D01*
X253Y604D02*
X257Y604D01*
X489Y604D02*
X498Y604D01*
X505Y604D02*
X515Y604D01*
X684Y604D02*
X694Y604D01*
X714Y604D02*
X745Y604D01*
X1188Y604D02*
X1195Y604D01*
X0Y603D02*
X7Y603D01*
X169Y603D02*
X175Y603D01*
X193Y603D02*
X199Y603D01*
X216Y603D02*
X222Y603D01*
X253Y603D02*
X257Y603D01*
X489Y603D02*
X498Y603D01*
X506Y603D02*
X516Y603D01*
X684Y603D02*
X693Y603D01*
X714Y603D02*
X745Y603D01*
X1188Y603D02*
X1195Y603D01*
X0Y602D02*
X7Y602D01*
X169Y602D02*
X175Y602D01*
X193Y602D02*
X199Y602D01*
X216Y602D02*
X222Y602D01*
X253Y602D02*
X257Y602D01*
X489Y602D02*
X498Y602D01*
X506Y602D02*
X516Y602D01*
X683Y602D02*
X693Y602D01*
X714Y602D02*
X745Y602D01*
X1188Y602D02*
X1195Y602D01*
X0Y601D02*
X7Y601D01*
X169Y601D02*
X199Y601D01*
X216Y601D02*
X222Y601D01*
X253Y601D02*
X257Y601D01*
X489Y601D02*
X498Y601D01*
X507Y601D02*
X517Y601D01*
X682Y601D02*
X692Y601D01*
X731Y601D02*
X735Y601D01*
X741Y601D02*
X745Y601D01*
X1188Y601D02*
X1195Y601D01*
X0Y600D02*
X7Y600D01*
X169Y600D02*
X199Y600D01*
X216Y600D02*
X222Y600D01*
X253Y600D02*
X257Y600D01*
X489Y600D02*
X498Y600D01*
X507Y600D02*
X517Y600D01*
X682Y600D02*
X692Y600D01*
X731Y600D02*
X734Y600D01*
X742Y600D02*
X745Y600D01*
X1188Y600D02*
X1195Y600D01*
X0Y599D02*
X7Y599D01*
X170Y599D02*
X198Y599D01*
X216Y599D02*
X222Y599D01*
X253Y599D02*
X257Y599D01*
X489Y599D02*
X498Y599D01*
X508Y599D02*
X518Y599D01*
X681Y599D02*
X692Y599D01*
X731Y599D02*
X734Y599D01*
X742Y599D02*
X745Y599D01*
X1188Y599D02*
X1195Y599D01*
X0Y598D02*
X7Y598D01*
X170Y598D02*
X198Y598D01*
X216Y598D02*
X222Y598D01*
X253Y598D02*
X257Y598D01*
X489Y598D02*
X498Y598D01*
X508Y598D02*
X519Y598D01*
X680Y598D02*
X691Y598D01*
X731Y598D02*
X734Y598D01*
X742Y598D02*
X745Y598D01*
X1188Y598D02*
X1195Y598D01*
X0Y597D02*
X7Y597D01*
X171Y597D02*
X197Y597D01*
X216Y597D02*
X222Y597D01*
X253Y597D02*
X257Y597D01*
X489Y597D02*
X498Y597D01*
X509Y597D02*
X519Y597D01*
X680Y597D02*
X690Y597D01*
X731Y597D02*
X734Y597D01*
X742Y597D02*
X745Y597D01*
X1188Y597D02*
X1195Y597D01*
X0Y596D02*
X7Y596D01*
X172Y596D02*
X196Y596D01*
X217Y596D02*
X222Y596D01*
X253Y596D02*
X257Y596D01*
X489Y596D02*
X498Y596D01*
X509Y596D02*
X520Y596D01*
X679Y596D02*
X690Y596D01*
X731Y596D02*
X734Y596D01*
X742Y596D02*
X745Y596D01*
X1188Y596D02*
X1195Y596D01*
X0Y595D02*
X7Y595D01*
X173Y595D02*
X194Y595D01*
X218Y595D02*
X221Y595D01*
X253Y595D02*
X257Y595D01*
X489Y595D02*
X498Y595D01*
X510Y595D02*
X520Y595D01*
X679Y595D02*
X689Y595D01*
X731Y595D02*
X734Y595D01*
X742Y595D02*
X745Y595D01*
X1188Y595D02*
X1195Y595D01*
X0Y594D02*
X7Y594D01*
X253Y594D02*
X257Y594D01*
X489Y594D02*
X498Y594D01*
X510Y594D02*
X521Y594D01*
X678Y594D02*
X689Y594D01*
X731Y594D02*
X734Y594D01*
X742Y594D02*
X745Y594D01*
X1188Y594D02*
X1195Y594D01*
X0Y593D02*
X7Y593D01*
X253Y593D02*
X257Y593D01*
X489Y593D02*
X498Y593D01*
X511Y593D02*
X522Y593D01*
X677Y593D02*
X688Y593D01*
X731Y593D02*
X734Y593D01*
X742Y593D02*
X745Y593D01*
X1188Y593D02*
X1195Y593D01*
X0Y592D02*
X7Y592D01*
X253Y592D02*
X257Y592D01*
X489Y592D02*
X498Y592D01*
X512Y592D02*
X523Y592D01*
X676Y592D02*
X687Y592D01*
X731Y592D02*
X734Y592D01*
X742Y592D02*
X745Y592D01*
X1188Y592D02*
X1195Y592D01*
X0Y591D02*
X7Y591D01*
X253Y591D02*
X258Y591D01*
X489Y591D02*
X498Y591D01*
X512Y591D02*
X523Y591D01*
X676Y591D02*
X687Y591D01*
X731Y591D02*
X734Y591D01*
X742Y591D02*
X745Y591D01*
X1188Y591D02*
X1195Y591D01*
X0Y590D02*
X7Y590D01*
X253Y590D02*
X258Y590D01*
X489Y590D02*
X498Y590D01*
X513Y590D02*
X524Y590D01*
X675Y590D02*
X686Y590D01*
X731Y590D02*
X734Y590D01*
X742Y590D02*
X745Y590D01*
X1188Y590D02*
X1195Y590D01*
X0Y589D02*
X7Y589D01*
X253Y589D02*
X258Y589D01*
X489Y589D02*
X498Y589D01*
X514Y589D02*
X525Y589D01*
X674Y589D02*
X685Y589D01*
X732Y589D02*
X733Y589D01*
X742Y589D02*
X745Y589D01*
X1188Y589D02*
X1195Y589D01*
X0Y588D02*
X7Y588D01*
X253Y588D02*
X258Y588D01*
X489Y588D02*
X498Y588D01*
X514Y588D02*
X526Y588D01*
X673Y588D02*
X685Y588D01*
X742Y588D02*
X745Y588D01*
X1188Y588D02*
X1195Y588D01*
X0Y587D02*
X7Y587D01*
X253Y587D02*
X258Y587D01*
X489Y587D02*
X498Y587D01*
X515Y587D02*
X527Y587D01*
X672Y587D02*
X684Y587D01*
X742Y587D02*
X745Y587D01*
X1188Y587D02*
X1195Y587D01*
X0Y586D02*
X7Y586D01*
X253Y586D02*
X259Y586D01*
X489Y586D02*
X498Y586D01*
X516Y586D02*
X528Y586D01*
X672Y586D02*
X683Y586D01*
X742Y586D02*
X745Y586D01*
X1188Y586D02*
X1195Y586D01*
X0Y585D02*
X7Y585D01*
X253Y585D02*
X259Y585D01*
X489Y585D02*
X498Y585D01*
X517Y585D02*
X528Y585D01*
X671Y585D02*
X682Y585D01*
X743Y585D02*
X744Y585D01*
X1188Y585D02*
X1195Y585D01*
X0Y584D02*
X7Y584D01*
X253Y584D02*
X259Y584D01*
X489Y584D02*
X498Y584D01*
X517Y584D02*
X529Y584D01*
X670Y584D02*
X682Y584D01*
X1188Y584D02*
X1195Y584D01*
X0Y583D02*
X7Y583D01*
X253Y583D02*
X260Y583D01*
X489Y583D02*
X498Y583D01*
X518Y583D02*
X530Y583D01*
X669Y583D02*
X681Y583D01*
X1188Y583D02*
X1195Y583D01*
X0Y582D02*
X7Y582D01*
X253Y582D02*
X260Y582D01*
X489Y582D02*
X498Y582D01*
X519Y582D02*
X531Y582D01*
X668Y582D02*
X680Y582D01*
X1188Y582D02*
X1195Y582D01*
X0Y581D02*
X7Y581D01*
X253Y581D02*
X261Y581D01*
X489Y581D02*
X498Y581D01*
X520Y581D02*
X532Y581D01*
X667Y581D02*
X679Y581D01*
X1188Y581D02*
X1195Y581D01*
X0Y580D02*
X7Y580D01*
X253Y580D02*
X261Y580D01*
X489Y580D02*
X498Y580D01*
X521Y580D02*
X533Y580D01*
X666Y580D02*
X679Y580D01*
X1188Y580D02*
X1195Y580D01*
X0Y579D02*
X7Y579D01*
X253Y579D02*
X262Y579D01*
X489Y579D02*
X498Y579D01*
X521Y579D02*
X534Y579D01*
X665Y579D02*
X678Y579D01*
X1188Y579D02*
X1195Y579D01*
X0Y578D02*
X7Y578D01*
X205Y578D02*
X221Y578D01*
X253Y578D02*
X262Y578D01*
X489Y578D02*
X498Y578D01*
X522Y578D02*
X535Y578D01*
X664Y578D02*
X677Y578D01*
X1188Y578D02*
X1195Y578D01*
X0Y577D02*
X7Y577D01*
X203Y577D02*
X222Y577D01*
X253Y577D02*
X262Y577D01*
X489Y577D02*
X498Y577D01*
X523Y577D02*
X537Y577D01*
X663Y577D02*
X676Y577D01*
X1188Y577D02*
X1195Y577D01*
X0Y576D02*
X7Y576D01*
X200Y576D02*
X222Y576D01*
X253Y576D02*
X262Y576D01*
X489Y576D02*
X498Y576D01*
X524Y576D02*
X538Y576D01*
X661Y576D02*
X675Y576D01*
X1188Y576D02*
X1195Y576D01*
X0Y575D02*
X7Y575D01*
X198Y575D02*
X222Y575D01*
X253Y575D02*
X262Y575D01*
X489Y575D02*
X498Y575D01*
X525Y575D02*
X539Y575D01*
X660Y575D02*
X674Y575D01*
X1188Y575D02*
X1195Y575D01*
X0Y574D02*
X7Y574D01*
X195Y574D02*
X222Y574D01*
X253Y574D02*
X262Y574D01*
X489Y574D02*
X498Y574D01*
X526Y574D02*
X540Y574D01*
X659Y574D02*
X673Y574D01*
X1188Y574D02*
X1195Y574D01*
X0Y573D02*
X7Y573D01*
X192Y573D02*
X221Y573D01*
X253Y573D02*
X262Y573D01*
X489Y573D02*
X498Y573D01*
X527Y573D02*
X541Y573D01*
X658Y573D02*
X672Y573D01*
X1188Y573D02*
X1195Y573D01*
X0Y572D02*
X7Y572D01*
X190Y572D02*
X220Y572D01*
X253Y572D02*
X262Y572D01*
X489Y572D02*
X498Y572D01*
X528Y572D02*
X543Y572D01*
X656Y572D02*
X671Y572D01*
X1188Y572D02*
X1195Y572D01*
X0Y571D02*
X7Y571D01*
X187Y571D02*
X206Y571D01*
X253Y571D02*
X262Y571D01*
X489Y571D02*
X498Y571D01*
X529Y571D02*
X544Y571D01*
X655Y571D02*
X670Y571D01*
X1188Y571D02*
X1195Y571D01*
X0Y570D02*
X7Y570D01*
X185Y570D02*
X203Y570D01*
X253Y570D02*
X262Y570D01*
X489Y570D02*
X498Y570D01*
X530Y570D02*
X545Y570D01*
X654Y570D02*
X669Y570D01*
X1188Y570D02*
X1195Y570D01*
X0Y569D02*
X7Y569D01*
X182Y569D02*
X201Y569D01*
X253Y569D02*
X262Y569D01*
X489Y569D02*
X498Y569D01*
X531Y569D02*
X547Y569D01*
X652Y569D02*
X668Y569D01*
X1188Y569D02*
X1195Y569D01*
X0Y568D02*
X7Y568D01*
X180Y568D02*
X198Y568D01*
X253Y568D02*
X262Y568D01*
X489Y568D02*
X498Y568D01*
X533Y568D02*
X548Y568D01*
X651Y568D02*
X666Y568D01*
X1188Y568D02*
X1195Y568D01*
X0Y567D02*
X7Y567D01*
X177Y567D02*
X195Y567D01*
X253Y567D02*
X262Y567D01*
X489Y567D02*
X498Y567D01*
X534Y567D02*
X550Y567D01*
X649Y567D02*
X665Y567D01*
X1188Y567D02*
X1195Y567D01*
X0Y566D02*
X7Y566D01*
X174Y566D02*
X193Y566D01*
X253Y566D02*
X262Y566D01*
X489Y566D02*
X498Y566D01*
X535Y566D02*
X552Y566D01*
X647Y566D02*
X664Y566D01*
X1188Y566D02*
X1195Y566D01*
X0Y565D02*
X7Y565D01*
X172Y565D02*
X190Y565D01*
X253Y565D02*
X262Y565D01*
X489Y565D02*
X498Y565D01*
X536Y565D02*
X553Y565D01*
X646Y565D02*
X663Y565D01*
X1188Y565D02*
X1195Y565D01*
X0Y564D02*
X7Y564D01*
X170Y564D02*
X188Y564D01*
X253Y564D02*
X262Y564D01*
X489Y564D02*
X498Y564D01*
X538Y564D02*
X555Y564D01*
X644Y564D02*
X661Y564D01*
X1188Y564D02*
X1195Y564D01*
X0Y563D02*
X7Y563D01*
X169Y563D02*
X185Y563D01*
X253Y563D02*
X262Y563D01*
X489Y563D02*
X498Y563D01*
X539Y563D02*
X557Y563D01*
X642Y563D02*
X660Y563D01*
X1188Y563D02*
X1195Y563D01*
X0Y562D02*
X7Y562D01*
X169Y562D02*
X183Y562D01*
X253Y562D02*
X262Y562D01*
X489Y562D02*
X498Y562D01*
X541Y562D02*
X559Y562D01*
X640Y562D02*
X659Y562D01*
X1188Y562D02*
X1195Y562D01*
X0Y561D02*
X7Y561D01*
X169Y561D02*
X183Y561D01*
X253Y561D02*
X262Y561D01*
X489Y561D02*
X498Y561D01*
X542Y561D02*
X562Y561D01*
X637Y561D02*
X657Y561D01*
X1188Y561D02*
X1195Y561D01*
X0Y560D02*
X7Y560D01*
X169Y560D02*
X185Y560D01*
X253Y560D02*
X262Y560D01*
X489Y560D02*
X498Y560D01*
X544Y560D02*
X564Y560D01*
X635Y560D02*
X655Y560D01*
X1188Y560D02*
X1195Y560D01*
X0Y559D02*
X7Y559D01*
X170Y559D02*
X188Y559D01*
X253Y559D02*
X262Y559D01*
X489Y559D02*
X498Y559D01*
X545Y559D02*
X567Y559D01*
X632Y559D02*
X654Y559D01*
X1188Y559D02*
X1195Y559D01*
X0Y558D02*
X7Y558D01*
X172Y558D02*
X190Y558D01*
X253Y558D02*
X262Y558D01*
X489Y558D02*
X498Y558D01*
X547Y558D02*
X570Y558D01*
X629Y558D02*
X652Y558D01*
X1188Y558D02*
X1195Y558D01*
X0Y557D02*
X7Y557D01*
X174Y557D02*
X193Y557D01*
X253Y557D02*
X262Y557D01*
X489Y557D02*
X498Y557D01*
X549Y557D02*
X573Y557D01*
X626Y557D02*
X650Y557D01*
X1188Y557D02*
X1195Y557D01*
X0Y556D02*
X7Y556D01*
X177Y556D02*
X195Y556D01*
X253Y556D02*
X262Y556D01*
X489Y556D02*
X498Y556D01*
X550Y556D02*
X577Y556D01*
X622Y556D02*
X649Y556D01*
X1188Y556D02*
X1195Y556D01*
X0Y555D02*
X7Y555D01*
X180Y555D02*
X198Y555D01*
X253Y555D02*
X262Y555D01*
X489Y555D02*
X498Y555D01*
X552Y555D02*
X581Y555D01*
X618Y555D02*
X647Y555D01*
X1188Y555D02*
X1195Y555D01*
X0Y554D02*
X7Y554D01*
X182Y554D02*
X200Y554D01*
X253Y554D02*
X262Y554D01*
X489Y554D02*
X498Y554D01*
X554Y554D02*
X588Y554D01*
X611Y554D02*
X645Y554D01*
X1188Y554D02*
X1195Y554D01*
X0Y553D02*
X7Y553D01*
X185Y553D02*
X203Y553D01*
X253Y553D02*
X262Y553D01*
X489Y553D02*
X498Y553D01*
X557Y553D02*
X642Y553D01*
X691Y553D02*
X708Y553D01*
X1188Y553D02*
X1195Y553D01*
X0Y552D02*
X7Y552D01*
X187Y552D02*
X206Y552D01*
X253Y552D02*
X262Y552D01*
X489Y552D02*
X498Y552D01*
X559Y552D02*
X640Y552D01*
X683Y552D02*
X716Y552D01*
X1188Y552D02*
X1195Y552D01*
X0Y551D02*
X7Y551D01*
X190Y551D02*
X220Y551D01*
X253Y551D02*
X262Y551D01*
X489Y551D02*
X498Y551D01*
X561Y551D02*
X638Y551D01*
X678Y551D02*
X721Y551D01*
X1188Y551D02*
X1195Y551D01*
X0Y550D02*
X7Y550D01*
X192Y550D02*
X221Y550D01*
X253Y550D02*
X262Y550D01*
X489Y550D02*
X498Y550D01*
X564Y550D02*
X635Y550D01*
X674Y550D02*
X725Y550D01*
X1188Y550D02*
X1195Y550D01*
X0Y549D02*
X7Y549D01*
X195Y549D02*
X222Y549D01*
X253Y549D02*
X262Y549D01*
X489Y549D02*
X498Y549D01*
X566Y549D02*
X633Y549D01*
X670Y549D02*
X729Y549D01*
X1188Y549D02*
X1195Y549D01*
X0Y548D02*
X7Y548D01*
X197Y548D02*
X222Y548D01*
X253Y548D02*
X262Y548D01*
X489Y548D02*
X498Y548D01*
X570Y548D02*
X630Y548D01*
X667Y548D02*
X732Y548D01*
X1188Y548D02*
X1195Y548D01*
X0Y547D02*
X7Y547D01*
X200Y547D02*
X222Y547D01*
X253Y547D02*
X262Y547D01*
X489Y547D02*
X498Y547D01*
X573Y547D02*
X626Y547D01*
X664Y547D02*
X735Y547D01*
X1188Y547D02*
X1195Y547D01*
X0Y546D02*
X7Y546D01*
X203Y546D02*
X222Y546D01*
X253Y546D02*
X262Y546D01*
X489Y546D02*
X498Y546D01*
X577Y546D02*
X622Y546D01*
X662Y546D02*
X737Y546D01*
X1188Y546D02*
X1195Y546D01*
X0Y545D02*
X7Y545D01*
X205Y545D02*
X221Y545D01*
X253Y545D02*
X262Y545D01*
X489Y545D02*
X498Y545D01*
X582Y545D02*
X617Y545D01*
X659Y545D02*
X740Y545D01*
X1188Y545D02*
X1195Y545D01*
X0Y544D02*
X7Y544D01*
X253Y544D02*
X262Y544D01*
X489Y544D02*
X498Y544D01*
X589Y544D02*
X610Y544D01*
X657Y544D02*
X742Y544D01*
X1188Y544D02*
X1195Y544D01*
X0Y543D02*
X7Y543D01*
X253Y543D02*
X262Y543D01*
X489Y543D02*
X498Y543D01*
X655Y543D02*
X690Y543D01*
X709Y543D02*
X744Y543D01*
X1188Y543D02*
X1195Y543D01*
X0Y542D02*
X7Y542D01*
X253Y542D02*
X262Y542D01*
X489Y542D02*
X498Y542D01*
X653Y542D02*
X683Y542D01*
X716Y542D02*
X746Y542D01*
X1188Y542D02*
X1195Y542D01*
X0Y541D02*
X7Y541D01*
X253Y541D02*
X262Y541D01*
X489Y541D02*
X498Y541D01*
X651Y541D02*
X678Y541D01*
X721Y541D02*
X748Y541D01*
X1188Y541D02*
X1195Y541D01*
X0Y540D02*
X7Y540D01*
X253Y540D02*
X262Y540D01*
X489Y540D02*
X498Y540D01*
X649Y540D02*
X656Y540D01*
X742Y540D02*
X750Y540D01*
X1188Y540D02*
X1195Y540D01*
X0Y539D02*
X7Y539D01*
X253Y539D02*
X262Y539D01*
X489Y539D02*
X498Y539D01*
X647Y539D02*
X656Y539D01*
X742Y539D02*
X752Y539D01*
X1188Y539D02*
X1195Y539D01*
X0Y538D02*
X7Y538D01*
X253Y538D02*
X262Y538D01*
X489Y538D02*
X498Y538D01*
X646Y538D02*
X656Y538D01*
X742Y538D02*
X753Y538D01*
X1188Y538D02*
X1195Y538D01*
X0Y537D02*
X7Y537D01*
X253Y537D02*
X262Y537D01*
X489Y537D02*
X498Y537D01*
X644Y537D02*
X656Y537D01*
X742Y537D02*
X755Y537D01*
X1188Y537D02*
X1195Y537D01*
X0Y536D02*
X7Y536D01*
X253Y536D02*
X262Y536D01*
X489Y536D02*
X498Y536D01*
X642Y536D02*
X656Y536D01*
X742Y536D02*
X757Y536D01*
X1188Y536D02*
X1195Y536D01*
X0Y535D02*
X7Y535D01*
X253Y535D02*
X262Y535D01*
X489Y535D02*
X498Y535D01*
X641Y535D02*
X656Y535D01*
X742Y535D02*
X758Y535D01*
X1188Y535D02*
X1195Y535D01*
X0Y534D02*
X7Y534D01*
X253Y534D02*
X262Y534D01*
X489Y534D02*
X498Y534D01*
X639Y534D02*
X656Y534D01*
X742Y534D02*
X760Y534D01*
X1188Y534D02*
X1195Y534D01*
X0Y533D02*
X7Y533D01*
X253Y533D02*
X262Y533D01*
X489Y533D02*
X498Y533D01*
X638Y533D02*
X656Y533D01*
X743Y533D02*
X761Y533D01*
X1188Y533D02*
X1195Y533D01*
X0Y532D02*
X7Y532D01*
X253Y532D02*
X262Y532D01*
X489Y532D02*
X498Y532D01*
X637Y532D02*
X654Y532D01*
X745Y532D02*
X762Y532D01*
X1188Y532D02*
X1195Y532D01*
X0Y531D02*
X7Y531D01*
X253Y531D02*
X262Y531D01*
X489Y531D02*
X498Y531D01*
X635Y531D02*
X652Y531D01*
X747Y531D02*
X764Y531D01*
X1188Y531D02*
X1195Y531D01*
X0Y530D02*
X7Y530D01*
X253Y530D02*
X262Y530D01*
X489Y530D02*
X498Y530D01*
X634Y530D02*
X650Y530D01*
X749Y530D02*
X765Y530D01*
X1188Y530D02*
X1195Y530D01*
X0Y529D02*
X7Y529D01*
X253Y529D02*
X262Y529D01*
X489Y529D02*
X498Y529D01*
X633Y529D02*
X649Y529D01*
X750Y529D02*
X766Y529D01*
X1188Y529D02*
X1195Y529D01*
X0Y528D02*
X7Y528D01*
X253Y528D02*
X262Y528D01*
X489Y528D02*
X498Y528D01*
X632Y528D02*
X647Y528D01*
X752Y528D02*
X767Y528D01*
X1188Y528D02*
X1195Y528D01*
X0Y527D02*
X7Y527D01*
X253Y527D02*
X262Y527D01*
X489Y527D02*
X498Y527D01*
X631Y527D02*
X646Y527D01*
X753Y527D02*
X768Y527D01*
X1188Y527D02*
X1195Y527D01*
X0Y526D02*
X7Y526D01*
X253Y526D02*
X262Y526D01*
X489Y526D02*
X498Y526D01*
X629Y526D02*
X644Y526D01*
X755Y526D02*
X769Y526D01*
X1188Y526D02*
X1195Y526D01*
X0Y525D02*
X7Y525D01*
X253Y525D02*
X262Y525D01*
X489Y525D02*
X498Y525D01*
X628Y525D02*
X643Y525D01*
X756Y525D02*
X771Y525D01*
X1188Y525D02*
X1195Y525D01*
X0Y524D02*
X7Y524D01*
X253Y524D02*
X262Y524D01*
X489Y524D02*
X498Y524D01*
X627Y524D02*
X642Y524D01*
X757Y524D02*
X772Y524D01*
X1188Y524D02*
X1195Y524D01*
X0Y523D02*
X7Y523D01*
X253Y523D02*
X262Y523D01*
X489Y523D02*
X498Y523D01*
X626Y523D02*
X640Y523D01*
X759Y523D02*
X773Y523D01*
X1188Y523D02*
X1195Y523D01*
X0Y522D02*
X7Y522D01*
X253Y522D02*
X262Y522D01*
X489Y522D02*
X498Y522D01*
X625Y522D02*
X639Y522D01*
X760Y522D02*
X774Y522D01*
X1188Y522D02*
X1195Y522D01*
X0Y521D02*
X7Y521D01*
X253Y521D02*
X262Y521D01*
X489Y521D02*
X498Y521D01*
X624Y521D02*
X638Y521D01*
X761Y521D02*
X775Y521D01*
X1188Y521D02*
X1195Y521D01*
X0Y520D02*
X7Y520D01*
X253Y520D02*
X262Y520D01*
X489Y520D02*
X498Y520D01*
X623Y520D02*
X637Y520D01*
X762Y520D02*
X776Y520D01*
X1188Y520D02*
X1195Y520D01*
X0Y519D02*
X7Y519D01*
X253Y519D02*
X262Y519D01*
X489Y519D02*
X498Y519D01*
X622Y519D02*
X636Y519D01*
X763Y519D02*
X776Y519D01*
X1188Y519D02*
X1195Y519D01*
X0Y518D02*
X7Y518D01*
X253Y518D02*
X262Y518D01*
X489Y518D02*
X498Y518D01*
X622Y518D02*
X634Y518D01*
X642Y518D02*
X647Y518D01*
X752Y518D02*
X757Y518D01*
X764Y518D02*
X777Y518D01*
X1188Y518D02*
X1195Y518D01*
X0Y517D02*
X7Y517D01*
X253Y517D02*
X261Y517D01*
X489Y517D02*
X498Y517D01*
X621Y517D02*
X633Y517D01*
X641Y517D02*
X648Y517D01*
X751Y517D02*
X758Y517D01*
X766Y517D02*
X778Y517D01*
X1188Y517D02*
X1195Y517D01*
X0Y516D02*
X7Y516D01*
X253Y516D02*
X261Y516D01*
X489Y516D02*
X498Y516D01*
X620Y516D02*
X632Y516D01*
X640Y516D02*
X649Y516D01*
X750Y516D02*
X759Y516D01*
X767Y516D02*
X779Y516D01*
X1188Y516D02*
X1195Y516D01*
X0Y515D02*
X7Y515D01*
X253Y515D02*
X260Y515D01*
X489Y515D02*
X498Y515D01*
X619Y515D02*
X631Y515D01*
X640Y515D02*
X649Y515D01*
X750Y515D02*
X759Y515D01*
X768Y515D02*
X780Y515D01*
X1188Y515D02*
X1195Y515D01*
X0Y514D02*
X7Y514D01*
X253Y514D02*
X260Y514D01*
X489Y514D02*
X498Y514D01*
X618Y514D02*
X630Y514D01*
X640Y514D02*
X649Y514D01*
X750Y514D02*
X759Y514D01*
X769Y514D02*
X781Y514D01*
X1188Y514D02*
X1195Y514D01*
X0Y513D02*
X7Y513D01*
X253Y513D02*
X259Y513D01*
X489Y513D02*
X498Y513D01*
X617Y513D02*
X629Y513D01*
X639Y513D02*
X650Y513D01*
X749Y513D02*
X759Y513D01*
X769Y513D02*
X782Y513D01*
X1188Y513D02*
X1195Y513D01*
X0Y512D02*
X7Y512D01*
X253Y512D02*
X259Y512D01*
X489Y512D02*
X498Y512D01*
X617Y512D02*
X629Y512D01*
X639Y512D02*
X650Y512D01*
X749Y512D02*
X759Y512D01*
X770Y512D02*
X782Y512D01*
X812Y512D02*
X825Y512D01*
X841Y512D02*
X842Y512D01*
X1188Y512D02*
X1195Y512D01*
X0Y511D02*
X7Y511D01*
X253Y511D02*
X259Y511D01*
X489Y511D02*
X498Y511D01*
X616Y511D02*
X628Y511D01*
X639Y511D02*
X650Y511D01*
X749Y511D02*
X759Y511D01*
X771Y511D02*
X783Y511D01*
X811Y511D02*
X827Y511D01*
X840Y511D02*
X843Y511D01*
X1188Y511D02*
X1195Y511D01*
X0Y510D02*
X7Y510D01*
X253Y510D02*
X258Y510D01*
X489Y510D02*
X498Y510D01*
X615Y510D02*
X627Y510D01*
X639Y510D02*
X650Y510D01*
X749Y510D02*
X759Y510D01*
X772Y510D02*
X784Y510D01*
X811Y510D02*
X828Y510D01*
X840Y510D02*
X843Y510D01*
X1188Y510D02*
X1195Y510D01*
X0Y509D02*
X7Y509D01*
X253Y509D02*
X258Y509D01*
X489Y509D02*
X498Y509D01*
X614Y509D02*
X626Y509D01*
X639Y509D02*
X650Y509D01*
X749Y509D02*
X759Y509D01*
X773Y509D02*
X784Y509D01*
X811Y509D02*
X829Y509D01*
X840Y509D02*
X843Y509D01*
X1188Y509D02*
X1195Y509D01*
X0Y508D02*
X7Y508D01*
X253Y508D02*
X258Y508D01*
X489Y508D02*
X498Y508D01*
X614Y508D02*
X625Y508D01*
X639Y508D02*
X650Y508D01*
X749Y508D02*
X759Y508D01*
X774Y508D02*
X785Y508D01*
X811Y508D02*
X829Y508D01*
X840Y508D02*
X843Y508D01*
X1188Y508D02*
X1195Y508D01*
X0Y507D02*
X7Y507D01*
X253Y507D02*
X258Y507D01*
X489Y507D02*
X498Y507D01*
X613Y507D02*
X624Y507D01*
X639Y507D02*
X650Y507D01*
X749Y507D02*
X759Y507D01*
X775Y507D02*
X786Y507D01*
X811Y507D02*
X815Y507D01*
X826Y507D02*
X829Y507D01*
X840Y507D02*
X843Y507D01*
X1188Y507D02*
X1195Y507D01*
X0Y506D02*
X7Y506D01*
X253Y506D02*
X258Y506D01*
X489Y506D02*
X498Y506D01*
X612Y506D02*
X624Y506D01*
X639Y506D02*
X650Y506D01*
X749Y506D02*
X759Y506D01*
X775Y506D02*
X787Y506D01*
X811Y506D02*
X815Y506D01*
X826Y506D02*
X829Y506D01*
X840Y506D02*
X843Y506D01*
X1188Y506D02*
X1195Y506D01*
X0Y505D02*
X7Y505D01*
X253Y505D02*
X257Y505D01*
X489Y505D02*
X498Y505D01*
X612Y505D02*
X623Y505D01*
X639Y505D02*
X650Y505D01*
X749Y505D02*
X759Y505D01*
X776Y505D02*
X787Y505D01*
X811Y505D02*
X815Y505D01*
X826Y505D02*
X829Y505D01*
X840Y505D02*
X843Y505D01*
X1188Y505D02*
X1195Y505D01*
X0Y504D02*
X7Y504D01*
X253Y504D02*
X257Y504D01*
X489Y504D02*
X498Y504D01*
X611Y504D02*
X622Y504D01*
X639Y504D02*
X650Y504D01*
X749Y504D02*
X759Y504D01*
X777Y504D02*
X788Y504D01*
X811Y504D02*
X815Y504D01*
X826Y504D02*
X829Y504D01*
X840Y504D02*
X843Y504D01*
X1188Y504D02*
X1195Y504D01*
X0Y503D02*
X7Y503D01*
X253Y503D02*
X257Y503D01*
X489Y503D02*
X498Y503D01*
X611Y503D02*
X621Y503D01*
X639Y503D02*
X650Y503D01*
X749Y503D02*
X759Y503D01*
X778Y503D02*
X788Y503D01*
X811Y503D02*
X815Y503D01*
X826Y503D02*
X829Y503D01*
X840Y503D02*
X843Y503D01*
X1188Y503D02*
X1195Y503D01*
X0Y502D02*
X7Y502D01*
X253Y502D02*
X257Y502D01*
X489Y502D02*
X498Y502D01*
X610Y502D02*
X621Y502D01*
X639Y502D02*
X650Y502D01*
X749Y502D02*
X759Y502D01*
X778Y502D02*
X789Y502D01*
X811Y502D02*
X815Y502D01*
X826Y502D02*
X829Y502D01*
X840Y502D02*
X843Y502D01*
X1188Y502D02*
X1195Y502D01*
X0Y501D02*
X7Y501D01*
X253Y501D02*
X257Y501D01*
X489Y501D02*
X498Y501D01*
X609Y501D02*
X620Y501D01*
X639Y501D02*
X650Y501D01*
X749Y501D02*
X759Y501D01*
X779Y501D02*
X790Y501D01*
X811Y501D02*
X815Y501D01*
X826Y501D02*
X829Y501D01*
X840Y501D02*
X843Y501D01*
X1188Y501D02*
X1195Y501D01*
X0Y500D02*
X7Y500D01*
X253Y500D02*
X257Y500D01*
X489Y500D02*
X498Y500D01*
X609Y500D02*
X619Y500D01*
X639Y500D02*
X650Y500D01*
X749Y500D02*
X759Y500D01*
X780Y500D02*
X790Y500D01*
X811Y500D02*
X815Y500D01*
X826Y500D02*
X829Y500D01*
X840Y500D02*
X843Y500D01*
X1188Y500D02*
X1195Y500D01*
X0Y499D02*
X7Y499D01*
X253Y499D02*
X257Y499D01*
X489Y499D02*
X498Y499D01*
X608Y499D02*
X619Y499D01*
X639Y499D02*
X650Y499D01*
X749Y499D02*
X759Y499D01*
X780Y499D02*
X791Y499D01*
X811Y499D02*
X815Y499D01*
X826Y499D02*
X829Y499D01*
X840Y499D02*
X843Y499D01*
X1188Y499D02*
X1195Y499D01*
X0Y498D02*
X7Y498D01*
X253Y498D02*
X257Y498D01*
X489Y498D02*
X498Y498D01*
X608Y498D02*
X618Y498D01*
X639Y498D02*
X650Y498D01*
X749Y498D02*
X759Y498D01*
X781Y498D02*
X791Y498D01*
X811Y498D02*
X815Y498D01*
X826Y498D02*
X829Y498D01*
X840Y498D02*
X843Y498D01*
X1188Y498D02*
X1195Y498D01*
X0Y497D02*
X7Y497D01*
X253Y497D02*
X257Y497D01*
X489Y497D02*
X498Y497D01*
X607Y497D02*
X617Y497D01*
X639Y497D02*
X650Y497D01*
X749Y497D02*
X759Y497D01*
X782Y497D02*
X792Y497D01*
X811Y497D02*
X815Y497D01*
X826Y497D02*
X829Y497D01*
X840Y497D02*
X843Y497D01*
X1188Y497D02*
X1195Y497D01*
X0Y496D02*
X7Y496D01*
X253Y496D02*
X257Y496D01*
X489Y496D02*
X498Y496D01*
X607Y496D02*
X617Y496D01*
X639Y496D02*
X650Y496D01*
X749Y496D02*
X759Y496D01*
X782Y496D02*
X792Y496D01*
X811Y496D02*
X815Y496D01*
X826Y496D02*
X829Y496D01*
X840Y496D02*
X843Y496D01*
X1188Y496D02*
X1195Y496D01*
X0Y495D02*
X7Y495D01*
X253Y495D02*
X257Y495D01*
X489Y495D02*
X498Y495D01*
X606Y495D02*
X616Y495D01*
X639Y495D02*
X650Y495D01*
X749Y495D02*
X759Y495D01*
X783Y495D02*
X793Y495D01*
X811Y495D02*
X815Y495D01*
X826Y495D02*
X843Y495D01*
X1188Y495D02*
X1195Y495D01*
X0Y494D02*
X7Y494D01*
X253Y494D02*
X257Y494D01*
X489Y494D02*
X498Y494D01*
X606Y494D02*
X616Y494D01*
X639Y494D02*
X650Y494D01*
X749Y494D02*
X759Y494D01*
X783Y494D02*
X793Y494D01*
X811Y494D02*
X815Y494D01*
X826Y494D02*
X843Y494D01*
X1188Y494D02*
X1195Y494D01*
X0Y493D02*
X7Y493D01*
X253Y493D02*
X257Y493D01*
X489Y493D02*
X498Y493D01*
X605Y493D02*
X615Y493D01*
X639Y493D02*
X650Y493D01*
X749Y493D02*
X759Y493D01*
X784Y493D02*
X794Y493D01*
X812Y493D02*
X815Y493D01*
X827Y493D02*
X842Y493D01*
X1188Y493D02*
X1195Y493D01*
X0Y492D02*
X7Y492D01*
X253Y492D02*
X257Y492D01*
X489Y492D02*
X498Y492D01*
X605Y492D02*
X615Y492D01*
X639Y492D02*
X650Y492D01*
X749Y492D02*
X759Y492D01*
X784Y492D02*
X794Y492D01*
X812Y492D02*
X814Y492D01*
X828Y492D02*
X841Y492D01*
X1188Y492D02*
X1195Y492D01*
X0Y491D02*
X7Y491D01*
X253Y491D02*
X258Y491D01*
X489Y491D02*
X498Y491D01*
X604Y491D02*
X614Y491D01*
X639Y491D02*
X650Y491D01*
X749Y491D02*
X759Y491D01*
X785Y491D02*
X795Y491D01*
X1188Y491D02*
X1195Y491D01*
X0Y490D02*
X7Y490D01*
X253Y490D02*
X258Y490D01*
X489Y490D02*
X498Y490D01*
X604Y490D02*
X614Y490D01*
X639Y490D02*
X650Y490D01*
X749Y490D02*
X759Y490D01*
X785Y490D02*
X795Y490D01*
X1188Y490D02*
X1195Y490D01*
X0Y489D02*
X7Y489D01*
X253Y489D02*
X258Y489D01*
X489Y489D02*
X498Y489D01*
X603Y489D02*
X613Y489D01*
X639Y489D02*
X650Y489D01*
X749Y489D02*
X759Y489D01*
X786Y489D02*
X796Y489D01*
X1188Y489D02*
X1195Y489D01*
X0Y488D02*
X7Y488D01*
X253Y488D02*
X258Y488D01*
X489Y488D02*
X498Y488D01*
X603Y488D02*
X613Y488D01*
X639Y488D02*
X650Y488D01*
X749Y488D02*
X759Y488D01*
X786Y488D02*
X796Y488D01*
X1188Y488D02*
X1195Y488D01*
X0Y487D02*
X7Y487D01*
X253Y487D02*
X258Y487D01*
X489Y487D02*
X498Y487D01*
X602Y487D02*
X612Y487D01*
X639Y487D02*
X650Y487D01*
X749Y487D02*
X759Y487D01*
X787Y487D02*
X796Y487D01*
X1188Y487D02*
X1195Y487D01*
X0Y486D02*
X7Y486D01*
X253Y486D02*
X259Y486D01*
X489Y486D02*
X498Y486D01*
X602Y486D02*
X612Y486D01*
X639Y486D02*
X650Y486D01*
X749Y486D02*
X759Y486D01*
X787Y486D02*
X797Y486D01*
X1188Y486D02*
X1195Y486D01*
X0Y485D02*
X7Y485D01*
X253Y485D02*
X259Y485D01*
X489Y485D02*
X498Y485D01*
X602Y485D02*
X611Y485D01*
X639Y485D02*
X650Y485D01*
X749Y485D02*
X759Y485D01*
X788Y485D02*
X797Y485D01*
X1188Y485D02*
X1195Y485D01*
X0Y484D02*
X7Y484D01*
X253Y484D02*
X259Y484D01*
X489Y484D02*
X498Y484D01*
X601Y484D02*
X611Y484D01*
X639Y484D02*
X650Y484D01*
X749Y484D02*
X759Y484D01*
X788Y484D02*
X798Y484D01*
X1188Y484D02*
X1195Y484D01*
X0Y483D02*
X7Y483D01*
X253Y483D02*
X260Y483D01*
X489Y483D02*
X498Y483D01*
X601Y483D02*
X611Y483D01*
X640Y483D02*
X649Y483D01*
X750Y483D02*
X759Y483D01*
X788Y483D02*
X798Y483D01*
X1188Y483D02*
X1195Y483D01*
X0Y482D02*
X7Y482D01*
X253Y482D02*
X260Y482D01*
X489Y482D02*
X498Y482D01*
X601Y482D02*
X610Y482D01*
X640Y482D02*
X649Y482D01*
X750Y482D02*
X759Y482D01*
X789Y482D02*
X798Y482D01*
X1188Y482D02*
X1195Y482D01*
X0Y481D02*
X7Y481D01*
X253Y481D02*
X261Y481D01*
X489Y481D02*
X498Y481D01*
X600Y481D02*
X610Y481D01*
X640Y481D02*
X649Y481D01*
X750Y481D02*
X759Y481D01*
X789Y481D02*
X799Y481D01*
X1188Y481D02*
X1195Y481D01*
X0Y480D02*
X7Y480D01*
X253Y480D02*
X261Y480D01*
X489Y480D02*
X498Y480D01*
X600Y480D02*
X609Y480D01*
X641Y480D02*
X648Y480D01*
X751Y480D02*
X758Y480D01*
X789Y480D02*
X799Y480D01*
X1188Y480D02*
X1195Y480D01*
X0Y479D02*
X7Y479D01*
X253Y479D02*
X262Y479D01*
X489Y479D02*
X498Y479D01*
X600Y479D02*
X609Y479D01*
X642Y479D02*
X647Y479D01*
X752Y479D02*
X757Y479D01*
X790Y479D02*
X799Y479D01*
X1188Y479D02*
X1195Y479D01*
X0Y478D02*
X7Y478D01*
X253Y478D02*
X262Y478D01*
X489Y478D02*
X498Y478D01*
X599Y478D02*
X609Y478D01*
X790Y478D02*
X800Y478D01*
X1188Y478D02*
X1195Y478D01*
X0Y477D02*
X7Y477D01*
X253Y477D02*
X262Y477D01*
X489Y477D02*
X498Y477D01*
X599Y477D02*
X608Y477D01*
X791Y477D02*
X800Y477D01*
X1188Y477D02*
X1195Y477D01*
X0Y476D02*
X7Y476D01*
X253Y476D02*
X262Y476D01*
X489Y476D02*
X498Y476D01*
X599Y476D02*
X608Y476D01*
X791Y476D02*
X800Y476D01*
X1188Y476D02*
X1195Y476D01*
X0Y475D02*
X7Y475D01*
X253Y475D02*
X262Y475D01*
X489Y475D02*
X498Y475D01*
X599Y475D02*
X608Y475D01*
X791Y475D02*
X800Y475D01*
X817Y475D02*
X823Y475D01*
X1188Y475D02*
X1195Y475D01*
X0Y474D02*
X7Y474D01*
X253Y474D02*
X262Y474D01*
X489Y474D02*
X498Y474D01*
X598Y474D02*
X607Y474D01*
X791Y474D02*
X801Y474D01*
X817Y474D02*
X823Y474D01*
X1188Y474D02*
X1195Y474D01*
X0Y473D02*
X7Y473D01*
X253Y473D02*
X262Y473D01*
X489Y473D02*
X498Y473D01*
X598Y473D02*
X607Y473D01*
X792Y473D02*
X801Y473D01*
X817Y473D02*
X824Y473D01*
X1188Y473D02*
X1195Y473D01*
X0Y472D02*
X7Y472D01*
X253Y472D02*
X262Y472D01*
X489Y472D02*
X498Y472D01*
X598Y472D02*
X607Y472D01*
X792Y472D02*
X801Y472D01*
X817Y472D02*
X824Y472D01*
X1188Y472D02*
X1195Y472D01*
X0Y471D02*
X7Y471D01*
X253Y471D02*
X262Y471D01*
X489Y471D02*
X498Y471D01*
X598Y471D02*
X607Y471D01*
X792Y471D02*
X801Y471D01*
X817Y471D02*
X824Y471D01*
X1188Y471D02*
X1195Y471D01*
X0Y470D02*
X7Y470D01*
X253Y470D02*
X262Y470D01*
X489Y470D02*
X498Y470D01*
X597Y470D02*
X606Y470D01*
X792Y470D02*
X802Y470D01*
X817Y470D02*
X824Y470D01*
X1188Y470D02*
X1195Y470D01*
X0Y469D02*
X7Y469D01*
X253Y469D02*
X262Y469D01*
X489Y469D02*
X498Y469D01*
X597Y469D02*
X606Y469D01*
X793Y469D02*
X802Y469D01*
X817Y469D02*
X823Y469D01*
X1188Y469D02*
X1195Y469D01*
X0Y468D02*
X7Y468D01*
X253Y468D02*
X262Y468D01*
X489Y468D02*
X498Y468D01*
X597Y468D02*
X606Y468D01*
X793Y468D02*
X802Y468D01*
X818Y468D02*
X823Y468D01*
X1188Y468D02*
X1195Y468D01*
X0Y467D02*
X7Y467D01*
X253Y467D02*
X262Y467D01*
X489Y467D02*
X498Y467D01*
X597Y467D02*
X606Y467D01*
X793Y467D02*
X802Y467D01*
X1188Y467D02*
X1195Y467D01*
X0Y466D02*
X7Y466D01*
X253Y466D02*
X262Y466D01*
X489Y466D02*
X498Y466D01*
X597Y466D02*
X606Y466D01*
X793Y466D02*
X802Y466D01*
X1188Y466D02*
X1195Y466D01*
X0Y465D02*
X7Y465D01*
X253Y465D02*
X262Y465D01*
X489Y465D02*
X498Y465D01*
X596Y465D02*
X605Y465D01*
X793Y465D02*
X803Y465D01*
X1188Y465D02*
X1195Y465D01*
X0Y464D02*
X7Y464D01*
X253Y464D02*
X262Y464D01*
X489Y464D02*
X498Y464D01*
X596Y464D02*
X605Y464D01*
X794Y464D02*
X803Y464D01*
X1188Y464D02*
X1195Y464D01*
X0Y463D02*
X7Y463D01*
X253Y463D02*
X262Y463D01*
X489Y463D02*
X498Y463D01*
X596Y463D02*
X605Y463D01*
X794Y463D02*
X803Y463D01*
X1188Y463D02*
X1195Y463D01*
X0Y462D02*
X7Y462D01*
X253Y462D02*
X262Y462D01*
X489Y462D02*
X498Y462D01*
X596Y462D02*
X605Y462D01*
X794Y462D02*
X803Y462D01*
X1188Y462D02*
X1195Y462D01*
X0Y461D02*
X7Y461D01*
X253Y461D02*
X262Y461D01*
X489Y461D02*
X498Y461D01*
X596Y461D02*
X605Y461D01*
X794Y461D02*
X803Y461D01*
X1188Y461D02*
X1195Y461D01*
X0Y460D02*
X7Y460D01*
X253Y460D02*
X262Y460D01*
X489Y460D02*
X498Y460D01*
X596Y460D02*
X605Y460D01*
X794Y460D02*
X803Y460D01*
X1188Y460D02*
X1195Y460D01*
X0Y459D02*
X7Y459D01*
X253Y459D02*
X262Y459D01*
X489Y459D02*
X498Y459D01*
X596Y459D02*
X605Y459D01*
X794Y459D02*
X803Y459D01*
X1188Y459D02*
X1195Y459D01*
X0Y458D02*
X7Y458D01*
X253Y458D02*
X262Y458D01*
X489Y458D02*
X498Y458D01*
X595Y458D02*
X604Y458D01*
X794Y458D02*
X803Y458D01*
X1188Y458D02*
X1195Y458D01*
X0Y457D02*
X7Y457D01*
X253Y457D02*
X262Y457D01*
X489Y457D02*
X498Y457D01*
X595Y457D02*
X604Y457D01*
X794Y457D02*
X803Y457D01*
X1188Y457D02*
X1195Y457D01*
X0Y456D02*
X7Y456D01*
X253Y456D02*
X262Y456D01*
X489Y456D02*
X498Y456D01*
X595Y456D02*
X604Y456D01*
X795Y456D02*
X804Y456D01*
X1188Y456D02*
X1195Y456D01*
X0Y455D02*
X7Y455D01*
X253Y455D02*
X262Y455D01*
X489Y455D02*
X498Y455D01*
X595Y455D02*
X604Y455D01*
X795Y455D02*
X804Y455D01*
X1188Y455D02*
X1195Y455D01*
X0Y454D02*
X7Y454D01*
X253Y454D02*
X262Y454D01*
X489Y454D02*
X498Y454D01*
X595Y454D02*
X604Y454D01*
X795Y454D02*
X804Y454D01*
X1188Y454D02*
X1195Y454D01*
X0Y453D02*
X7Y453D01*
X253Y453D02*
X262Y453D01*
X489Y453D02*
X498Y453D01*
X595Y453D02*
X604Y453D01*
X795Y453D02*
X804Y453D01*
X1188Y453D02*
X1195Y453D01*
X0Y452D02*
X7Y452D01*
X253Y452D02*
X262Y452D01*
X489Y452D02*
X498Y452D01*
X595Y452D02*
X604Y452D01*
X795Y452D02*
X804Y452D01*
X1188Y452D02*
X1195Y452D01*
X0Y451D02*
X7Y451D01*
X253Y451D02*
X262Y451D01*
X489Y451D02*
X498Y451D01*
X595Y451D02*
X604Y451D01*
X795Y451D02*
X804Y451D01*
X811Y451D02*
X827Y451D01*
X840Y451D02*
X843Y451D01*
X1188Y451D02*
X1195Y451D01*
X0Y450D02*
X7Y450D01*
X253Y450D02*
X262Y450D01*
X489Y450D02*
X498Y450D01*
X595Y450D02*
X604Y450D01*
X795Y450D02*
X804Y450D01*
X811Y450D02*
X828Y450D01*
X840Y450D02*
X843Y450D01*
X1188Y450D02*
X1195Y450D01*
X0Y449D02*
X7Y449D01*
X253Y449D02*
X262Y449D01*
X489Y449D02*
X498Y449D01*
X595Y449D02*
X604Y449D01*
X795Y449D02*
X804Y449D01*
X811Y449D02*
X829Y449D01*
X840Y449D02*
X843Y449D01*
X1188Y449D02*
X1195Y449D01*
X0Y448D02*
X7Y448D01*
X253Y448D02*
X262Y448D01*
X489Y448D02*
X498Y448D01*
X595Y448D02*
X604Y448D01*
X795Y448D02*
X804Y448D01*
X811Y448D02*
X829Y448D01*
X840Y448D02*
X843Y448D01*
X1188Y448D02*
X1195Y448D01*
X0Y447D02*
X7Y447D01*
X253Y447D02*
X262Y447D01*
X489Y447D02*
X498Y447D01*
X595Y447D02*
X604Y447D01*
X795Y447D02*
X804Y447D01*
X811Y447D02*
X815Y447D01*
X826Y447D02*
X829Y447D01*
X840Y447D02*
X843Y447D01*
X1188Y447D02*
X1195Y447D01*
X0Y446D02*
X7Y446D01*
X253Y446D02*
X262Y446D01*
X489Y446D02*
X498Y446D01*
X595Y446D02*
X604Y446D01*
X795Y446D02*
X804Y446D01*
X811Y446D02*
X815Y446D01*
X826Y446D02*
X829Y446D01*
X840Y446D02*
X843Y446D01*
X1188Y446D02*
X1195Y446D01*
X0Y445D02*
X7Y445D01*
X253Y445D02*
X262Y445D01*
X489Y445D02*
X498Y445D01*
X595Y445D02*
X604Y445D01*
X795Y445D02*
X804Y445D01*
X811Y445D02*
X815Y445D01*
X826Y445D02*
X829Y445D01*
X840Y445D02*
X843Y445D01*
X1188Y445D02*
X1195Y445D01*
X0Y444D02*
X7Y444D01*
X253Y444D02*
X262Y444D01*
X489Y444D02*
X498Y444D01*
X595Y444D02*
X604Y444D01*
X795Y444D02*
X804Y444D01*
X811Y444D02*
X815Y444D01*
X826Y444D02*
X829Y444D01*
X840Y444D02*
X843Y444D01*
X1188Y444D02*
X1195Y444D01*
X0Y443D02*
X7Y443D01*
X253Y443D02*
X262Y443D01*
X489Y443D02*
X498Y443D01*
X595Y443D02*
X604Y443D01*
X795Y443D02*
X804Y443D01*
X811Y443D02*
X815Y443D01*
X826Y443D02*
X829Y443D01*
X840Y443D02*
X843Y443D01*
X1188Y443D02*
X1195Y443D01*
X0Y442D02*
X7Y442D01*
X253Y442D02*
X262Y442D01*
X489Y442D02*
X498Y442D01*
X595Y442D02*
X604Y442D01*
X795Y442D02*
X804Y442D01*
X811Y442D02*
X815Y442D01*
X826Y442D02*
X829Y442D01*
X840Y442D02*
X843Y442D01*
X1188Y442D02*
X1195Y442D01*
X0Y441D02*
X7Y441D01*
X253Y441D02*
X262Y441D01*
X489Y441D02*
X498Y441D01*
X595Y441D02*
X604Y441D01*
X795Y441D02*
X804Y441D01*
X811Y441D02*
X815Y441D01*
X826Y441D02*
X829Y441D01*
X840Y441D02*
X843Y441D01*
X1188Y441D02*
X1195Y441D01*
X0Y440D02*
X7Y440D01*
X253Y440D02*
X262Y440D01*
X489Y440D02*
X498Y440D01*
X595Y440D02*
X604Y440D01*
X795Y440D02*
X804Y440D01*
X811Y440D02*
X815Y440D01*
X826Y440D02*
X829Y440D01*
X840Y440D02*
X843Y440D01*
X1188Y440D02*
X1195Y440D01*
X0Y439D02*
X7Y439D01*
X253Y439D02*
X262Y439D01*
X489Y439D02*
X498Y439D01*
X595Y439D02*
X604Y439D01*
X794Y439D02*
X803Y439D01*
X811Y439D02*
X815Y439D01*
X826Y439D02*
X829Y439D01*
X840Y439D02*
X843Y439D01*
X1188Y439D02*
X1195Y439D01*
X0Y438D02*
X7Y438D01*
X253Y438D02*
X262Y438D01*
X489Y438D02*
X498Y438D01*
X596Y438D02*
X605Y438D01*
X794Y438D02*
X803Y438D01*
X811Y438D02*
X815Y438D01*
X826Y438D02*
X829Y438D01*
X840Y438D02*
X843Y438D01*
X1188Y438D02*
X1195Y438D01*
X0Y437D02*
X7Y437D01*
X253Y437D02*
X262Y437D01*
X489Y437D02*
X498Y437D01*
X596Y437D02*
X605Y437D01*
X794Y437D02*
X803Y437D01*
X811Y437D02*
X815Y437D01*
X826Y437D02*
X829Y437D01*
X840Y437D02*
X843Y437D01*
X1188Y437D02*
X1195Y437D01*
X0Y436D02*
X7Y436D01*
X253Y436D02*
X262Y436D01*
X489Y436D02*
X498Y436D01*
X596Y436D02*
X605Y436D01*
X794Y436D02*
X803Y436D01*
X811Y436D02*
X815Y436D01*
X826Y436D02*
X829Y436D01*
X840Y436D02*
X843Y436D01*
X1188Y436D02*
X1195Y436D01*
X0Y435D02*
X7Y435D01*
X253Y435D02*
X262Y435D01*
X489Y435D02*
X498Y435D01*
X596Y435D02*
X605Y435D01*
X794Y435D02*
X803Y435D01*
X811Y435D02*
X815Y435D01*
X826Y435D02*
X843Y435D01*
X1188Y435D02*
X1195Y435D01*
X0Y434D02*
X7Y434D01*
X253Y434D02*
X262Y434D01*
X489Y434D02*
X498Y434D01*
X596Y434D02*
X605Y434D01*
X794Y434D02*
X803Y434D01*
X811Y434D02*
X815Y434D01*
X826Y434D02*
X843Y434D01*
X1188Y434D02*
X1195Y434D01*
X0Y433D02*
X7Y433D01*
X253Y433D02*
X262Y433D01*
X489Y433D02*
X498Y433D01*
X596Y433D02*
X605Y433D01*
X794Y433D02*
X803Y433D01*
X812Y433D02*
X815Y433D01*
X827Y433D02*
X842Y433D01*
X1188Y433D02*
X1195Y433D01*
X0Y432D02*
X7Y432D01*
X253Y432D02*
X262Y432D01*
X489Y432D02*
X498Y432D01*
X596Y432D02*
X605Y432D01*
X793Y432D02*
X803Y432D01*
X812Y432D02*
X814Y432D01*
X828Y432D02*
X841Y432D01*
X1188Y432D02*
X1195Y432D01*
X0Y431D02*
X7Y431D01*
X253Y431D02*
X262Y431D01*
X489Y431D02*
X498Y431D01*
X597Y431D02*
X606Y431D01*
X793Y431D02*
X802Y431D01*
X1188Y431D02*
X1195Y431D01*
X0Y430D02*
X7Y430D01*
X253Y430D02*
X262Y430D01*
X489Y430D02*
X498Y430D01*
X597Y430D02*
X606Y430D01*
X793Y430D02*
X802Y430D01*
X1188Y430D02*
X1195Y430D01*
X0Y429D02*
X7Y429D01*
X253Y429D02*
X262Y429D01*
X489Y429D02*
X498Y429D01*
X597Y429D02*
X606Y429D01*
X793Y429D02*
X802Y429D01*
X1188Y429D02*
X1195Y429D01*
X0Y428D02*
X7Y428D01*
X253Y428D02*
X262Y428D01*
X489Y428D02*
X498Y428D01*
X597Y428D02*
X606Y428D01*
X793Y428D02*
X802Y428D01*
X1188Y428D02*
X1195Y428D01*
X0Y427D02*
X7Y427D01*
X253Y427D02*
X262Y427D01*
X489Y427D02*
X498Y427D01*
X597Y427D02*
X606Y427D01*
X792Y427D02*
X802Y427D01*
X1188Y427D02*
X1195Y427D01*
X0Y426D02*
X7Y426D01*
X253Y426D02*
X262Y426D01*
X489Y426D02*
X498Y426D01*
X598Y426D02*
X607Y426D01*
X792Y426D02*
X801Y426D01*
X1188Y426D02*
X1195Y426D01*
X0Y425D02*
X7Y425D01*
X253Y425D02*
X262Y425D01*
X489Y425D02*
X498Y425D01*
X598Y425D02*
X607Y425D01*
X792Y425D02*
X801Y425D01*
X1188Y425D02*
X1195Y425D01*
X0Y424D02*
X7Y424D01*
X253Y424D02*
X262Y424D01*
X489Y424D02*
X498Y424D01*
X598Y424D02*
X607Y424D01*
X792Y424D02*
X801Y424D01*
X1188Y424D02*
X1195Y424D01*
X0Y423D02*
X7Y423D01*
X253Y423D02*
X262Y423D01*
X489Y423D02*
X498Y423D01*
X598Y423D02*
X607Y423D01*
X791Y423D02*
X801Y423D01*
X1188Y423D02*
X1195Y423D01*
X0Y422D02*
X7Y422D01*
X253Y422D02*
X262Y422D01*
X489Y422D02*
X498Y422D01*
X598Y422D02*
X608Y422D01*
X791Y422D02*
X800Y422D01*
X803Y422D02*
X833Y422D01*
X1188Y422D02*
X1195Y422D01*
X0Y421D02*
X7Y421D01*
X253Y421D02*
X262Y421D01*
X489Y421D02*
X498Y421D01*
X599Y421D02*
X608Y421D01*
X791Y421D02*
X800Y421D01*
X803Y421D02*
X833Y421D01*
X1188Y421D02*
X1195Y421D01*
X0Y420D02*
X7Y420D01*
X253Y420D02*
X262Y420D01*
X489Y420D02*
X498Y420D01*
X599Y420D02*
X608Y420D01*
X791Y420D02*
X800Y420D01*
X803Y420D02*
X833Y420D01*
X1188Y420D02*
X1195Y420D01*
X0Y419D02*
X7Y419D01*
X253Y419D02*
X262Y419D01*
X489Y419D02*
X498Y419D01*
X599Y419D02*
X609Y419D01*
X790Y419D02*
X800Y419D01*
X813Y419D02*
X833Y419D01*
X1188Y419D02*
X1195Y419D01*
X0Y418D02*
X7Y418D01*
X253Y418D02*
X261Y418D01*
X489Y418D02*
X498Y418D01*
X600Y418D02*
X609Y418D01*
X790Y418D02*
X799Y418D01*
X813Y418D02*
X816Y418D01*
X1188Y418D02*
X1195Y418D01*
X0Y417D02*
X7Y417D01*
X253Y417D02*
X261Y417D01*
X489Y417D02*
X498Y417D01*
X600Y417D02*
X609Y417D01*
X790Y417D02*
X799Y417D01*
X812Y417D02*
X814Y417D01*
X1188Y417D02*
X1195Y417D01*
X0Y416D02*
X7Y416D01*
X253Y416D02*
X260Y416D01*
X489Y416D02*
X498Y416D01*
X600Y416D02*
X610Y416D01*
X789Y416D02*
X799Y416D01*
X811Y416D02*
X814Y416D01*
X1188Y416D02*
X1195Y416D01*
X0Y415D02*
X7Y415D01*
X253Y415D02*
X260Y415D01*
X489Y415D02*
X498Y415D01*
X601Y415D02*
X610Y415D01*
X789Y415D02*
X798Y415D01*
X811Y415D02*
X813Y415D01*
X1188Y415D02*
X1195Y415D01*
X0Y414D02*
X7Y414D01*
X253Y414D02*
X260Y414D01*
X489Y414D02*
X498Y414D01*
X601Y414D02*
X610Y414D01*
X788Y414D02*
X798Y414D01*
X811Y414D02*
X813Y414D01*
X1188Y414D02*
X1195Y414D01*
X0Y413D02*
X7Y413D01*
X253Y413D02*
X259Y413D01*
X489Y413D02*
X498Y413D01*
X601Y413D02*
X611Y413D01*
X788Y413D02*
X798Y413D01*
X811Y413D02*
X813Y413D01*
X1188Y413D02*
X1195Y413D01*
X0Y412D02*
X7Y412D01*
X253Y412D02*
X259Y412D01*
X489Y412D02*
X498Y412D01*
X602Y412D02*
X611Y412D01*
X788Y412D02*
X797Y412D01*
X811Y412D02*
X814Y412D01*
X1188Y412D02*
X1195Y412D01*
X0Y411D02*
X7Y411D01*
X253Y411D02*
X259Y411D01*
X489Y411D02*
X498Y411D01*
X602Y411D02*
X612Y411D01*
X787Y411D02*
X797Y411D01*
X812Y411D02*
X814Y411D01*
X1188Y411D02*
X1195Y411D01*
X0Y410D02*
X7Y410D01*
X253Y410D02*
X258Y410D01*
X489Y410D02*
X498Y410D01*
X602Y410D02*
X612Y410D01*
X787Y410D02*
X796Y410D01*
X812Y410D02*
X815Y410D01*
X1188Y410D02*
X1195Y410D01*
X0Y409D02*
X7Y409D01*
X253Y409D02*
X258Y409D01*
X489Y409D02*
X498Y409D01*
X603Y409D02*
X613Y409D01*
X786Y409D02*
X796Y409D01*
X813Y409D02*
X819Y409D01*
X1188Y409D02*
X1195Y409D01*
X0Y408D02*
X7Y408D01*
X253Y408D02*
X258Y408D01*
X489Y408D02*
X498Y408D01*
X603Y408D02*
X613Y408D01*
X786Y408D02*
X796Y408D01*
X813Y408D02*
X833Y408D01*
X1188Y408D02*
X1195Y408D01*
X0Y407D02*
X7Y407D01*
X253Y407D02*
X258Y407D01*
X489Y407D02*
X498Y407D01*
X604Y407D02*
X614Y407D01*
X785Y407D02*
X795Y407D01*
X811Y407D02*
X833Y407D01*
X1188Y407D02*
X1195Y407D01*
X0Y406D02*
X7Y406D01*
X253Y406D02*
X257Y406D01*
X489Y406D02*
X498Y406D01*
X604Y406D02*
X614Y406D01*
X785Y406D02*
X795Y406D01*
X811Y406D02*
X833Y406D01*
X1188Y406D02*
X1195Y406D01*
X0Y405D02*
X7Y405D01*
X253Y405D02*
X257Y405D01*
X489Y405D02*
X498Y405D01*
X605Y405D02*
X615Y405D01*
X784Y405D02*
X794Y405D01*
X811Y405D02*
X815Y405D01*
X1188Y405D02*
X1195Y405D01*
X0Y404D02*
X7Y404D01*
X253Y404D02*
X257Y404D01*
X489Y404D02*
X498Y404D01*
X605Y404D02*
X615Y404D01*
X784Y404D02*
X794Y404D01*
X811Y404D02*
X813Y404D01*
X1188Y404D02*
X1195Y404D01*
X0Y403D02*
X7Y403D01*
X253Y403D02*
X257Y403D01*
X489Y403D02*
X498Y403D01*
X606Y403D02*
X616Y403D01*
X783Y403D02*
X793Y403D01*
X812Y403D02*
X814Y403D01*
X1188Y403D02*
X1195Y403D01*
X0Y402D02*
X7Y402D01*
X253Y402D02*
X257Y402D01*
X489Y402D02*
X498Y402D01*
X606Y402D02*
X616Y402D01*
X783Y402D02*
X793Y402D01*
X1188Y402D02*
X1195Y402D01*
X0Y401D02*
X7Y401D01*
X253Y401D02*
X257Y401D01*
X489Y401D02*
X498Y401D01*
X607Y401D02*
X617Y401D01*
X782Y401D02*
X792Y401D01*
X1188Y401D02*
X1195Y401D01*
X0Y400D02*
X7Y400D01*
X253Y400D02*
X257Y400D01*
X489Y400D02*
X498Y400D01*
X607Y400D02*
X617Y400D01*
X782Y400D02*
X792Y400D01*
X1188Y400D02*
X1195Y400D01*
X0Y399D02*
X7Y399D01*
X253Y399D02*
X257Y399D01*
X489Y399D02*
X498Y399D01*
X608Y399D02*
X618Y399D01*
X781Y399D02*
X791Y399D01*
X1188Y399D02*
X1195Y399D01*
X0Y398D02*
X7Y398D01*
X253Y398D02*
X257Y398D01*
X489Y398D02*
X498Y398D01*
X608Y398D02*
X619Y398D01*
X780Y398D02*
X791Y398D01*
X1188Y398D02*
X1195Y398D01*
X0Y397D02*
X7Y397D01*
X253Y397D02*
X257Y397D01*
X489Y397D02*
X498Y397D01*
X609Y397D02*
X619Y397D01*
X780Y397D02*
X790Y397D01*
X1188Y397D02*
X1195Y397D01*
X0Y396D02*
X7Y396D01*
X253Y396D02*
X257Y396D01*
X489Y396D02*
X498Y396D01*
X609Y396D02*
X620Y396D01*
X779Y396D02*
X790Y396D01*
X812Y396D02*
X843Y396D01*
X1188Y396D02*
X1195Y396D01*
X0Y395D02*
X7Y395D01*
X253Y395D02*
X257Y395D01*
X489Y395D02*
X498Y395D01*
X610Y395D02*
X620Y395D01*
X778Y395D02*
X789Y395D01*
X812Y395D02*
X843Y395D01*
X1188Y395D02*
X1195Y395D01*
X0Y394D02*
X7Y394D01*
X253Y394D02*
X257Y394D01*
X489Y394D02*
X498Y394D01*
X610Y394D02*
X621Y394D01*
X778Y394D02*
X788Y394D01*
X812Y394D02*
X843Y394D01*
X1188Y394D02*
X1195Y394D01*
X0Y393D02*
X7Y393D01*
X253Y393D02*
X257Y393D01*
X489Y393D02*
X498Y393D01*
X611Y393D02*
X622Y393D01*
X777Y393D02*
X788Y393D01*
X812Y393D02*
X843Y393D01*
X1188Y393D02*
X1195Y393D01*
X0Y392D02*
X7Y392D01*
X253Y392D02*
X257Y392D01*
X489Y392D02*
X498Y392D01*
X612Y392D02*
X623Y392D01*
X776Y392D02*
X787Y392D01*
X829Y392D02*
X832Y392D01*
X840Y392D02*
X843Y392D01*
X1188Y392D02*
X1195Y392D01*
X0Y391D02*
X7Y391D01*
X253Y391D02*
X258Y391D01*
X489Y391D02*
X498Y391D01*
X612Y391D02*
X623Y391D01*
X775Y391D02*
X787Y391D01*
X829Y391D02*
X832Y391D01*
X840Y391D02*
X843Y391D01*
X1188Y391D02*
X1195Y391D01*
X0Y390D02*
X7Y390D01*
X253Y390D02*
X258Y390D01*
X489Y390D02*
X498Y390D01*
X613Y390D02*
X624Y390D01*
X775Y390D02*
X786Y390D01*
X829Y390D02*
X832Y390D01*
X840Y390D02*
X843Y390D01*
X1188Y390D02*
X1195Y390D01*
X0Y389D02*
X7Y389D01*
X253Y389D02*
X258Y389D01*
X489Y389D02*
X498Y389D01*
X614Y389D02*
X625Y389D01*
X774Y389D02*
X785Y389D01*
X829Y389D02*
X832Y389D01*
X840Y389D02*
X843Y389D01*
X1188Y389D02*
X1195Y389D01*
X0Y388D02*
X7Y388D01*
X253Y388D02*
X258Y388D01*
X489Y388D02*
X498Y388D01*
X614Y388D02*
X626Y388D01*
X773Y388D02*
X785Y388D01*
X829Y388D02*
X832Y388D01*
X840Y388D02*
X843Y388D01*
X1188Y388D02*
X1195Y388D01*
X0Y387D02*
X7Y387D01*
X253Y387D02*
X259Y387D01*
X489Y387D02*
X498Y387D01*
X615Y387D02*
X627Y387D01*
X772Y387D02*
X784Y387D01*
X829Y387D02*
X832Y387D01*
X840Y387D02*
X843Y387D01*
X1188Y387D02*
X1195Y387D01*
X0Y386D02*
X7Y386D01*
X253Y386D02*
X259Y386D01*
X489Y386D02*
X498Y386D01*
X616Y386D02*
X628Y386D01*
X771Y386D02*
X783Y386D01*
X829Y386D02*
X832Y386D01*
X840Y386D02*
X843Y386D01*
X1188Y386D02*
X1195Y386D01*
X0Y385D02*
X7Y385D01*
X253Y385D02*
X259Y385D01*
X489Y385D02*
X498Y385D01*
X617Y385D02*
X628Y385D01*
X770Y385D02*
X782Y385D01*
X829Y385D02*
X832Y385D01*
X840Y385D02*
X843Y385D01*
X1188Y385D02*
X1195Y385D01*
X0Y384D02*
X7Y384D01*
X253Y384D02*
X259Y384D01*
X489Y384D02*
X498Y384D01*
X617Y384D02*
X629Y384D01*
X770Y384D02*
X782Y384D01*
X829Y384D02*
X832Y384D01*
X840Y384D02*
X843Y384D01*
X1188Y384D02*
X1195Y384D01*
X0Y383D02*
X7Y383D01*
X253Y383D02*
X260Y383D01*
X489Y383D02*
X498Y383D01*
X618Y383D02*
X630Y383D01*
X769Y383D02*
X781Y383D01*
X829Y383D02*
X832Y383D01*
X840Y383D02*
X843Y383D01*
X1188Y383D02*
X1195Y383D01*
X0Y382D02*
X7Y382D01*
X253Y382D02*
X260Y382D01*
X489Y382D02*
X498Y382D01*
X619Y382D02*
X631Y382D01*
X768Y382D02*
X780Y382D01*
X829Y382D02*
X832Y382D01*
X840Y382D02*
X843Y382D01*
X1188Y382D02*
X1195Y382D01*
X0Y381D02*
X7Y381D01*
X253Y381D02*
X261Y381D01*
X489Y381D02*
X498Y381D01*
X620Y381D02*
X632Y381D01*
X767Y381D02*
X779Y381D01*
X830Y381D02*
X832Y381D01*
X840Y381D02*
X843Y381D01*
X1188Y381D02*
X1195Y381D01*
X0Y380D02*
X7Y380D01*
X253Y380D02*
X261Y380D01*
X489Y380D02*
X498Y380D01*
X621Y380D02*
X633Y380D01*
X766Y380D02*
X778Y380D01*
X840Y380D02*
X843Y380D01*
X1188Y380D02*
X1195Y380D01*
X0Y379D02*
X7Y379D01*
X253Y379D02*
X262Y379D01*
X489Y379D02*
X498Y379D01*
X621Y379D02*
X634Y379D01*
X765Y379D02*
X777Y379D01*
X840Y379D02*
X843Y379D01*
X1188Y379D02*
X1195Y379D01*
X0Y378D02*
X7Y378D01*
X253Y378D02*
X262Y378D01*
X489Y378D02*
X498Y378D01*
X622Y378D02*
X635Y378D01*
X763Y378D02*
X777Y378D01*
X840Y378D02*
X843Y378D01*
X1188Y378D02*
X1195Y378D01*
X0Y377D02*
X7Y377D01*
X253Y377D02*
X262Y377D01*
X489Y377D02*
X498Y377D01*
X623Y377D02*
X637Y377D01*
X762Y377D02*
X776Y377D01*
X840Y377D02*
X843Y377D01*
X1188Y377D02*
X1195Y377D01*
X0Y376D02*
X7Y376D01*
X253Y376D02*
X262Y376D01*
X489Y376D02*
X498Y376D01*
X624Y376D02*
X638Y376D01*
X761Y376D02*
X775Y376D01*
X1188Y376D02*
X1195Y376D01*
X0Y375D02*
X7Y375D01*
X253Y375D02*
X262Y375D01*
X489Y375D02*
X498Y375D01*
X625Y375D02*
X639Y375D01*
X760Y375D02*
X774Y375D01*
X1188Y375D02*
X1195Y375D01*
X0Y374D02*
X7Y374D01*
X253Y374D02*
X262Y374D01*
X489Y374D02*
X498Y374D01*
X626Y374D02*
X640Y374D01*
X759Y374D02*
X773Y374D01*
X1188Y374D02*
X1195Y374D01*
X0Y373D02*
X7Y373D01*
X253Y373D02*
X262Y373D01*
X489Y373D02*
X498Y373D01*
X627Y373D02*
X641Y373D01*
X758Y373D02*
X772Y373D01*
X1188Y373D02*
X1195Y373D01*
X0Y372D02*
X7Y372D01*
X253Y372D02*
X262Y372D01*
X489Y372D02*
X498Y372D01*
X628Y372D02*
X643Y372D01*
X756Y372D02*
X771Y372D01*
X1188Y372D02*
X1195Y372D01*
X0Y371D02*
X7Y371D01*
X253Y371D02*
X262Y371D01*
X489Y371D02*
X498Y371D01*
X629Y371D02*
X644Y371D01*
X755Y371D02*
X770Y371D01*
X1188Y371D02*
X1195Y371D01*
X0Y370D02*
X7Y370D01*
X253Y370D02*
X262Y370D01*
X489Y370D02*
X498Y370D01*
X630Y370D02*
X645Y370D01*
X754Y370D02*
X769Y370D01*
X1188Y370D02*
X1195Y370D01*
X0Y369D02*
X7Y369D01*
X253Y369D02*
X262Y369D01*
X489Y369D02*
X498Y369D01*
X632Y369D02*
X647Y369D01*
X752Y369D02*
X767Y369D01*
X1188Y369D02*
X1195Y369D01*
X0Y368D02*
X7Y368D01*
X253Y368D02*
X262Y368D01*
X489Y368D02*
X498Y368D01*
X633Y368D02*
X649Y368D01*
X750Y368D02*
X766Y368D01*
X1188Y368D02*
X1195Y368D01*
X0Y367D02*
X7Y367D01*
X253Y367D02*
X262Y367D01*
X489Y367D02*
X498Y367D01*
X634Y367D02*
X650Y367D01*
X749Y367D02*
X765Y367D01*
X1188Y367D02*
X1195Y367D01*
X0Y366D02*
X7Y366D01*
X253Y366D02*
X262Y366D01*
X489Y366D02*
X498Y366D01*
X635Y366D02*
X652Y366D01*
X747Y366D02*
X764Y366D01*
X1188Y366D02*
X1195Y366D01*
X0Y365D02*
X7Y365D01*
X253Y365D02*
X262Y365D01*
X489Y365D02*
X498Y365D01*
X637Y365D02*
X653Y365D01*
X745Y365D02*
X762Y365D01*
X1188Y365D02*
X1195Y365D01*
X0Y364D02*
X7Y364D01*
X253Y364D02*
X262Y364D01*
X489Y364D02*
X498Y364D01*
X638Y364D02*
X655Y364D01*
X743Y364D02*
X761Y364D01*
X1188Y364D02*
X1195Y364D01*
X0Y363D02*
X7Y363D01*
X253Y363D02*
X262Y363D01*
X489Y363D02*
X498Y363D01*
X639Y363D02*
X658Y363D01*
X741Y363D02*
X760Y363D01*
X1188Y363D02*
X1195Y363D01*
X0Y362D02*
X7Y362D01*
X253Y362D02*
X262Y362D01*
X489Y362D02*
X498Y362D01*
X641Y362D02*
X660Y362D01*
X739Y362D02*
X758Y362D01*
X1188Y362D02*
X1195Y362D01*
X0Y361D02*
X7Y361D01*
X253Y361D02*
X262Y361D01*
X489Y361D02*
X498Y361D01*
X642Y361D02*
X662Y361D01*
X737Y361D02*
X757Y361D01*
X1188Y361D02*
X1195Y361D01*
X0Y360D02*
X7Y360D01*
X253Y360D02*
X262Y360D01*
X489Y360D02*
X498Y360D01*
X644Y360D02*
X664Y360D01*
X735Y360D02*
X755Y360D01*
X1188Y360D02*
X1195Y360D01*
X0Y359D02*
X7Y359D01*
X253Y359D02*
X262Y359D01*
X489Y359D02*
X498Y359D01*
X645Y359D02*
X667Y359D01*
X732Y359D02*
X754Y359D01*
X1188Y359D02*
X1195Y359D01*
X0Y358D02*
X7Y358D01*
X253Y358D02*
X262Y358D01*
X489Y358D02*
X498Y358D01*
X647Y358D02*
X670Y358D01*
X729Y358D02*
X752Y358D01*
X1188Y358D02*
X1195Y358D01*
X0Y357D02*
X7Y357D01*
X253Y357D02*
X262Y357D01*
X489Y357D02*
X498Y357D01*
X649Y357D02*
X673Y357D01*
X726Y357D02*
X750Y357D01*
X1188Y357D02*
X1195Y357D01*
X0Y356D02*
X7Y356D01*
X253Y356D02*
X262Y356D01*
X489Y356D02*
X498Y356D01*
X650Y356D02*
X677Y356D01*
X722Y356D02*
X748Y356D01*
X1188Y356D02*
X1195Y356D01*
X0Y355D02*
X7Y355D01*
X253Y355D02*
X262Y355D01*
X489Y355D02*
X498Y355D01*
X653Y355D02*
X682Y355D01*
X717Y355D02*
X746Y355D01*
X1188Y355D02*
X1195Y355D01*
X0Y354D02*
X7Y354D01*
X253Y354D02*
X262Y354D01*
X489Y354D02*
X498Y354D01*
X655Y354D02*
X689Y354D01*
X710Y354D02*
X744Y354D01*
X1188Y354D02*
X1195Y354D01*
X0Y353D02*
X7Y353D01*
X253Y353D02*
X262Y353D01*
X489Y353D02*
X498Y353D01*
X657Y353D02*
X742Y353D01*
X1188Y353D02*
X1195Y353D01*
X0Y352D02*
X7Y352D01*
X253Y352D02*
X262Y352D01*
X489Y352D02*
X498Y352D01*
X659Y352D02*
X740Y352D01*
X1188Y352D02*
X1195Y352D01*
X0Y351D02*
X7Y351D01*
X253Y351D02*
X262Y351D01*
X489Y351D02*
X498Y351D01*
X661Y351D02*
X738Y351D01*
X1188Y351D02*
X1195Y351D01*
X0Y350D02*
X7Y350D01*
X253Y350D02*
X262Y350D01*
X489Y350D02*
X498Y350D01*
X664Y350D02*
X735Y350D01*
X1188Y350D02*
X1195Y350D01*
X0Y349D02*
X7Y349D01*
X253Y349D02*
X262Y349D01*
X489Y349D02*
X498Y349D01*
X582Y349D02*
X584Y349D01*
X667Y349D02*
X732Y349D01*
X1188Y349D02*
X1195Y349D01*
X0Y348D02*
X7Y348D01*
X253Y348D02*
X262Y348D01*
X489Y348D02*
X498Y348D01*
X581Y348D02*
X585Y348D01*
X670Y348D02*
X729Y348D01*
X1188Y348D02*
X1195Y348D01*
X0Y347D02*
X7Y347D01*
X253Y347D02*
X262Y347D01*
X489Y347D02*
X498Y347D01*
X580Y347D02*
X585Y347D01*
X673Y347D02*
X726Y347D01*
X1188Y347D02*
X1195Y347D01*
X0Y346D02*
X7Y346D01*
X253Y346D02*
X262Y346D01*
X489Y346D02*
X498Y346D01*
X579Y346D02*
X585Y346D01*
X677Y346D02*
X722Y346D01*
X1188Y346D02*
X1195Y346D01*
X0Y345D02*
X7Y345D01*
X253Y345D02*
X262Y345D01*
X489Y345D02*
X498Y345D01*
X578Y345D02*
X584Y345D01*
X678Y345D02*
X716Y345D01*
X1188Y345D02*
X1195Y345D01*
X0Y344D02*
X7Y344D01*
X253Y344D02*
X262Y344D01*
X489Y344D02*
X498Y344D01*
X577Y344D02*
X583Y344D01*
X677Y344D02*
X683Y344D01*
X690Y344D02*
X709Y344D01*
X1188Y344D02*
X1195Y344D01*
X0Y343D02*
X7Y343D01*
X253Y343D02*
X262Y343D01*
X489Y343D02*
X498Y343D01*
X576Y343D02*
X582Y343D01*
X676Y343D02*
X682Y343D01*
X1188Y343D02*
X1195Y343D01*
X0Y342D02*
X7Y342D01*
X253Y342D02*
X262Y342D01*
X489Y342D02*
X498Y342D01*
X575Y342D02*
X581Y342D01*
X675Y342D02*
X681Y342D01*
X1188Y342D02*
X1195Y342D01*
X0Y341D02*
X7Y341D01*
X253Y341D02*
X262Y341D01*
X489Y341D02*
X498Y341D01*
X574Y341D02*
X580Y341D01*
X674Y341D02*
X680Y341D01*
X1188Y341D02*
X1195Y341D01*
X0Y340D02*
X7Y340D01*
X253Y340D02*
X262Y340D01*
X489Y340D02*
X498Y340D01*
X573Y340D02*
X579Y340D01*
X673Y340D02*
X679Y340D01*
X1188Y340D02*
X1195Y340D01*
X0Y339D02*
X7Y339D01*
X253Y339D02*
X262Y339D01*
X489Y339D02*
X498Y339D01*
X572Y339D02*
X578Y339D01*
X672Y339D02*
X678Y339D01*
X1188Y339D02*
X1195Y339D01*
X0Y338D02*
X7Y338D01*
X253Y338D02*
X262Y338D01*
X489Y338D02*
X498Y338D01*
X571Y338D02*
X577Y338D01*
X671Y338D02*
X677Y338D01*
X1188Y338D02*
X1195Y338D01*
X0Y337D02*
X7Y337D01*
X253Y337D02*
X262Y337D01*
X489Y337D02*
X498Y337D01*
X570Y337D02*
X576Y337D01*
X670Y337D02*
X676Y337D01*
X1188Y337D02*
X1195Y337D01*
X0Y336D02*
X7Y336D01*
X253Y336D02*
X262Y336D01*
X489Y336D02*
X498Y336D01*
X569Y336D02*
X575Y336D01*
X669Y336D02*
X675Y336D01*
X1188Y336D02*
X1195Y336D01*
X0Y335D02*
X7Y335D01*
X253Y335D02*
X262Y335D01*
X489Y335D02*
X498Y335D01*
X568Y335D02*
X574Y335D01*
X668Y335D02*
X674Y335D01*
X1188Y335D02*
X1195Y335D01*
X0Y334D02*
X7Y334D01*
X253Y334D02*
X262Y334D01*
X489Y334D02*
X498Y334D01*
X567Y334D02*
X573Y334D01*
X667Y334D02*
X673Y334D01*
X1188Y334D02*
X1195Y334D01*
X0Y333D02*
X7Y333D01*
X253Y333D02*
X262Y333D01*
X489Y333D02*
X498Y333D01*
X566Y333D02*
X572Y333D01*
X666Y333D02*
X672Y333D01*
X1188Y333D02*
X1195Y333D01*
X0Y332D02*
X7Y332D01*
X253Y332D02*
X262Y332D01*
X489Y332D02*
X498Y332D01*
X565Y332D02*
X571Y332D01*
X665Y332D02*
X671Y332D01*
X1188Y332D02*
X1195Y332D01*
X0Y331D02*
X7Y331D01*
X253Y331D02*
X262Y331D01*
X489Y331D02*
X498Y331D01*
X564Y331D02*
X570Y331D01*
X664Y331D02*
X669Y331D01*
X1188Y331D02*
X1195Y331D01*
X0Y330D02*
X7Y330D01*
X253Y330D02*
X262Y330D01*
X489Y330D02*
X498Y330D01*
X563Y330D02*
X568Y330D01*
X663Y330D02*
X668Y330D01*
X1188Y330D02*
X1195Y330D01*
X0Y329D02*
X7Y329D01*
X253Y329D02*
X262Y329D01*
X489Y329D02*
X498Y329D01*
X562Y329D02*
X567Y329D01*
X662Y329D02*
X667Y329D01*
X1188Y329D02*
X1195Y329D01*
X0Y328D02*
X7Y328D01*
X253Y328D02*
X262Y328D01*
X489Y328D02*
X498Y328D01*
X561Y328D02*
X567Y328D01*
X661Y328D02*
X666Y328D01*
X1188Y328D02*
X1195Y328D01*
X0Y327D02*
X7Y327D01*
X253Y327D02*
X262Y327D01*
X489Y327D02*
X498Y327D01*
X560Y327D02*
X566Y327D01*
X660Y327D02*
X666Y327D01*
X1188Y327D02*
X1195Y327D01*
X0Y326D02*
X7Y326D01*
X253Y326D02*
X262Y326D01*
X489Y326D02*
X498Y326D01*
X559Y326D02*
X565Y326D01*
X659Y326D02*
X665Y326D01*
X1188Y326D02*
X1195Y326D01*
X0Y325D02*
X7Y325D01*
X253Y325D02*
X498Y325D01*
X558Y325D02*
X564Y325D01*
X658Y325D02*
X664Y325D01*
X1188Y325D02*
X1195Y325D01*
X0Y324D02*
X7Y324D01*
X253Y324D02*
X498Y324D01*
X557Y324D02*
X563Y324D01*
X657Y324D02*
X663Y324D01*
X1188Y324D02*
X1195Y324D01*
X0Y323D02*
X7Y323D01*
X253Y323D02*
X498Y323D01*
X556Y323D02*
X562Y323D01*
X656Y323D02*
X662Y323D01*
X1188Y323D02*
X1195Y323D01*
X0Y322D02*
X7Y322D01*
X253Y322D02*
X498Y322D01*
X555Y322D02*
X561Y322D01*
X655Y322D02*
X661Y322D01*
X1188Y322D02*
X1195Y322D01*
X0Y321D02*
X7Y321D01*
X253Y321D02*
X498Y321D01*
X554Y321D02*
X560Y321D01*
X654Y321D02*
X660Y321D01*
X1188Y321D02*
X1195Y321D01*
X0Y320D02*
X7Y320D01*
X253Y320D02*
X498Y320D01*
X553Y320D02*
X559Y320D01*
X653Y320D02*
X659Y320D01*
X1188Y320D02*
X1195Y320D01*
X0Y319D02*
X7Y319D01*
X253Y319D02*
X498Y319D01*
X552Y319D02*
X558Y319D01*
X652Y319D02*
X658Y319D01*
X1188Y319D02*
X1195Y319D01*
X0Y318D02*
X7Y318D01*
X253Y318D02*
X498Y318D01*
X551Y318D02*
X557Y318D01*
X651Y318D02*
X657Y318D01*
X1188Y318D02*
X1195Y318D01*
X0Y317D02*
X7Y317D01*
X253Y317D02*
X498Y317D01*
X550Y317D02*
X556Y317D01*
X650Y317D02*
X656Y317D01*
X1188Y317D02*
X1195Y317D01*
X0Y316D02*
X7Y316D01*
X253Y316D02*
X498Y316D01*
X549Y316D02*
X555Y316D01*
X649Y316D02*
X655Y316D01*
X1188Y316D02*
X1195Y316D01*
X0Y315D02*
X7Y315D01*
X549Y315D02*
X554Y315D01*
X649Y315D02*
X654Y315D01*
X1188Y315D02*
X1195Y315D01*
X0Y314D02*
X7Y314D01*
X550Y314D02*
X553Y314D01*
X649Y314D02*
X653Y314D01*
X1188Y314D02*
X1195Y314D01*
X0Y313D02*
X7Y313D01*
X551Y313D02*
X552Y313D01*
X650Y313D02*
X652Y313D01*
X1188Y313D02*
X1195Y313D01*
X0Y312D02*
X7Y312D01*
X1188Y312D02*
X1195Y312D01*
X0Y311D02*
X7Y311D01*
X1188Y311D02*
X1195Y311D01*
X0Y310D02*
X7Y310D01*
X1188Y310D02*
X1195Y310D01*
X0Y309D02*
X7Y309D01*
X1188Y309D02*
X1195Y309D01*
X0Y308D02*
X7Y308D01*
X1188Y308D02*
X1195Y308D01*
X0Y307D02*
X7Y307D01*
X1188Y307D02*
X1195Y307D01*
X0Y306D02*
X7Y306D01*
X1188Y306D02*
X1195Y306D01*
X0Y305D02*
X7Y305D01*
X1188Y305D02*
X1195Y305D01*
X0Y304D02*
X7Y304D01*
X1188Y304D02*
X1195Y304D01*
X0Y303D02*
X7Y303D01*
X259Y303D02*
X286Y303D01*
X324Y303D02*
X336Y303D01*
X360Y303D02*
X376Y303D01*
X1188Y303D02*
X1195Y303D01*
X0Y302D02*
X7Y302D01*
X257Y302D02*
X288Y302D01*
X320Y302D02*
X339Y302D01*
X357Y302D02*
X376Y302D01*
X1188Y302D02*
X1195Y302D01*
X0Y301D02*
X7Y301D01*
X256Y301D02*
X289Y301D01*
X318Y301D02*
X339Y301D01*
X357Y301D02*
X376Y301D01*
X1188Y301D02*
X1195Y301D01*
X0Y300D02*
X7Y300D01*
X256Y300D02*
X289Y300D01*
X317Y300D02*
X340Y300D01*
X356Y300D02*
X376Y300D01*
X1188Y300D02*
X1195Y300D01*
X0Y299D02*
X7Y299D01*
X256Y299D02*
X289Y299D01*
X316Y299D02*
X340Y299D01*
X356Y299D02*
X376Y299D01*
X1188Y299D02*
X1195Y299D01*
X0Y298D02*
X7Y298D01*
X256Y298D02*
X289Y298D01*
X315Y298D02*
X339Y298D01*
X357Y298D02*
X376Y298D01*
X1188Y298D02*
X1195Y298D01*
X0Y297D02*
X7Y297D01*
X257Y297D02*
X288Y297D01*
X315Y297D02*
X339Y297D01*
X358Y297D02*
X376Y297D01*
X1188Y297D02*
X1195Y297D01*
X0Y296D02*
X7Y296D01*
X269Y296D02*
X276Y296D01*
X314Y296D02*
X323Y296D01*
X370Y296D02*
X376Y296D01*
X1188Y296D02*
X1195Y296D01*
X0Y295D02*
X7Y295D01*
X270Y295D02*
X276Y295D01*
X314Y295D02*
X321Y295D01*
X370Y295D02*
X376Y295D01*
X1188Y295D02*
X1195Y295D01*
X0Y294D02*
X7Y294D01*
X270Y294D02*
X276Y294D01*
X313Y294D02*
X320Y294D01*
X370Y294D02*
X376Y294D01*
X1188Y294D02*
X1195Y294D01*
X0Y293D02*
X7Y293D01*
X270Y293D02*
X276Y293D01*
X313Y293D02*
X320Y293D01*
X370Y293D02*
X376Y293D01*
X1188Y293D02*
X1195Y293D01*
X0Y292D02*
X7Y292D01*
X270Y292D02*
X276Y292D01*
X312Y292D02*
X319Y292D01*
X370Y292D02*
X376Y292D01*
X1188Y292D02*
X1195Y292D01*
X0Y291D02*
X7Y291D01*
X270Y291D02*
X276Y291D01*
X312Y291D02*
X319Y291D01*
X370Y291D02*
X376Y291D01*
X1188Y291D02*
X1195Y291D01*
X0Y290D02*
X7Y290D01*
X270Y290D02*
X276Y290D01*
X311Y290D02*
X318Y290D01*
X370Y290D02*
X376Y290D01*
X1188Y290D02*
X1195Y290D01*
X0Y289D02*
X7Y289D01*
X270Y289D02*
X276Y289D01*
X311Y289D02*
X318Y289D01*
X370Y289D02*
X376Y289D01*
X1188Y289D02*
X1195Y289D01*
X0Y288D02*
X7Y288D01*
X270Y288D02*
X276Y288D01*
X310Y288D02*
X317Y288D01*
X370Y288D02*
X376Y288D01*
X1188Y288D02*
X1195Y288D01*
X0Y287D02*
X7Y287D01*
X270Y287D02*
X276Y287D01*
X310Y287D02*
X317Y287D01*
X370Y287D02*
X376Y287D01*
X1188Y287D02*
X1195Y287D01*
X0Y286D02*
X7Y286D01*
X270Y286D02*
X276Y286D01*
X309Y286D02*
X316Y286D01*
X370Y286D02*
X376Y286D01*
X1188Y286D02*
X1195Y286D01*
X0Y285D02*
X7Y285D01*
X270Y285D02*
X276Y285D01*
X309Y285D02*
X316Y285D01*
X370Y285D02*
X376Y285D01*
X1188Y285D02*
X1195Y285D01*
X0Y284D02*
X7Y284D01*
X270Y284D02*
X276Y284D01*
X308Y284D02*
X315Y284D01*
X370Y284D02*
X376Y284D01*
X1188Y284D02*
X1195Y284D01*
X0Y283D02*
X7Y283D01*
X270Y283D02*
X276Y283D01*
X308Y283D02*
X315Y283D01*
X370Y283D02*
X376Y283D01*
X1188Y283D02*
X1195Y283D01*
X0Y282D02*
X7Y282D01*
X270Y282D02*
X276Y282D01*
X307Y282D02*
X314Y282D01*
X370Y282D02*
X376Y282D01*
X1188Y282D02*
X1195Y282D01*
X0Y281D02*
X7Y281D01*
X270Y281D02*
X276Y281D01*
X307Y281D02*
X314Y281D01*
X370Y281D02*
X376Y281D01*
X1188Y281D02*
X1195Y281D01*
X0Y280D02*
X7Y280D01*
X270Y280D02*
X276Y280D01*
X307Y280D02*
X313Y280D01*
X370Y280D02*
X376Y280D01*
X1188Y280D02*
X1195Y280D01*
X0Y279D02*
X7Y279D01*
X270Y279D02*
X276Y279D01*
X306Y279D02*
X313Y279D01*
X370Y279D02*
X376Y279D01*
X1188Y279D02*
X1195Y279D01*
X0Y278D02*
X7Y278D01*
X270Y278D02*
X276Y278D01*
X306Y278D02*
X312Y278D01*
X370Y278D02*
X376Y278D01*
X1188Y278D02*
X1195Y278D01*
X0Y277D02*
X7Y277D01*
X270Y277D02*
X276Y277D01*
X306Y277D02*
X312Y277D01*
X370Y277D02*
X376Y277D01*
X1188Y277D02*
X1195Y277D01*
X0Y276D02*
X7Y276D01*
X270Y276D02*
X276Y276D01*
X306Y276D02*
X312Y276D01*
X370Y276D02*
X376Y276D01*
X1188Y276D02*
X1195Y276D01*
X0Y275D02*
X7Y275D01*
X270Y275D02*
X276Y275D01*
X306Y275D02*
X312Y275D01*
X370Y275D02*
X376Y275D01*
X1188Y275D02*
X1195Y275D01*
X0Y274D02*
X7Y274D01*
X270Y274D02*
X276Y274D01*
X306Y274D02*
X312Y274D01*
X370Y274D02*
X376Y274D01*
X1188Y274D02*
X1195Y274D01*
X0Y273D02*
X7Y273D01*
X270Y273D02*
X276Y273D01*
X306Y273D02*
X313Y273D01*
X370Y273D02*
X376Y273D01*
X386Y273D02*
X388Y273D01*
X1188Y273D02*
X1195Y273D01*
X0Y272D02*
X7Y272D01*
X270Y272D02*
X276Y272D01*
X307Y272D02*
X313Y272D01*
X370Y272D02*
X376Y272D01*
X385Y272D02*
X389Y272D01*
X1188Y272D02*
X1195Y272D01*
X0Y271D02*
X7Y271D01*
X270Y271D02*
X276Y271D01*
X307Y271D02*
X314Y271D01*
X370Y271D02*
X376Y271D01*
X384Y271D02*
X390Y271D01*
X1188Y271D02*
X1195Y271D01*
X0Y270D02*
X7Y270D01*
X270Y270D02*
X276Y270D01*
X307Y270D02*
X314Y270D01*
X370Y270D02*
X376Y270D01*
X384Y270D02*
X390Y270D01*
X1188Y270D02*
X1195Y270D01*
X0Y269D02*
X7Y269D01*
X270Y269D02*
X276Y269D01*
X308Y269D02*
X315Y269D01*
X370Y269D02*
X376Y269D01*
X384Y269D02*
X390Y269D01*
X1188Y269D02*
X1195Y269D01*
X0Y268D02*
X7Y268D01*
X270Y268D02*
X276Y268D01*
X308Y268D02*
X315Y268D01*
X370Y268D02*
X376Y268D01*
X384Y268D02*
X390Y268D01*
X1188Y268D02*
X1195Y268D01*
X0Y267D02*
X7Y267D01*
X270Y267D02*
X276Y267D01*
X309Y267D02*
X316Y267D01*
X370Y267D02*
X376Y267D01*
X384Y267D02*
X390Y267D01*
X1188Y267D02*
X1195Y267D01*
X0Y266D02*
X7Y266D01*
X270Y266D02*
X276Y266D01*
X309Y266D02*
X316Y266D01*
X370Y266D02*
X376Y266D01*
X384Y266D02*
X390Y266D01*
X1188Y266D02*
X1195Y266D01*
X0Y265D02*
X7Y265D01*
X270Y265D02*
X276Y265D01*
X310Y265D02*
X317Y265D01*
X370Y265D02*
X376Y265D01*
X384Y265D02*
X390Y265D01*
X1188Y265D02*
X1195Y265D01*
X0Y264D02*
X7Y264D01*
X270Y264D02*
X276Y264D01*
X310Y264D02*
X317Y264D01*
X370Y264D02*
X376Y264D01*
X384Y264D02*
X390Y264D01*
X1188Y264D02*
X1195Y264D01*
X0Y263D02*
X7Y263D01*
X270Y263D02*
X276Y263D01*
X311Y263D02*
X318Y263D01*
X370Y263D02*
X376Y263D01*
X384Y263D02*
X390Y263D01*
X1188Y263D02*
X1195Y263D01*
X0Y262D02*
X7Y262D01*
X270Y262D02*
X276Y262D01*
X311Y262D02*
X318Y262D01*
X370Y262D02*
X376Y262D01*
X384Y262D02*
X390Y262D01*
X1188Y262D02*
X1195Y262D01*
X0Y261D02*
X7Y261D01*
X270Y261D02*
X276Y261D01*
X312Y261D02*
X319Y261D01*
X370Y261D02*
X376Y261D01*
X384Y261D02*
X390Y261D01*
X1188Y261D02*
X1195Y261D01*
X0Y260D02*
X7Y260D01*
X270Y260D02*
X276Y260D01*
X312Y260D02*
X319Y260D01*
X370Y260D02*
X376Y260D01*
X384Y260D02*
X390Y260D01*
X1188Y260D02*
X1195Y260D01*
X0Y259D02*
X7Y259D01*
X270Y259D02*
X276Y259D01*
X313Y259D02*
X320Y259D01*
X370Y259D02*
X376Y259D01*
X384Y259D02*
X390Y259D01*
X1188Y259D02*
X1195Y259D01*
X0Y258D02*
X7Y258D01*
X270Y258D02*
X276Y258D01*
X313Y258D02*
X320Y258D01*
X370Y258D02*
X376Y258D01*
X384Y258D02*
X390Y258D01*
X1188Y258D02*
X1195Y258D01*
X0Y257D02*
X7Y257D01*
X270Y257D02*
X276Y257D01*
X314Y257D02*
X321Y257D01*
X370Y257D02*
X376Y257D01*
X384Y257D02*
X390Y257D01*
X1188Y257D02*
X1195Y257D01*
X0Y256D02*
X7Y256D01*
X269Y256D02*
X276Y256D01*
X314Y256D02*
X323Y256D01*
X370Y256D02*
X376Y256D01*
X384Y256D02*
X390Y256D01*
X1188Y256D02*
X1195Y256D01*
X0Y255D02*
X7Y255D01*
X257Y255D02*
X288Y255D01*
X315Y255D02*
X338Y255D01*
X358Y255D02*
X390Y255D01*
X1188Y255D02*
X1195Y255D01*
X0Y254D02*
X7Y254D01*
X256Y254D02*
X289Y254D01*
X315Y254D02*
X339Y254D01*
X357Y254D02*
X390Y254D01*
X1188Y254D02*
X1195Y254D01*
X0Y253D02*
X7Y253D01*
X256Y253D02*
X289Y253D01*
X316Y253D02*
X340Y253D01*
X356Y253D02*
X390Y253D01*
X1188Y253D02*
X1195Y253D01*
X0Y252D02*
X7Y252D01*
X256Y252D02*
X289Y252D01*
X317Y252D02*
X340Y252D01*
X356Y252D02*
X390Y252D01*
X1188Y252D02*
X1195Y252D01*
X0Y251D02*
X7Y251D01*
X256Y251D02*
X289Y251D01*
X318Y251D02*
X339Y251D01*
X357Y251D02*
X390Y251D01*
X1188Y251D02*
X1195Y251D01*
X0Y250D02*
X7Y250D01*
X257Y250D02*
X289Y250D01*
X320Y250D02*
X339Y250D01*
X357Y250D02*
X389Y250D01*
X1188Y250D02*
X1195Y250D01*
X0Y249D02*
X7Y249D01*
X259Y249D02*
X287Y249D01*
X323Y249D02*
X337Y249D01*
X359Y249D02*
X387Y249D01*
X1188Y249D02*
X1195Y249D01*
X0Y248D02*
X7Y248D01*
X1188Y248D02*
X1195Y248D01*
X0Y247D02*
X7Y247D01*
X1188Y247D02*
X1195Y247D01*
X0Y246D02*
X7Y246D01*
X1188Y246D02*
X1195Y246D01*
X0Y245D02*
X7Y245D01*
X1188Y245D02*
X1195Y245D01*
X0Y244D02*
X7Y244D01*
X1188Y244D02*
X1195Y244D01*
X0Y243D02*
X7Y243D01*
X1188Y243D02*
X1195Y243D01*
X0Y242D02*
X7Y242D01*
X1188Y242D02*
X1195Y242D01*
X0Y241D02*
X7Y241D01*
X1188Y241D02*
X1195Y241D01*
X0Y240D02*
X7Y240D01*
X1188Y240D02*
X1195Y240D01*
X0Y239D02*
X7Y239D01*
X1188Y239D02*
X1195Y239D01*
X0Y238D02*
X7Y238D01*
X1188Y238D02*
X1195Y238D01*
X0Y237D02*
X7Y237D01*
X1188Y237D02*
X1195Y237D01*
X0Y236D02*
X7Y236D01*
X1188Y236D02*
X1195Y236D01*
X0Y235D02*
X7Y235D01*
X538Y235D02*
X565Y235D01*
X644Y235D02*
X657Y235D01*
X1188Y235D02*
X1195Y235D01*
X0Y234D02*
X7Y234D01*
X538Y234D02*
X567Y234D01*
X643Y234D02*
X658Y234D01*
X1188Y234D02*
X1195Y234D01*
X0Y233D02*
X7Y233D01*
X538Y233D02*
X568Y233D01*
X642Y233D02*
X658Y233D01*
X1188Y233D02*
X1195Y233D01*
X0Y232D02*
X7Y232D01*
X538Y232D02*
X569Y232D01*
X642Y232D02*
X658Y232D01*
X1188Y232D02*
X1195Y232D01*
X0Y231D02*
X7Y231D01*
X538Y231D02*
X570Y231D01*
X642Y231D02*
X658Y231D01*
X1188Y231D02*
X1195Y231D01*
X0Y230D02*
X7Y230D01*
X538Y230D02*
X571Y230D01*
X643Y230D02*
X658Y230D01*
X1188Y230D02*
X1195Y230D01*
X0Y229D02*
X7Y229D01*
X538Y229D02*
X571Y229D01*
X644Y229D02*
X658Y229D01*
X1188Y229D02*
X1195Y229D01*
X0Y228D02*
X7Y228D01*
X538Y228D02*
X544Y228D01*
X564Y228D02*
X571Y228D01*
X652Y228D02*
X658Y228D01*
X1188Y228D02*
X1195Y228D01*
X0Y227D02*
X7Y227D01*
X43Y227D02*
X61Y227D01*
X93Y227D02*
X119Y227D01*
X144Y227D02*
X145Y227D01*
X171Y227D02*
X172Y227D01*
X538Y227D02*
X544Y227D01*
X565Y227D02*
X572Y227D01*
X652Y227D02*
X658Y227D01*
X1188Y227D02*
X1195Y227D01*
X0Y226D02*
X7Y226D01*
X42Y226D02*
X61Y226D01*
X92Y226D02*
X122Y226D01*
X142Y226D02*
X146Y226D01*
X170Y226D02*
X174Y226D01*
X538Y226D02*
X544Y226D01*
X566Y226D02*
X572Y226D01*
X652Y226D02*
X658Y226D01*
X1188Y226D02*
X1195Y226D01*
X0Y225D02*
X7Y225D01*
X41Y225D02*
X61Y225D01*
X91Y225D02*
X123Y225D01*
X142Y225D02*
X147Y225D01*
X169Y225D02*
X175Y225D01*
X538Y225D02*
X544Y225D01*
X566Y225D02*
X572Y225D01*
X652Y225D02*
X658Y225D01*
X1188Y225D02*
X1195Y225D01*
X0Y224D02*
X7Y224D01*
X41Y224D02*
X61Y224D01*
X91Y224D02*
X123Y224D01*
X141Y224D02*
X147Y224D01*
X169Y224D02*
X175Y224D01*
X538Y224D02*
X544Y224D01*
X566Y224D02*
X572Y224D01*
X652Y224D02*
X658Y224D01*
X1188Y224D02*
X1195Y224D01*
X0Y223D02*
X7Y223D01*
X41Y223D02*
X61Y223D01*
X91Y223D02*
X124Y223D01*
X141Y223D02*
X147Y223D01*
X169Y223D02*
X175Y223D01*
X538Y223D02*
X544Y223D01*
X566Y223D02*
X572Y223D01*
X652Y223D02*
X658Y223D01*
X1054Y223D02*
X1064Y223D01*
X1085Y223D02*
X1092Y223D01*
X1138Y223D02*
X1150Y223D01*
X1188Y223D02*
X1195Y223D01*
X0Y222D02*
X7Y222D01*
X41Y222D02*
X61Y222D01*
X92Y222D02*
X124Y222D01*
X141Y222D02*
X147Y222D01*
X169Y222D02*
X175Y222D01*
X538Y222D02*
X544Y222D01*
X566Y222D02*
X572Y222D01*
X652Y222D02*
X658Y222D01*
X1050Y222D02*
X1066Y222D01*
X1084Y222D02*
X1093Y222D01*
X1113Y222D02*
X1116Y222D01*
X1135Y222D02*
X1154Y222D01*
X1188Y222D02*
X1195Y222D01*
X0Y221D02*
X7Y221D01*
X42Y221D02*
X61Y221D01*
X92Y221D02*
X125Y221D01*
X141Y221D02*
X147Y221D01*
X169Y221D02*
X175Y221D01*
X538Y221D02*
X544Y221D01*
X566Y221D02*
X572Y221D01*
X652Y221D02*
X658Y221D01*
X1048Y221D02*
X1067Y221D01*
X1084Y221D02*
X1093Y221D01*
X1112Y221D02*
X1117Y221D01*
X1135Y221D02*
X1156Y221D01*
X1188Y221D02*
X1195Y221D01*
X0Y220D02*
X7Y220D01*
X54Y220D02*
X61Y220D01*
X118Y220D02*
X125Y220D01*
X141Y220D02*
X147Y220D01*
X169Y220D02*
X175Y220D01*
X538Y220D02*
X544Y220D01*
X565Y220D02*
X572Y220D01*
X597Y220D02*
X613Y220D01*
X652Y220D02*
X658Y220D01*
X697Y220D02*
X715Y220D01*
X740Y220D02*
X744Y220D01*
X768Y220D02*
X771Y220D01*
X1047Y220D02*
X1067Y220D01*
X1084Y220D02*
X1094Y220D01*
X1112Y220D02*
X1118Y220D01*
X1134Y220D02*
X1157Y220D01*
X1188Y220D02*
X1195Y220D01*
X0Y219D02*
X7Y219D01*
X55Y219D02*
X61Y219D01*
X119Y219D02*
X125Y219D01*
X141Y219D02*
X147Y219D01*
X169Y219D02*
X175Y219D01*
X538Y219D02*
X544Y219D01*
X565Y219D02*
X571Y219D01*
X595Y219D02*
X615Y219D01*
X652Y219D02*
X658Y219D01*
X696Y219D02*
X717Y219D01*
X739Y219D02*
X744Y219D01*
X767Y219D02*
X772Y219D01*
X1046Y219D02*
X1067Y219D01*
X1084Y219D02*
X1094Y219D01*
X1112Y219D02*
X1118Y219D01*
X1134Y219D02*
X1158Y219D01*
X1188Y219D02*
X1195Y219D01*
X0Y218D02*
X7Y218D01*
X55Y218D02*
X61Y218D01*
X119Y218D02*
X125Y218D01*
X141Y218D02*
X147Y218D01*
X169Y218D02*
X175Y218D01*
X538Y218D02*
X545Y218D01*
X562Y218D02*
X571Y218D01*
X594Y218D02*
X616Y218D01*
X652Y218D02*
X658Y218D01*
X696Y218D02*
X718Y218D01*
X739Y218D02*
X745Y218D01*
X767Y218D02*
X772Y218D01*
X1045Y218D02*
X1067Y218D01*
X1084Y218D02*
X1094Y218D01*
X1112Y218D02*
X1118Y218D01*
X1135Y218D02*
X1158Y218D01*
X1188Y218D02*
X1195Y218D01*
X0Y217D02*
X7Y217D01*
X55Y217D02*
X61Y217D01*
X119Y217D02*
X125Y217D01*
X141Y217D02*
X147Y217D01*
X169Y217D02*
X175Y217D01*
X538Y217D02*
X571Y217D01*
X593Y217D02*
X618Y217D01*
X652Y217D02*
X658Y217D01*
X696Y217D02*
X719Y217D01*
X739Y217D02*
X745Y217D01*
X766Y217D02*
X772Y217D01*
X1045Y217D02*
X1066Y217D01*
X1084Y217D02*
X1095Y217D01*
X1112Y217D02*
X1118Y217D01*
X1135Y217D02*
X1159Y217D01*
X1188Y217D02*
X1195Y217D01*
X0Y216D02*
X7Y216D01*
X55Y216D02*
X61Y216D01*
X119Y216D02*
X125Y216D01*
X141Y216D02*
X147Y216D01*
X169Y216D02*
X175Y216D01*
X538Y216D02*
X570Y216D01*
X592Y216D02*
X619Y216D01*
X652Y216D02*
X658Y216D01*
X696Y216D02*
X720Y216D01*
X739Y216D02*
X745Y216D01*
X766Y216D02*
X772Y216D01*
X1044Y216D02*
X1054Y216D01*
X1084Y216D02*
X1095Y216D01*
X1112Y216D02*
X1118Y216D01*
X1141Y216D02*
X1148Y216D01*
X1151Y216D02*
X1160Y216D01*
X1188Y216D02*
X1195Y216D01*
X0Y215D02*
X7Y215D01*
X55Y215D02*
X61Y215D01*
X119Y215D02*
X125Y215D01*
X141Y215D02*
X147Y215D01*
X169Y215D02*
X175Y215D01*
X538Y215D02*
X569Y215D01*
X591Y215D02*
X620Y215D01*
X652Y215D02*
X658Y215D01*
X697Y215D02*
X720Y215D01*
X739Y215D02*
X745Y215D01*
X766Y215D02*
X772Y215D01*
X1043Y215D02*
X1051Y215D01*
X1084Y215D02*
X1096Y215D01*
X1112Y215D02*
X1118Y215D01*
X1141Y215D02*
X1147Y215D01*
X1153Y215D02*
X1160Y215D01*
X1188Y215D02*
X1195Y215D01*
X0Y214D02*
X7Y214D01*
X55Y214D02*
X61Y214D01*
X119Y214D02*
X125Y214D01*
X141Y214D02*
X147Y214D01*
X169Y214D02*
X175Y214D01*
X538Y214D02*
X569Y214D01*
X590Y214D02*
X620Y214D01*
X652Y214D02*
X658Y214D01*
X699Y214D02*
X721Y214D01*
X739Y214D02*
X745Y214D01*
X766Y214D02*
X772Y214D01*
X1042Y214D02*
X1050Y214D01*
X1084Y214D02*
X1096Y214D01*
X1112Y214D02*
X1118Y214D01*
X1141Y214D02*
X1147Y214D01*
X1154Y214D02*
X1161Y214D01*
X1188Y214D02*
X1195Y214D01*
X0Y213D02*
X7Y213D01*
X55Y213D02*
X61Y213D01*
X119Y213D02*
X125Y213D01*
X141Y213D02*
X147Y213D01*
X169Y213D02*
X175Y213D01*
X538Y213D02*
X567Y213D01*
X590Y213D02*
X598Y213D01*
X613Y213D02*
X621Y213D01*
X652Y213D02*
X658Y213D01*
X714Y213D02*
X721Y213D01*
X739Y213D02*
X745Y213D01*
X766Y213D02*
X772Y213D01*
X1042Y213D02*
X1050Y213D01*
X1084Y213D02*
X1097Y213D01*
X1112Y213D02*
X1118Y213D01*
X1141Y213D02*
X1147Y213D01*
X1154Y213D02*
X1161Y213D01*
X1188Y213D02*
X1195Y213D01*
X0Y212D02*
X7Y212D01*
X55Y212D02*
X61Y212D01*
X119Y212D02*
X125Y212D01*
X141Y212D02*
X148Y212D01*
X169Y212D02*
X175Y212D01*
X538Y212D02*
X566Y212D01*
X589Y212D02*
X597Y212D01*
X614Y212D02*
X621Y212D01*
X652Y212D02*
X658Y212D01*
X715Y212D02*
X721Y212D01*
X739Y212D02*
X745Y212D01*
X766Y212D02*
X772Y212D01*
X1041Y212D02*
X1049Y212D01*
X1084Y212D02*
X1097Y212D01*
X1112Y212D02*
X1118Y212D01*
X1141Y212D02*
X1147Y212D01*
X1155Y212D02*
X1162Y212D01*
X1188Y212D02*
X1195Y212D01*
X0Y211D02*
X7Y211D01*
X55Y211D02*
X61Y211D01*
X119Y211D02*
X125Y211D01*
X141Y211D02*
X148Y211D01*
X168Y211D02*
X175Y211D01*
X538Y211D02*
X562Y211D01*
X589Y211D02*
X596Y211D01*
X615Y211D02*
X622Y211D01*
X652Y211D02*
X658Y211D01*
X715Y211D02*
X721Y211D01*
X739Y211D02*
X745Y211D01*
X766Y211D02*
X772Y211D01*
X1040Y211D02*
X1048Y211D01*
X1084Y211D02*
X1098Y211D01*
X1112Y211D02*
X1118Y211D01*
X1141Y211D02*
X1147Y211D01*
X1155Y211D02*
X1162Y211D01*
X1188Y211D02*
X1195Y211D01*
X0Y210D02*
X7Y210D01*
X55Y210D02*
X61Y210D01*
X119Y210D02*
X125Y210D01*
X142Y210D02*
X148Y210D01*
X168Y210D02*
X174Y210D01*
X538Y210D02*
X544Y210D01*
X551Y210D02*
X558Y210D01*
X589Y210D02*
X595Y210D01*
X616Y210D02*
X622Y210D01*
X652Y210D02*
X658Y210D01*
X715Y210D02*
X721Y210D01*
X739Y210D02*
X746Y210D01*
X765Y210D02*
X772Y210D01*
X1039Y210D02*
X1047Y210D01*
X1084Y210D02*
X1098Y210D01*
X1112Y210D02*
X1118Y210D01*
X1141Y210D02*
X1147Y210D01*
X1156Y210D02*
X1163Y210D01*
X1188Y210D02*
X1195Y210D01*
X0Y209D02*
X7Y209D01*
X55Y209D02*
X61Y209D01*
X119Y209D02*
X125Y209D01*
X142Y209D02*
X149Y209D01*
X167Y209D02*
X174Y209D01*
X538Y209D02*
X544Y209D01*
X551Y209D02*
X558Y209D01*
X588Y209D02*
X595Y209D01*
X616Y209D02*
X622Y209D01*
X652Y209D02*
X658Y209D01*
X715Y209D02*
X721Y209D01*
X740Y209D02*
X746Y209D01*
X765Y209D02*
X772Y209D01*
X1038Y209D02*
X1046Y209D01*
X1084Y209D02*
X1090Y209D01*
X1092Y209D02*
X1098Y209D01*
X1112Y209D02*
X1118Y209D01*
X1141Y209D02*
X1147Y209D01*
X1156Y209D02*
X1163Y209D01*
X1188Y209D02*
X1195Y209D01*
X0Y208D02*
X7Y208D01*
X55Y208D02*
X61Y208D01*
X119Y208D02*
X125Y208D01*
X143Y208D02*
X149Y208D01*
X167Y208D02*
X174Y208D01*
X538Y208D02*
X544Y208D01*
X552Y208D02*
X559Y208D01*
X588Y208D02*
X594Y208D01*
X616Y208D02*
X622Y208D01*
X652Y208D02*
X658Y208D01*
X715Y208D02*
X722Y208D01*
X740Y208D02*
X747Y208D01*
X765Y208D02*
X771Y208D01*
X1038Y208D02*
X1046Y208D01*
X1084Y208D02*
X1090Y208D01*
X1092Y208D02*
X1099Y208D01*
X1112Y208D02*
X1118Y208D01*
X1141Y208D02*
X1147Y208D01*
X1157Y208D02*
X1164Y208D01*
X1188Y208D02*
X1195Y208D01*
X0Y207D02*
X7Y207D01*
X55Y207D02*
X61Y207D01*
X119Y207D02*
X125Y207D01*
X143Y207D02*
X149Y207D01*
X167Y207D02*
X173Y207D01*
X538Y207D02*
X544Y207D01*
X552Y207D02*
X560Y207D01*
X588Y207D02*
X594Y207D01*
X616Y207D02*
X622Y207D01*
X652Y207D02*
X658Y207D01*
X715Y207D02*
X722Y207D01*
X741Y207D02*
X747Y207D01*
X764Y207D02*
X771Y207D01*
X1037Y207D02*
X1045Y207D01*
X1084Y207D02*
X1090Y207D01*
X1093Y207D02*
X1099Y207D01*
X1112Y207D02*
X1118Y207D01*
X1141Y207D02*
X1147Y207D01*
X1157Y207D02*
X1164Y207D01*
X1188Y207D02*
X1195Y207D01*
X0Y206D02*
X7Y206D01*
X55Y206D02*
X61Y206D01*
X119Y206D02*
X125Y206D01*
X143Y206D02*
X150Y206D01*
X166Y206D02*
X173Y206D01*
X538Y206D02*
X544Y206D01*
X553Y206D02*
X560Y206D01*
X588Y206D02*
X594Y206D01*
X616Y206D02*
X622Y206D01*
X652Y206D02*
X658Y206D01*
X697Y206D02*
X722Y206D01*
X741Y206D02*
X748Y206D01*
X764Y206D02*
X770Y206D01*
X1036Y206D02*
X1044Y206D01*
X1084Y206D02*
X1090Y206D01*
X1093Y206D02*
X1100Y206D01*
X1112Y206D02*
X1118Y206D01*
X1141Y206D02*
X1147Y206D01*
X1158Y206D02*
X1165Y206D01*
X1188Y206D02*
X1195Y206D01*
X0Y205D02*
X7Y205D01*
X55Y205D02*
X61Y205D01*
X119Y205D02*
X125Y205D01*
X144Y205D02*
X150Y205D01*
X166Y205D02*
X172Y205D01*
X538Y205D02*
X544Y205D01*
X554Y205D02*
X561Y205D01*
X588Y205D02*
X594Y205D01*
X616Y205D02*
X622Y205D01*
X652Y205D02*
X658Y205D01*
X694Y205D02*
X722Y205D01*
X741Y205D02*
X748Y205D01*
X763Y205D02*
X770Y205D01*
X1036Y205D02*
X1043Y205D01*
X1084Y205D02*
X1090Y205D01*
X1093Y205D02*
X1100Y205D01*
X1112Y205D02*
X1118Y205D01*
X1141Y205D02*
X1147Y205D01*
X1158Y205D02*
X1165Y205D01*
X1188Y205D02*
X1195Y205D01*
X0Y204D02*
X7Y204D01*
X55Y204D02*
X61Y204D01*
X119Y204D02*
X125Y204D01*
X144Y204D02*
X151Y204D01*
X165Y204D02*
X172Y204D01*
X538Y204D02*
X544Y204D01*
X554Y204D02*
X561Y204D01*
X588Y204D02*
X594Y204D01*
X616Y204D02*
X622Y204D01*
X652Y204D02*
X658Y204D01*
X693Y204D02*
X722Y204D01*
X742Y204D02*
X749Y204D01*
X763Y204D02*
X769Y204D01*
X1035Y204D02*
X1042Y204D01*
X1084Y204D02*
X1090Y204D01*
X1094Y204D02*
X1101Y204D01*
X1112Y204D02*
X1118Y204D01*
X1141Y204D02*
X1147Y204D01*
X1159Y204D02*
X1166Y204D01*
X1188Y204D02*
X1195Y204D01*
X0Y203D02*
X7Y203D01*
X55Y203D02*
X61Y203D01*
X95Y203D02*
X125Y203D01*
X144Y203D02*
X151Y203D01*
X165Y203D02*
X172Y203D01*
X538Y203D02*
X544Y203D01*
X555Y203D02*
X562Y203D01*
X588Y203D02*
X622Y203D01*
X652Y203D02*
X658Y203D01*
X692Y203D02*
X722Y203D01*
X742Y203D02*
X749Y203D01*
X762Y203D02*
X769Y203D01*
X1035Y203D02*
X1042Y203D01*
X1084Y203D02*
X1090Y203D01*
X1094Y203D02*
X1101Y203D01*
X1112Y203D02*
X1118Y203D01*
X1141Y203D02*
X1147Y203D01*
X1159Y203D02*
X1166Y203D01*
X1188Y203D02*
X1195Y203D01*
X0Y202D02*
X7Y202D01*
X55Y202D02*
X61Y202D01*
X94Y202D02*
X124Y202D01*
X145Y202D02*
X151Y202D01*
X165Y202D02*
X171Y202D01*
X538Y202D02*
X544Y202D01*
X555Y202D02*
X562Y202D01*
X588Y202D02*
X622Y202D01*
X652Y202D02*
X658Y202D01*
X691Y202D02*
X722Y202D01*
X743Y202D02*
X749Y202D01*
X762Y202D02*
X769Y202D01*
X1034Y202D02*
X1041Y202D01*
X1084Y202D02*
X1090Y202D01*
X1095Y202D02*
X1101Y202D01*
X1112Y202D02*
X1118Y202D01*
X1141Y202D02*
X1147Y202D01*
X1160Y202D02*
X1166Y202D01*
X1188Y202D02*
X1195Y202D01*
X0Y201D02*
X7Y201D01*
X55Y201D02*
X61Y201D01*
X93Y201D02*
X124Y201D01*
X145Y201D02*
X152Y201D01*
X164Y201D02*
X171Y201D01*
X538Y201D02*
X544Y201D01*
X556Y201D02*
X563Y201D01*
X588Y201D02*
X622Y201D01*
X652Y201D02*
X658Y201D01*
X690Y201D02*
X722Y201D01*
X743Y201D02*
X750Y201D01*
X761Y201D02*
X768Y201D01*
X1034Y201D02*
X1041Y201D01*
X1084Y201D02*
X1090Y201D01*
X1095Y201D02*
X1102Y201D01*
X1112Y201D02*
X1118Y201D01*
X1141Y201D02*
X1147Y201D01*
X1160Y201D02*
X1167Y201D01*
X1188Y201D02*
X1195Y201D01*
X0Y200D02*
X7Y200D01*
X55Y200D02*
X61Y200D01*
X92Y200D02*
X124Y200D01*
X146Y200D02*
X152Y200D01*
X164Y200D02*
X170Y200D01*
X538Y200D02*
X544Y200D01*
X556Y200D02*
X564Y200D01*
X588Y200D02*
X622Y200D01*
X652Y200D02*
X658Y200D01*
X690Y200D02*
X722Y200D01*
X744Y200D02*
X750Y200D01*
X761Y200D02*
X768Y200D01*
X1034Y200D02*
X1040Y200D01*
X1084Y200D02*
X1090Y200D01*
X1096Y200D02*
X1102Y200D01*
X1112Y200D02*
X1118Y200D01*
X1141Y200D02*
X1147Y200D01*
X1161Y200D02*
X1167Y200D01*
X1188Y200D02*
X1195Y200D01*
X0Y199D02*
X7Y199D01*
X55Y199D02*
X61Y199D01*
X91Y199D02*
X123Y199D01*
X146Y199D02*
X153Y199D01*
X163Y199D02*
X170Y199D01*
X538Y199D02*
X544Y199D01*
X557Y199D02*
X564Y199D01*
X588Y199D02*
X622Y199D01*
X652Y199D02*
X658Y199D01*
X689Y199D02*
X697Y199D01*
X713Y199D02*
X722Y199D01*
X744Y199D02*
X751Y199D01*
X761Y199D02*
X767Y199D01*
X1034Y199D02*
X1040Y199D01*
X1084Y199D02*
X1090Y199D01*
X1096Y199D02*
X1103Y199D01*
X1112Y199D02*
X1118Y199D01*
X1141Y199D02*
X1147Y199D01*
X1161Y199D02*
X1167Y199D01*
X1188Y199D02*
X1195Y199D01*
X0Y198D02*
X7Y198D01*
X55Y198D02*
X61Y198D01*
X91Y198D02*
X122Y198D01*
X146Y198D02*
X153Y198D01*
X163Y198D02*
X170Y198D01*
X538Y198D02*
X544Y198D01*
X558Y198D02*
X565Y198D01*
X588Y198D02*
X621Y198D01*
X652Y198D02*
X658Y198D01*
X689Y198D02*
X696Y198D01*
X715Y198D02*
X722Y198D01*
X745Y198D02*
X751Y198D01*
X760Y198D02*
X767Y198D01*
X1034Y198D02*
X1040Y198D01*
X1084Y198D02*
X1090Y198D01*
X1097Y198D02*
X1103Y198D01*
X1112Y198D02*
X1118Y198D01*
X1141Y198D02*
X1147Y198D01*
X1161Y198D02*
X1168Y198D01*
X1188Y198D02*
X1195Y198D01*
X0Y197D02*
X7Y197D01*
X55Y197D02*
X61Y197D01*
X70Y197D02*
X73Y197D01*
X91Y197D02*
X120Y197D01*
X147Y197D02*
X153Y197D01*
X163Y197D02*
X169Y197D01*
X538Y197D02*
X544Y197D01*
X558Y197D02*
X565Y197D01*
X588Y197D02*
X621Y197D01*
X652Y197D02*
X658Y197D01*
X689Y197D02*
X695Y197D01*
X716Y197D02*
X722Y197D01*
X745Y197D02*
X752Y197D01*
X760Y197D02*
X766Y197D01*
X1034Y197D02*
X1040Y197D01*
X1084Y197D02*
X1090Y197D01*
X1097Y197D02*
X1104Y197D01*
X1112Y197D02*
X1118Y197D01*
X1141Y197D02*
X1147Y197D01*
X1162Y197D02*
X1168Y197D01*
X1188Y197D02*
X1195Y197D01*
X0Y196D02*
X7Y196D01*
X55Y196D02*
X61Y196D01*
X69Y196D02*
X74Y196D01*
X91Y196D02*
X97Y196D01*
X147Y196D02*
X154Y196D01*
X162Y196D02*
X169Y196D01*
X538Y196D02*
X544Y196D01*
X559Y196D02*
X566Y196D01*
X588Y196D02*
X595Y196D01*
X652Y196D02*
X658Y196D01*
X689Y196D02*
X695Y196D01*
X716Y196D02*
X722Y196D01*
X745Y196D02*
X752Y196D01*
X759Y196D02*
X766Y196D01*
X1034Y196D02*
X1040Y196D01*
X1084Y196D02*
X1090Y196D01*
X1097Y196D02*
X1104Y196D01*
X1112Y196D02*
X1118Y196D01*
X1141Y196D02*
X1147Y196D01*
X1162Y196D02*
X1168Y196D01*
X1188Y196D02*
X1195Y196D01*
X0Y195D02*
X7Y195D01*
X55Y195D02*
X61Y195D01*
X69Y195D02*
X74Y195D01*
X91Y195D02*
X97Y195D01*
X148Y195D02*
X154Y195D01*
X162Y195D02*
X168Y195D01*
X538Y195D02*
X544Y195D01*
X559Y195D02*
X567Y195D01*
X588Y195D02*
X594Y195D01*
X652Y195D02*
X658Y195D01*
X689Y195D02*
X695Y195D01*
X716Y195D02*
X722Y195D01*
X746Y195D02*
X752Y195D01*
X759Y195D02*
X766Y195D01*
X1034Y195D02*
X1040Y195D01*
X1084Y195D02*
X1090Y195D01*
X1098Y195D02*
X1105Y195D01*
X1112Y195D02*
X1118Y195D01*
X1141Y195D02*
X1147Y195D01*
X1162Y195D02*
X1168Y195D01*
X1188Y195D02*
X1195Y195D01*
X0Y194D02*
X7Y194D01*
X55Y194D02*
X61Y194D01*
X68Y194D02*
X74Y194D01*
X91Y194D02*
X97Y194D01*
X148Y194D02*
X155Y194D01*
X162Y194D02*
X168Y194D01*
X538Y194D02*
X544Y194D01*
X560Y194D02*
X567Y194D01*
X588Y194D02*
X594Y194D01*
X652Y194D02*
X658Y194D01*
X689Y194D02*
X695Y194D01*
X716Y194D02*
X722Y194D01*
X746Y194D02*
X753Y194D01*
X758Y194D02*
X765Y194D01*
X1034Y194D02*
X1040Y194D01*
X1084Y194D02*
X1090Y194D01*
X1098Y194D02*
X1105Y194D01*
X1112Y194D02*
X1118Y194D01*
X1141Y194D02*
X1147Y194D01*
X1161Y194D02*
X1168Y194D01*
X1188Y194D02*
X1195Y194D01*
X0Y193D02*
X7Y193D01*
X55Y193D02*
X61Y193D01*
X68Y193D02*
X74Y193D01*
X91Y193D02*
X97Y193D01*
X148Y193D02*
X155Y193D01*
X161Y193D02*
X168Y193D01*
X538Y193D02*
X544Y193D01*
X561Y193D02*
X568Y193D01*
X589Y193D02*
X595Y193D01*
X652Y193D02*
X658Y193D01*
X689Y193D02*
X695Y193D01*
X716Y193D02*
X722Y193D01*
X747Y193D02*
X753Y193D01*
X758Y193D02*
X765Y193D01*
X1034Y193D02*
X1040Y193D01*
X1053Y193D02*
X1067Y193D01*
X1084Y193D02*
X1090Y193D01*
X1099Y193D02*
X1105Y193D01*
X1112Y193D02*
X1118Y193D01*
X1141Y193D02*
X1147Y193D01*
X1161Y193D02*
X1167Y193D01*
X1188Y193D02*
X1195Y193D01*
X0Y192D02*
X7Y192D01*
X55Y192D02*
X61Y192D01*
X68Y192D02*
X74Y192D01*
X91Y192D02*
X97Y192D01*
X149Y192D02*
X155Y192D01*
X161Y192D02*
X167Y192D01*
X538Y192D02*
X544Y192D01*
X561Y192D02*
X568Y192D01*
X589Y192D02*
X595Y192D01*
X652Y192D02*
X658Y192D01*
X689Y192D02*
X695Y192D01*
X714Y192D02*
X722Y192D01*
X747Y192D02*
X754Y192D01*
X757Y192D02*
X764Y192D01*
X1034Y192D02*
X1040Y192D01*
X1052Y192D02*
X1067Y192D01*
X1084Y192D02*
X1090Y192D01*
X1099Y192D02*
X1106Y192D01*
X1112Y192D02*
X1118Y192D01*
X1141Y192D02*
X1147Y192D01*
X1161Y192D02*
X1167Y192D01*
X1188Y192D02*
X1195Y192D01*
X0Y191D02*
X7Y191D01*
X55Y191D02*
X61Y191D01*
X68Y191D02*
X74Y191D01*
X91Y191D02*
X97Y191D01*
X149Y191D02*
X156Y191D01*
X160Y191D02*
X167Y191D01*
X538Y191D02*
X544Y191D01*
X562Y191D02*
X569Y191D01*
X589Y191D02*
X596Y191D01*
X652Y191D02*
X658Y191D01*
X689Y191D02*
X695Y191D01*
X713Y191D02*
X722Y191D01*
X748Y191D02*
X764Y191D01*
X1034Y191D02*
X1040Y191D01*
X1051Y191D02*
X1067Y191D01*
X1084Y191D02*
X1090Y191D01*
X1100Y191D02*
X1106Y191D01*
X1112Y191D02*
X1118Y191D01*
X1141Y191D02*
X1147Y191D01*
X1160Y191D02*
X1167Y191D01*
X1188Y191D02*
X1195Y191D01*
X0Y190D02*
X7Y190D01*
X55Y190D02*
X61Y190D01*
X68Y190D02*
X74Y190D01*
X91Y190D02*
X97Y190D01*
X150Y190D02*
X156Y190D01*
X160Y190D02*
X167Y190D01*
X538Y190D02*
X544Y190D01*
X562Y190D02*
X569Y190D01*
X589Y190D02*
X597Y190D01*
X652Y190D02*
X658Y190D01*
X689Y190D02*
X695Y190D01*
X711Y190D02*
X722Y190D01*
X748Y190D02*
X763Y190D01*
X1034Y190D02*
X1040Y190D01*
X1051Y190D02*
X1067Y190D01*
X1084Y190D02*
X1090Y190D01*
X1100Y190D02*
X1107Y190D01*
X1112Y190D02*
X1118Y190D01*
X1141Y190D02*
X1147Y190D01*
X1160Y190D02*
X1166Y190D01*
X1188Y190D02*
X1195Y190D01*
X0Y189D02*
X7Y189D01*
X55Y189D02*
X61Y189D01*
X68Y189D02*
X74Y189D01*
X91Y189D02*
X97Y189D01*
X150Y189D02*
X157Y189D01*
X160Y189D02*
X166Y189D01*
X538Y189D02*
X544Y189D01*
X563Y189D02*
X570Y189D01*
X590Y189D02*
X599Y189D01*
X652Y189D02*
X658Y189D01*
X689Y189D02*
X697Y189D01*
X709Y189D02*
X722Y189D01*
X748Y189D02*
X763Y189D01*
X1034Y189D02*
X1040Y189D01*
X1051Y189D02*
X1067Y189D01*
X1084Y189D02*
X1090Y189D01*
X1100Y189D02*
X1107Y189D01*
X1112Y189D02*
X1118Y189D01*
X1141Y189D02*
X1147Y189D01*
X1159Y189D02*
X1166Y189D01*
X1188Y189D02*
X1195Y189D01*
X0Y188D02*
X7Y188D01*
X55Y188D02*
X61Y188D01*
X68Y188D02*
X74Y188D01*
X91Y188D02*
X97Y188D01*
X150Y188D02*
X157Y188D01*
X159Y188D02*
X166Y188D01*
X538Y188D02*
X544Y188D01*
X563Y188D02*
X571Y188D01*
X590Y188D02*
X620Y188D01*
X644Y188D02*
X667Y188D01*
X690Y188D02*
X722Y188D01*
X749Y188D02*
X762Y188D01*
X1034Y188D02*
X1040Y188D01*
X1052Y188D02*
X1067Y188D01*
X1084Y188D02*
X1090Y188D01*
X1101Y188D02*
X1108Y188D01*
X1112Y188D02*
X1118Y188D01*
X1141Y188D02*
X1147Y188D01*
X1159Y188D02*
X1166Y188D01*
X1188Y188D02*
X1195Y188D01*
X0Y187D02*
X7Y187D01*
X55Y187D02*
X61Y187D01*
X68Y187D02*
X74Y187D01*
X91Y187D02*
X97Y187D01*
X151Y187D02*
X157Y187D01*
X159Y187D02*
X165Y187D01*
X538Y187D02*
X544Y187D01*
X564Y187D02*
X571Y187D01*
X591Y187D02*
X621Y187D01*
X643Y187D02*
X668Y187D01*
X690Y187D02*
X722Y187D01*
X749Y187D02*
X762Y187D01*
X1034Y187D02*
X1040Y187D01*
X1053Y187D02*
X1067Y187D01*
X1084Y187D02*
X1090Y187D01*
X1101Y187D02*
X1108Y187D01*
X1112Y187D02*
X1118Y187D01*
X1141Y187D02*
X1147Y187D01*
X1158Y187D02*
X1165Y187D01*
X1188Y187D02*
X1195Y187D01*
X0Y186D02*
X7Y186D01*
X55Y186D02*
X61Y186D01*
X68Y186D02*
X74Y186D01*
X91Y186D02*
X97Y186D01*
X151Y186D02*
X165Y186D01*
X538Y186D02*
X544Y186D01*
X565Y186D02*
X572Y186D01*
X592Y186D02*
X622Y186D01*
X642Y186D02*
X668Y186D01*
X691Y186D02*
X722Y186D01*
X750Y186D02*
X762Y186D01*
X1034Y186D02*
X1040Y186D01*
X1061Y186D02*
X1067Y186D01*
X1084Y186D02*
X1090Y186D01*
X1102Y186D02*
X1109Y186D01*
X1112Y186D02*
X1118Y186D01*
X1141Y186D02*
X1147Y186D01*
X1158Y186D02*
X1165Y186D01*
X1188Y186D02*
X1195Y186D01*
X0Y185D02*
X7Y185D01*
X55Y185D02*
X61Y185D01*
X68Y185D02*
X74Y185D01*
X91Y185D02*
X97Y185D01*
X151Y185D02*
X165Y185D01*
X538Y185D02*
X544Y185D01*
X565Y185D02*
X572Y185D01*
X593Y185D02*
X622Y185D01*
X642Y185D02*
X669Y185D01*
X691Y185D02*
X722Y185D01*
X751Y185D02*
X761Y185D01*
X1034Y185D02*
X1040Y185D01*
X1061Y185D02*
X1067Y185D01*
X1084Y185D02*
X1090Y185D01*
X1102Y185D02*
X1109Y185D01*
X1112Y185D02*
X1118Y185D01*
X1141Y185D02*
X1147Y185D01*
X1157Y185D02*
X1164Y185D01*
X1188Y185D02*
X1195Y185D01*
X0Y184D02*
X7Y184D01*
X55Y184D02*
X61Y184D01*
X68Y184D02*
X74Y184D01*
X91Y184D02*
X97Y184D01*
X152Y184D02*
X164Y184D01*
X538Y184D02*
X544Y184D01*
X566Y184D02*
X572Y184D01*
X595Y184D02*
X622Y184D01*
X642Y184D02*
X668Y184D01*
X692Y184D02*
X714Y184D01*
X716Y184D02*
X722Y184D01*
X754Y184D02*
X761Y184D01*
X1034Y184D02*
X1040Y184D01*
X1061Y184D02*
X1067Y184D01*
X1084Y184D02*
X1090Y184D01*
X1103Y184D02*
X1109Y184D01*
X1112Y184D02*
X1118Y184D01*
X1141Y184D02*
X1147Y184D01*
X1157Y184D02*
X1164Y184D01*
X1188Y184D02*
X1195Y184D01*
X0Y183D02*
X7Y183D01*
X55Y183D02*
X61Y183D01*
X68Y183D02*
X74Y183D01*
X91Y183D02*
X97Y183D01*
X152Y183D02*
X164Y183D01*
X539Y183D02*
X543Y183D01*
X566Y183D02*
X571Y183D01*
X596Y183D02*
X621Y183D01*
X643Y183D02*
X668Y183D01*
X694Y183D02*
X712Y183D01*
X717Y183D02*
X722Y183D01*
X754Y183D02*
X760Y183D01*
X1034Y183D02*
X1040Y183D01*
X1061Y183D02*
X1067Y183D01*
X1084Y183D02*
X1090Y183D01*
X1103Y183D02*
X1110Y183D01*
X1112Y183D02*
X1118Y183D01*
X1141Y183D02*
X1147Y183D01*
X1156Y183D02*
X1163Y183D01*
X1188Y183D02*
X1195Y183D01*
X0Y182D02*
X7Y182D01*
X55Y182D02*
X61Y182D01*
X68Y182D02*
X74Y182D01*
X91Y182D02*
X97Y182D01*
X153Y182D02*
X163Y182D01*
X540Y182D02*
X542Y182D01*
X568Y182D02*
X570Y182D01*
X598Y182D02*
X620Y182D01*
X644Y182D02*
X667Y182D01*
X696Y182D02*
X710Y182D01*
X718Y182D02*
X720Y182D01*
X753Y182D02*
X760Y182D01*
X1034Y182D02*
X1040Y182D01*
X1061Y182D02*
X1067Y182D01*
X1084Y182D02*
X1090Y182D01*
X1104Y182D02*
X1118Y182D01*
X1141Y182D02*
X1147Y182D01*
X1156Y182D02*
X1163Y182D01*
X1188Y182D02*
X1195Y182D01*
X0Y181D02*
X7Y181D01*
X55Y181D02*
X61Y181D01*
X68Y181D02*
X74Y181D01*
X91Y181D02*
X97Y181D01*
X153Y181D02*
X163Y181D01*
X753Y181D02*
X759Y181D01*
X1034Y181D02*
X1040Y181D01*
X1061Y181D02*
X1067Y181D01*
X1084Y181D02*
X1090Y181D01*
X1104Y181D02*
X1118Y181D01*
X1141Y181D02*
X1147Y181D01*
X1155Y181D02*
X1162Y181D01*
X1188Y181D02*
X1195Y181D01*
X0Y180D02*
X7Y180D01*
X44Y180D02*
X74Y180D01*
X91Y180D02*
X122Y180D01*
X153Y180D02*
X163Y180D01*
X752Y180D02*
X759Y180D01*
X1034Y180D02*
X1040Y180D01*
X1061Y180D02*
X1067Y180D01*
X1084Y180D02*
X1090Y180D01*
X1104Y180D02*
X1118Y180D01*
X1141Y180D02*
X1147Y180D01*
X1155Y180D02*
X1162Y180D01*
X1188Y180D02*
X1195Y180D01*
X0Y179D02*
X7Y179D01*
X42Y179D02*
X74Y179D01*
X91Y179D02*
X124Y179D01*
X154Y179D02*
X162Y179D01*
X752Y179D02*
X759Y179D01*
X1034Y179D02*
X1040Y179D01*
X1061Y179D02*
X1067Y179D01*
X1084Y179D02*
X1090Y179D01*
X1105Y179D02*
X1118Y179D01*
X1141Y179D02*
X1147Y179D01*
X1154Y179D02*
X1161Y179D01*
X1188Y179D02*
X1195Y179D01*
X0Y178D02*
X7Y178D01*
X41Y178D02*
X74Y178D01*
X91Y178D02*
X124Y178D01*
X154Y178D02*
X162Y178D01*
X751Y178D02*
X758Y178D01*
X1034Y178D02*
X1040Y178D01*
X1061Y178D02*
X1067Y178D01*
X1084Y178D02*
X1090Y178D01*
X1105Y178D02*
X1118Y178D01*
X1141Y178D02*
X1147Y178D01*
X1154Y178D02*
X1161Y178D01*
X1188Y178D02*
X1195Y178D01*
X0Y177D02*
X7Y177D01*
X41Y177D02*
X74Y177D01*
X91Y177D02*
X125Y177D01*
X155Y177D02*
X161Y177D01*
X751Y177D02*
X758Y177D01*
X1034Y177D02*
X1041Y177D01*
X1060Y177D02*
X1067Y177D01*
X1084Y177D02*
X1090Y177D01*
X1106Y177D02*
X1118Y177D01*
X1141Y177D02*
X1147Y177D01*
X1153Y177D02*
X1160Y177D01*
X1188Y177D02*
X1195Y177D01*
X0Y176D02*
X7Y176D01*
X41Y176D02*
X74Y176D01*
X91Y176D02*
X125Y176D01*
X155Y176D02*
X161Y176D01*
X750Y176D02*
X757Y176D01*
X1034Y176D02*
X1043Y176D01*
X1058Y176D02*
X1067Y176D01*
X1084Y176D02*
X1090Y176D01*
X1106Y176D02*
X1118Y176D01*
X1141Y176D02*
X1147Y176D01*
X1151Y176D02*
X1160Y176D01*
X1188Y176D02*
X1195Y176D01*
X0Y175D02*
X7Y175D01*
X41Y175D02*
X74Y175D01*
X91Y175D02*
X124Y175D01*
X155Y175D02*
X161Y175D01*
X750Y175D02*
X757Y175D01*
X1035Y175D02*
X1066Y175D01*
X1084Y175D02*
X1090Y175D01*
X1107Y175D02*
X1118Y175D01*
X1135Y175D02*
X1159Y175D01*
X1188Y175D02*
X1195Y175D01*
X0Y174D02*
X7Y174D01*
X42Y174D02*
X73Y174D01*
X91Y174D02*
X123Y174D01*
X156Y174D02*
X160Y174D01*
X749Y174D02*
X756Y174D01*
X1035Y174D02*
X1066Y174D01*
X1084Y174D02*
X1090Y174D01*
X1107Y174D02*
X1118Y174D01*
X1135Y174D02*
X1159Y174D01*
X1188Y174D02*
X1195Y174D01*
X0Y173D02*
X7Y173D01*
X740Y173D02*
X756Y173D01*
X1036Y173D02*
X1065Y173D01*
X1084Y173D02*
X1090Y173D01*
X1108Y173D02*
X1118Y173D01*
X1134Y173D02*
X1158Y173D01*
X1188Y173D02*
X1195Y173D01*
X0Y172D02*
X7Y172D01*
X739Y172D02*
X755Y172D01*
X1037Y172D02*
X1064Y172D01*
X1084Y172D02*
X1090Y172D01*
X1108Y172D02*
X1118Y172D01*
X1134Y172D02*
X1157Y172D01*
X1188Y172D02*
X1195Y172D01*
X0Y171D02*
X7Y171D01*
X739Y171D02*
X755Y171D01*
X1038Y171D02*
X1063Y171D01*
X1084Y171D02*
X1090Y171D01*
X1108Y171D02*
X1118Y171D01*
X1135Y171D02*
X1156Y171D01*
X1188Y171D02*
X1195Y171D01*
X0Y170D02*
X7Y170D01*
X739Y170D02*
X755Y170D01*
X1040Y170D02*
X1062Y170D01*
X1085Y170D02*
X1089Y170D01*
X1109Y170D02*
X1118Y170D01*
X1135Y170D02*
X1154Y170D01*
X1188Y170D02*
X1195Y170D01*
X0Y169D02*
X7Y169D01*
X739Y169D02*
X754Y169D01*
X1043Y169D02*
X1058Y169D01*
X1087Y169D02*
X1087Y169D01*
X1109Y169D02*
X1117Y169D01*
X1137Y169D02*
X1151Y169D01*
X1188Y169D02*
X1195Y169D01*
X0Y168D02*
X7Y168D01*
X740Y168D02*
X754Y168D01*
X1188Y168D02*
X1195Y168D01*
X0Y167D02*
X7Y167D01*
X741Y167D02*
X752Y167D01*
X1188Y167D02*
X1195Y167D01*
X0Y166D02*
X7Y166D01*
X1188Y166D02*
X1195Y166D01*
X0Y165D02*
X7Y165D01*
X1188Y165D02*
X1195Y165D01*
X0Y164D02*
X7Y164D01*
X1188Y164D02*
X1195Y164D01*
X0Y163D02*
X7Y163D01*
X1188Y163D02*
X1195Y163D01*
X0Y162D02*
X7Y162D01*
X1188Y162D02*
X1195Y162D01*
X0Y161D02*
X7Y161D01*
X1188Y161D02*
X1195Y161D01*
X0Y160D02*
X7Y160D01*
X1188Y160D02*
X1195Y160D01*
X0Y159D02*
X7Y159D01*
X1188Y159D02*
X1195Y159D01*
X0Y158D02*
X7Y158D01*
X1188Y158D02*
X1195Y158D01*
X0Y157D02*
X7Y157D01*
X1188Y157D02*
X1195Y157D01*
X0Y156D02*
X7Y156D01*
X1188Y156D02*
X1195Y156D01*
X0Y155D02*
X7Y155D01*
X1188Y155D02*
X1195Y155D01*
X0Y154D02*
X7Y154D01*
X1188Y154D02*
X1195Y154D01*
X0Y153D02*
X7Y153D01*
X1188Y153D02*
X1195Y153D01*
X0Y152D02*
X7Y152D01*
X1188Y152D02*
X1195Y152D01*
X0Y151D02*
X7Y151D01*
X1188Y151D02*
X1195Y151D01*
X0Y150D02*
X7Y150D01*
X1188Y150D02*
X1195Y150D01*
X0Y149D02*
X7Y149D01*
X1082Y149D02*
X1083Y149D01*
X1188Y149D02*
X1195Y149D01*
X0Y148D02*
X7Y148D01*
X1081Y148D02*
X1084Y148D01*
X1188Y148D02*
X1195Y148D01*
X0Y147D02*
X7Y147D01*
X1080Y147D02*
X1085Y147D01*
X1188Y147D02*
X1195Y147D01*
X0Y146D02*
X7Y146D01*
X1079Y146D02*
X1085Y146D01*
X1188Y146D02*
X1195Y146D01*
X0Y145D02*
X7Y145D01*
X1078Y145D02*
X1084Y145D01*
X1188Y145D02*
X1195Y145D01*
X0Y144D02*
X7Y144D01*
X1077Y144D02*
X1083Y144D01*
X1188Y144D02*
X1195Y144D01*
X0Y143D02*
X7Y143D01*
X1076Y143D02*
X1082Y143D01*
X1188Y143D02*
X1195Y143D01*
X0Y142D02*
X7Y142D01*
X1075Y142D02*
X1081Y142D01*
X1188Y142D02*
X1195Y142D01*
X0Y141D02*
X7Y141D01*
X1074Y141D02*
X1080Y141D01*
X1188Y141D02*
X1195Y141D01*
X0Y140D02*
X7Y140D01*
X1073Y140D02*
X1079Y140D01*
X1188Y140D02*
X1195Y140D01*
X0Y139D02*
X7Y139D01*
X1072Y139D02*
X1078Y139D01*
X1188Y139D02*
X1195Y139D01*
X0Y138D02*
X7Y138D01*
X1071Y138D02*
X1077Y138D01*
X1188Y138D02*
X1195Y138D01*
X0Y137D02*
X7Y137D01*
X1070Y137D02*
X1076Y137D01*
X1188Y137D02*
X1195Y137D01*
X0Y136D02*
X7Y136D01*
X1069Y136D02*
X1075Y136D01*
X1188Y136D02*
X1195Y136D01*
X0Y135D02*
X7Y135D01*
X1068Y135D02*
X1074Y135D01*
X1188Y135D02*
X1195Y135D01*
X0Y134D02*
X7Y134D01*
X1067Y134D02*
X1073Y134D01*
X1188Y134D02*
X1195Y134D01*
X0Y133D02*
X7Y133D01*
X1066Y133D02*
X1071Y133D01*
X1188Y133D02*
X1195Y133D01*
X0Y132D02*
X7Y132D01*
X1065Y132D02*
X1070Y132D01*
X1188Y132D02*
X1195Y132D01*
X0Y131D02*
X7Y131D01*
X1064Y131D02*
X1069Y131D01*
X1188Y131D02*
X1195Y131D01*
X0Y130D02*
X7Y130D01*
X1063Y130D02*
X1068Y130D01*
X1188Y130D02*
X1195Y130D01*
X0Y129D02*
X7Y129D01*
X1062Y129D02*
X1067Y129D01*
X1188Y129D02*
X1195Y129D01*
X0Y128D02*
X7Y128D01*
X1061Y128D02*
X1066Y128D01*
X1188Y128D02*
X1195Y128D01*
X0Y127D02*
X7Y127D01*
X1060Y127D02*
X1065Y127D01*
X1188Y127D02*
X1195Y127D01*
X0Y126D02*
X7Y126D01*
X1059Y126D02*
X1064Y126D01*
X1188Y126D02*
X1195Y126D01*
X0Y125D02*
X7Y125D01*
X1058Y125D02*
X1064Y125D01*
X1188Y125D02*
X1195Y125D01*
X0Y124D02*
X7Y124D01*
X1057Y124D02*
X1063Y124D01*
X1188Y124D02*
X1195Y124D01*
X0Y123D02*
X7Y123D01*
X1056Y123D02*
X1062Y123D01*
X1188Y123D02*
X1195Y123D01*
X0Y122D02*
X7Y122D01*
X1055Y122D02*
X1061Y122D01*
X1188Y122D02*
X1195Y122D01*
X0Y121D02*
X7Y121D01*
X1054Y121D02*
X1060Y121D01*
X1188Y121D02*
X1195Y121D01*
X0Y120D02*
X7Y120D01*
X1053Y120D02*
X1059Y120D01*
X1188Y120D02*
X1195Y120D01*
X0Y119D02*
X7Y119D01*
X1052Y119D02*
X1058Y119D01*
X1188Y119D02*
X1195Y119D01*
X0Y118D02*
X7Y118D01*
X1051Y118D02*
X1057Y118D01*
X1188Y118D02*
X1195Y118D01*
X0Y117D02*
X7Y117D01*
X1050Y117D02*
X1056Y117D01*
X1188Y117D02*
X1195Y117D01*
X0Y116D02*
X7Y116D01*
X1049Y116D02*
X1055Y116D01*
X1188Y116D02*
X1195Y116D01*
X0Y115D02*
X7Y115D01*
X1048Y115D02*
X1054Y115D01*
X1188Y115D02*
X1195Y115D01*
X0Y114D02*
X7Y114D01*
X1049Y114D02*
X1053Y114D01*
X1188Y114D02*
X1195Y114D01*
X0Y113D02*
X7Y113D01*
X1050Y113D02*
X1052Y113D01*
X1188Y113D02*
X1195Y113D01*
X0Y112D02*
X7Y112D01*
X1188Y112D02*
X1195Y112D01*
X0Y111D02*
X7Y111D01*
X1188Y111D02*
X1195Y111D01*
X0Y110D02*
X7Y110D01*
X1188Y110D02*
X1195Y110D01*
X0Y109D02*
X7Y109D01*
X1188Y109D02*
X1195Y109D01*
X0Y108D02*
X7Y108D01*
X1188Y108D02*
X1195Y108D01*
X0Y107D02*
X7Y107D01*
X1188Y107D02*
X1195Y107D01*
X0Y106D02*
X7Y106D01*
X1188Y106D02*
X1195Y106D01*
X0Y105D02*
X7Y105D01*
X1188Y105D02*
X1195Y105D01*
X0Y104D02*
X7Y104D01*
X1188Y104D02*
X1195Y104D01*
X0Y103D02*
X7Y103D01*
X1188Y103D02*
X1195Y103D01*
X0Y102D02*
X7Y102D01*
X1188Y102D02*
X1195Y102D01*
X0Y101D02*
X7Y101D01*
X1188Y101D02*
X1195Y101D01*
X0Y100D02*
X7Y100D01*
X1188Y100D02*
X1195Y100D01*
X0Y99D02*
X7Y99D01*
X1188Y99D02*
X1195Y99D01*
X0Y98D02*
X7Y98D01*
X1188Y98D02*
X1195Y98D01*
X0Y97D02*
X7Y97D01*
X1188Y97D02*
X1195Y97D01*
X0Y96D02*
X7Y96D01*
X1188Y96D02*
X1195Y96D01*
X0Y95D02*
X7Y95D01*
X1188Y95D02*
X1195Y95D01*
X0Y94D02*
X7Y94D01*
X1188Y94D02*
X1195Y94D01*
X0Y93D02*
X7Y93D01*
X1188Y93D02*
X1195Y93D01*
X0Y92D02*
X7Y92D01*
X1188Y92D02*
X1195Y92D01*
X0Y91D02*
X7Y91D01*
X1188Y91D02*
X1195Y91D01*
X0Y90D02*
X7Y90D01*
X1188Y90D02*
X1195Y90D01*
X0Y89D02*
X7Y89D01*
X1188Y89D02*
X1195Y89D01*
X0Y88D02*
X7Y88D01*
X1188Y88D02*
X1195Y88D01*
X0Y87D02*
X7Y87D01*
X1188Y87D02*
X1195Y87D01*
X0Y86D02*
X7Y86D01*
X1188Y86D02*
X1195Y86D01*
X0Y85D02*
X7Y85D01*
X1188Y85D02*
X1195Y85D01*
X0Y84D02*
X7Y84D01*
X1188Y84D02*
X1195Y84D01*
X0Y83D02*
X7Y83D01*
X1188Y83D02*
X1195Y83D01*
X0Y82D02*
X7Y82D01*
X1188Y82D02*
X1195Y82D01*
X0Y81D02*
X7Y81D01*
X1188Y81D02*
X1195Y81D01*
X0Y80D02*
X7Y80D01*
X1188Y80D02*
X1195Y80D01*
X0Y79D02*
X7Y79D01*
X1188Y79D02*
X1195Y79D01*
X0Y78D02*
X7Y78D01*
X1188Y78D02*
X1195Y78D01*
X0Y77D02*
X7Y77D01*
X1188Y77D02*
X1195Y77D01*
X0Y76D02*
X7Y76D01*
X1188Y76D02*
X1195Y76D01*
X0Y75D02*
X7Y75D01*
X1188Y75D02*
X1195Y75D01*
X0Y74D02*
X7Y74D01*
X1188Y74D02*
X1195Y74D01*
X0Y73D02*
X7Y73D01*
X1188Y73D02*
X1195Y73D01*
X0Y72D02*
X7Y72D01*
X1188Y72D02*
X1195Y72D01*
X0Y71D02*
X7Y71D01*
X1188Y71D02*
X1195Y71D01*
X0Y70D02*
X7Y70D01*
X1188Y70D02*
X1195Y70D01*
X0Y69D02*
X7Y69D01*
X1188Y69D02*
X1195Y69D01*
X0Y68D02*
X7Y68D01*
X1188Y68D02*
X1195Y68D01*
X0Y67D02*
X7Y67D01*
X1188Y67D02*
X1195Y67D01*
X0Y66D02*
X7Y66D01*
X1188Y66D02*
X1195Y66D01*
X0Y65D02*
X7Y65D01*
X1188Y65D02*
X1195Y65D01*
X0Y64D02*
X7Y64D01*
X1188Y64D02*
X1195Y64D01*
X0Y63D02*
X7Y63D01*
X1188Y63D02*
X1195Y63D01*
X0Y62D02*
X7Y62D01*
X1188Y62D02*
X1195Y62D01*
X0Y61D02*
X7Y61D01*
X1188Y61D02*
X1195Y61D01*
X0Y60D02*
X7Y60D01*
X1188Y60D02*
X1195Y60D01*
X0Y59D02*
X7Y59D01*
X1188Y59D02*
X1195Y59D01*
X0Y58D02*
X7Y58D01*
X1188Y58D02*
X1195Y58D01*
X0Y57D02*
X7Y57D01*
X1188Y57D02*
X1195Y57D01*
X0Y56D02*
X7Y56D01*
X1188Y56D02*
X1195Y56D01*
X0Y55D02*
X7Y55D01*
X1188Y55D02*
X1195Y55D01*
X0Y54D02*
X7Y54D01*
X1188Y54D02*
X1195Y54D01*
X0Y53D02*
X7Y53D01*
X1188Y53D02*
X1195Y53D01*
X0Y52D02*
X7Y52D01*
X1188Y52D02*
X1195Y52D01*
X0Y51D02*
X7Y51D01*
X1188Y51D02*
X1195Y51D01*
X0Y50D02*
X7Y50D01*
X1188Y50D02*
X1195Y50D01*
X0Y49D02*
X7Y49D01*
X1188Y49D02*
X1195Y49D01*
X0Y48D02*
X7Y48D01*
X1188Y48D02*
X1195Y48D01*
X0Y47D02*
X7Y47D01*
X1188Y47D02*
X1195Y47D01*
X0Y46D02*
X7Y46D01*
X1188Y46D02*
X1195Y46D01*
X0Y45D02*
X7Y45D01*
X1188Y45D02*
X1195Y45D01*
X0Y44D02*
X7Y44D01*
X1188Y44D02*
X1195Y44D01*
X0Y43D02*
X7Y43D01*
X1188Y43D02*
X1195Y43D01*
X0Y42D02*
X7Y42D01*
X1188Y42D02*
X1195Y42D01*
X0Y41D02*
X7Y41D01*
X1188Y41D02*
X1195Y41D01*
X0Y40D02*
X7Y40D01*
X1188Y40D02*
X1195Y40D01*
X0Y39D02*
X7Y39D01*
X1188Y39D02*
X1195Y39D01*
X0Y38D02*
X7Y38D01*
X1188Y38D02*
X1195Y38D01*
X0Y37D02*
X7Y37D01*
X1188Y37D02*
X1195Y37D01*
X0Y36D02*
X7Y36D01*
X1188Y36D02*
X1195Y36D01*
X0Y35D02*
X7Y35D01*
X1188Y35D02*
X1195Y35D01*
X0Y34D02*
X7Y34D01*
X1188Y34D02*
X1195Y34D01*
X0Y33D02*
X7Y33D01*
X1188Y33D02*
X1195Y33D01*
X0Y32D02*
X7Y32D01*
X1188Y32D02*
X1195Y32D01*
X0Y31D02*
X7Y31D01*
X1188Y31D02*
X1195Y31D01*
X0Y30D02*
X7Y30D01*
X1188Y30D02*
X1195Y30D01*
X0Y29D02*
X7Y29D01*
X1188Y29D02*
X1195Y29D01*
X0Y28D02*
X7Y28D01*
X1188Y28D02*
X1195Y28D01*
X0Y27D02*
X7Y27D01*
X1188Y27D02*
X1195Y27D01*
X0Y26D02*
X7Y26D01*
X1188Y26D02*
X1195Y26D01*
X0Y25D02*
X7Y25D01*
X1188Y25D02*
X1195Y25D01*
X0Y24D02*
X7Y24D01*
X1188Y24D02*
X1195Y24D01*
X0Y23D02*
X7Y23D01*
X1188Y23D02*
X1195Y23D01*
X0Y22D02*
X7Y22D01*
X1188Y22D02*
X1195Y22D01*
X0Y21D02*
X7Y21D01*
X1188Y21D02*
X1195Y21D01*
X0Y20D02*
X7Y20D01*
X1188Y20D02*
X1195Y20D01*
X0Y19D02*
X7Y19D01*
X1188Y19D02*
X1195Y19D01*
X0Y18D02*
X7Y18D01*
X1188Y18D02*
X1195Y18D01*
X0Y17D02*
X7Y17D01*
X1188Y17D02*
X1195Y17D01*
X0Y16D02*
X7Y16D01*
X1188Y16D02*
X1195Y16D01*
X0Y15D02*
X7Y15D01*
X1188Y15D02*
X1195Y15D01*
X0Y14D02*
X7Y14D01*
X1188Y14D02*
X1195Y14D01*
X0Y13D02*
X7Y13D01*
X1188Y13D02*
X1195Y13D01*
X0Y12D02*
X7Y12D01*
X1188Y12D02*
X1195Y12D01*
X0Y11D02*
X7Y11D01*
X1188Y11D02*
X1195Y11D01*
X0Y10D02*
X7Y10D01*
X1188Y10D02*
X1195Y10D01*
X0Y9D02*
X7Y9D01*
X1188Y9D02*
X1195Y9D01*
X0Y8D02*
X1195Y8D01*
X0Y7D02*
X1195Y7D01*
X0Y6D02*
X1195Y6D01*
X0Y5D02*
X1195Y5D01*
X0Y4D02*
X1195Y4D01*
X0Y3D02*
X1195Y3D01*
X0Y2D02*
X1195Y2D01*
X0Y1D02*
X1195Y1D01*
D02*
G04 End of Silk1*
M02*