G04 MADE WITH FRITZING*
G04 WWW.FRITZING.ORG*
G04 DOUBLE SIDED*
G04 HOLES PLATED*
G04 CONTOUR ON CENTER OF CONTOUR VECTOR*
%ASAXBY*%
%FSLAX23Y23*%
%MOIN*%
%OFA0B0*%
%SFA1.0B1.0*%
%ADD10C,0.075000*%
%ADD11C,0.082000*%
%ADD12C,0.078000*%
%ADD13C,0.075433*%
%ADD14R,0.075000X0.075000*%
%ADD15R,0.082000X0.082000*%
%ADD16C,0.024000*%
%LNCOPPER0*%
G90*
G70*
G54D10*
X119Y1001D03*
X1000Y598D03*
X1000Y798D03*
X1000Y998D03*
X300Y398D03*
X300Y498D03*
X300Y598D03*
X600Y998D03*
X600Y898D03*
X600Y798D03*
X200Y898D03*
X500Y898D03*
G54D11*
X800Y698D03*
X800Y996D03*
G54D10*
X700Y498D03*
X700Y398D03*
X600Y698D03*
X600Y598D03*
G54D12*
X100Y98D03*
X100Y698D03*
X100Y798D03*
X100Y598D03*
X1100Y98D03*
X600Y298D03*
X700Y298D03*
G54D13*
X1000Y398D03*
X300Y698D03*
G54D14*
X1000Y398D03*
X300Y698D03*
G54D15*
X800Y697D03*
G54D14*
X700Y498D03*
X600Y698D03*
G54D16*
X700Y198D02*
X801Y198D01*
D02*
X801Y198D02*
X971Y369D01*
D02*
X622Y277D02*
X700Y198D01*
D02*
X901Y897D02*
X980Y978D01*
D02*
X901Y498D02*
X901Y897D01*
D02*
X722Y319D02*
X901Y498D01*
G36*
X40Y1058D02*
X40Y946D01*
X504Y946D01*
X504Y944D01*
X514Y944D01*
X514Y942D01*
X520Y942D01*
X520Y940D01*
X524Y940D01*
X524Y938D01*
X526Y938D01*
X526Y936D01*
X530Y936D01*
X530Y934D01*
X532Y934D01*
X532Y932D01*
X534Y932D01*
X534Y930D01*
X536Y930D01*
X536Y928D01*
X538Y928D01*
X538Y926D01*
X540Y926D01*
X540Y922D01*
X560Y922D01*
X560Y924D01*
X562Y924D01*
X562Y926D01*
X564Y926D01*
X564Y928D01*
X566Y928D01*
X566Y932D01*
X570Y932D01*
X570Y934D01*
X572Y934D01*
X572Y936D01*
X574Y936D01*
X574Y938D01*
X576Y938D01*
X576Y958D01*
X574Y958D01*
X574Y960D01*
X570Y960D01*
X570Y962D01*
X568Y962D01*
X568Y964D01*
X566Y964D01*
X566Y966D01*
X564Y966D01*
X564Y968D01*
X562Y968D01*
X562Y972D01*
X560Y972D01*
X560Y976D01*
X558Y976D01*
X558Y978D01*
X556Y978D01*
X556Y984D01*
X554Y984D01*
X554Y1010D01*
X556Y1010D01*
X556Y1016D01*
X558Y1016D01*
X558Y1020D01*
X560Y1020D01*
X560Y1024D01*
X562Y1024D01*
X562Y1026D01*
X564Y1026D01*
X564Y1028D01*
X566Y1028D01*
X566Y1032D01*
X570Y1032D01*
X570Y1034D01*
X572Y1034D01*
X572Y1036D01*
X574Y1036D01*
X574Y1038D01*
X578Y1038D01*
X578Y1058D01*
X40Y1058D01*
G37*
D02*
G36*
X624Y1058D02*
X624Y1038D01*
X626Y1038D01*
X626Y1036D01*
X630Y1036D01*
X630Y1034D01*
X632Y1034D01*
X632Y1032D01*
X634Y1032D01*
X634Y1030D01*
X636Y1030D01*
X636Y1028D01*
X638Y1028D01*
X638Y1026D01*
X640Y1026D01*
X640Y1022D01*
X642Y1022D01*
X642Y1018D01*
X644Y1018D01*
X644Y1014D01*
X646Y1014D01*
X646Y1006D01*
X648Y1006D01*
X648Y988D01*
X646Y988D01*
X646Y982D01*
X644Y982D01*
X644Y976D01*
X642Y976D01*
X642Y974D01*
X640Y974D01*
X640Y970D01*
X638Y970D01*
X638Y968D01*
X636Y968D01*
X636Y966D01*
X634Y966D01*
X634Y964D01*
X632Y964D01*
X632Y962D01*
X630Y962D01*
X630Y960D01*
X628Y960D01*
X628Y958D01*
X624Y958D01*
X624Y944D01*
X796Y944D01*
X796Y946D01*
X786Y946D01*
X786Y948D01*
X780Y948D01*
X780Y950D01*
X776Y950D01*
X776Y952D01*
X772Y952D01*
X772Y954D01*
X770Y954D01*
X770Y956D01*
X768Y956D01*
X768Y958D01*
X766Y958D01*
X766Y960D01*
X764Y960D01*
X764Y962D01*
X762Y962D01*
X762Y964D01*
X760Y964D01*
X760Y966D01*
X758Y966D01*
X758Y970D01*
X756Y970D01*
X756Y974D01*
X754Y974D01*
X754Y978D01*
X752Y978D01*
X752Y984D01*
X750Y984D01*
X750Y1008D01*
X752Y1008D01*
X752Y1014D01*
X754Y1014D01*
X754Y1018D01*
X756Y1018D01*
X756Y1022D01*
X758Y1022D01*
X758Y1026D01*
X760Y1026D01*
X760Y1028D01*
X762Y1028D01*
X762Y1030D01*
X764Y1030D01*
X764Y1032D01*
X766Y1032D01*
X766Y1034D01*
X768Y1034D01*
X768Y1036D01*
X770Y1036D01*
X770Y1038D01*
X774Y1038D01*
X774Y1058D01*
X624Y1058D01*
G37*
D02*
G36*
X826Y1058D02*
X826Y1038D01*
X830Y1038D01*
X830Y1036D01*
X832Y1036D01*
X832Y1034D01*
X834Y1034D01*
X834Y1032D01*
X838Y1032D01*
X838Y1028D01*
X840Y1028D01*
X840Y1026D01*
X842Y1026D01*
X842Y1024D01*
X844Y1024D01*
X844Y1020D01*
X846Y1020D01*
X846Y1016D01*
X848Y1016D01*
X848Y1012D01*
X850Y1012D01*
X850Y1002D01*
X852Y1002D01*
X852Y990D01*
X850Y990D01*
X850Y980D01*
X848Y980D01*
X848Y976D01*
X846Y976D01*
X846Y972D01*
X844Y972D01*
X844Y968D01*
X842Y968D01*
X842Y966D01*
X840Y966D01*
X840Y962D01*
X838Y962D01*
X838Y960D01*
X836Y960D01*
X836Y958D01*
X834Y958D01*
X834Y956D01*
X830Y956D01*
X830Y954D01*
X828Y954D01*
X828Y952D01*
X824Y952D01*
X824Y950D01*
X820Y950D01*
X820Y948D01*
X816Y948D01*
X816Y946D01*
X806Y946D01*
X806Y944D01*
X918Y944D01*
X918Y946D01*
X920Y946D01*
X920Y948D01*
X922Y948D01*
X922Y950D01*
X924Y950D01*
X924Y952D01*
X926Y952D01*
X926Y954D01*
X928Y954D01*
X928Y956D01*
X930Y956D01*
X930Y958D01*
X932Y958D01*
X932Y960D01*
X934Y960D01*
X934Y962D01*
X936Y962D01*
X936Y964D01*
X938Y964D01*
X938Y966D01*
X940Y966D01*
X940Y968D01*
X942Y968D01*
X942Y970D01*
X944Y970D01*
X944Y972D01*
X946Y972D01*
X946Y974D01*
X948Y974D01*
X948Y978D01*
X950Y978D01*
X950Y980D01*
X952Y980D01*
X952Y982D01*
X954Y982D01*
X954Y1010D01*
X956Y1010D01*
X956Y1016D01*
X958Y1016D01*
X958Y1020D01*
X960Y1020D01*
X960Y1024D01*
X962Y1024D01*
X962Y1026D01*
X964Y1026D01*
X964Y1028D01*
X966Y1028D01*
X966Y1032D01*
X970Y1032D01*
X970Y1034D01*
X972Y1034D01*
X972Y1036D01*
X974Y1036D01*
X974Y1038D01*
X978Y1038D01*
X978Y1058D01*
X826Y1058D01*
G37*
D02*
G36*
X1024Y1058D02*
X1024Y1038D01*
X1026Y1038D01*
X1026Y1036D01*
X1030Y1036D01*
X1030Y1034D01*
X1032Y1034D01*
X1032Y1032D01*
X1034Y1032D01*
X1034Y1030D01*
X1036Y1030D01*
X1036Y1028D01*
X1038Y1028D01*
X1038Y1026D01*
X1040Y1026D01*
X1040Y1022D01*
X1042Y1022D01*
X1042Y1018D01*
X1044Y1018D01*
X1044Y1014D01*
X1046Y1014D01*
X1046Y1006D01*
X1048Y1006D01*
X1048Y988D01*
X1046Y988D01*
X1046Y982D01*
X1044Y982D01*
X1044Y976D01*
X1042Y976D01*
X1042Y974D01*
X1040Y974D01*
X1040Y970D01*
X1038Y970D01*
X1038Y968D01*
X1036Y968D01*
X1036Y966D01*
X1034Y966D01*
X1034Y964D01*
X1032Y964D01*
X1032Y962D01*
X1030Y962D01*
X1030Y960D01*
X1028Y960D01*
X1028Y958D01*
X1024Y958D01*
X1024Y956D01*
X1020Y956D01*
X1020Y954D01*
X1016Y954D01*
X1016Y952D01*
X1008Y952D01*
X1008Y950D01*
X984Y950D01*
X984Y948D01*
X982Y948D01*
X982Y946D01*
X980Y946D01*
X980Y944D01*
X978Y944D01*
X978Y942D01*
X976Y942D01*
X976Y940D01*
X974Y940D01*
X974Y938D01*
X972Y938D01*
X972Y936D01*
X970Y936D01*
X970Y934D01*
X968Y934D01*
X968Y932D01*
X966Y932D01*
X966Y930D01*
X964Y930D01*
X964Y928D01*
X962Y928D01*
X962Y926D01*
X960Y926D01*
X960Y924D01*
X958Y924D01*
X958Y922D01*
X956Y922D01*
X956Y920D01*
X954Y920D01*
X954Y918D01*
X952Y918D01*
X952Y916D01*
X950Y916D01*
X950Y914D01*
X948Y914D01*
X948Y912D01*
X946Y912D01*
X946Y910D01*
X944Y910D01*
X944Y908D01*
X942Y908D01*
X942Y906D01*
X940Y906D01*
X940Y904D01*
X938Y904D01*
X938Y902D01*
X936Y902D01*
X936Y900D01*
X934Y900D01*
X934Y898D01*
X932Y898D01*
X932Y896D01*
X930Y896D01*
X930Y894D01*
X928Y894D01*
X928Y892D01*
X926Y892D01*
X926Y890D01*
X924Y890D01*
X924Y888D01*
X922Y888D01*
X922Y846D01*
X1004Y846D01*
X1004Y844D01*
X1014Y844D01*
X1014Y842D01*
X1020Y842D01*
X1020Y840D01*
X1024Y840D01*
X1024Y838D01*
X1026Y838D01*
X1026Y836D01*
X1030Y836D01*
X1030Y834D01*
X1032Y834D01*
X1032Y832D01*
X1034Y832D01*
X1034Y830D01*
X1036Y830D01*
X1036Y828D01*
X1038Y828D01*
X1038Y826D01*
X1040Y826D01*
X1040Y822D01*
X1042Y822D01*
X1042Y818D01*
X1044Y818D01*
X1044Y814D01*
X1046Y814D01*
X1046Y806D01*
X1048Y806D01*
X1048Y788D01*
X1046Y788D01*
X1046Y782D01*
X1044Y782D01*
X1044Y776D01*
X1042Y776D01*
X1042Y774D01*
X1040Y774D01*
X1040Y770D01*
X1038Y770D01*
X1038Y768D01*
X1036Y768D01*
X1036Y766D01*
X1034Y766D01*
X1034Y764D01*
X1032Y764D01*
X1032Y762D01*
X1030Y762D01*
X1030Y760D01*
X1028Y760D01*
X1028Y758D01*
X1024Y758D01*
X1024Y756D01*
X1020Y756D01*
X1020Y754D01*
X1016Y754D01*
X1016Y752D01*
X1008Y752D01*
X1008Y750D01*
X1156Y750D01*
X1156Y1058D01*
X1024Y1058D01*
G37*
D02*
G36*
X40Y946D02*
X40Y850D01*
X192Y850D01*
X192Y852D01*
X186Y852D01*
X186Y854D01*
X180Y854D01*
X180Y856D01*
X176Y856D01*
X176Y858D01*
X174Y858D01*
X174Y860D01*
X170Y860D01*
X170Y862D01*
X168Y862D01*
X168Y864D01*
X166Y864D01*
X166Y866D01*
X164Y866D01*
X164Y868D01*
X162Y868D01*
X162Y872D01*
X160Y872D01*
X160Y876D01*
X158Y876D01*
X158Y878D01*
X156Y878D01*
X156Y884D01*
X154Y884D01*
X154Y910D01*
X156Y910D01*
X156Y916D01*
X158Y916D01*
X158Y920D01*
X160Y920D01*
X160Y924D01*
X162Y924D01*
X162Y926D01*
X164Y926D01*
X164Y928D01*
X166Y928D01*
X166Y932D01*
X170Y932D01*
X170Y934D01*
X172Y934D01*
X172Y936D01*
X174Y936D01*
X174Y938D01*
X178Y938D01*
X178Y940D01*
X182Y940D01*
X182Y942D01*
X188Y942D01*
X188Y944D01*
X198Y944D01*
X198Y946D01*
X40Y946D01*
G37*
D02*
G36*
X204Y946D02*
X204Y944D01*
X214Y944D01*
X214Y942D01*
X220Y942D01*
X220Y940D01*
X224Y940D01*
X224Y938D01*
X226Y938D01*
X226Y936D01*
X230Y936D01*
X230Y934D01*
X232Y934D01*
X232Y932D01*
X234Y932D01*
X234Y930D01*
X236Y930D01*
X236Y928D01*
X238Y928D01*
X238Y926D01*
X240Y926D01*
X240Y922D01*
X242Y922D01*
X242Y918D01*
X244Y918D01*
X244Y914D01*
X246Y914D01*
X246Y906D01*
X248Y906D01*
X248Y888D01*
X246Y888D01*
X246Y882D01*
X244Y882D01*
X244Y876D01*
X242Y876D01*
X242Y874D01*
X240Y874D01*
X240Y870D01*
X238Y870D01*
X238Y868D01*
X236Y868D01*
X236Y866D01*
X234Y866D01*
X234Y864D01*
X232Y864D01*
X232Y862D01*
X230Y862D01*
X230Y860D01*
X228Y860D01*
X228Y858D01*
X224Y858D01*
X224Y856D01*
X220Y856D01*
X220Y854D01*
X216Y854D01*
X216Y852D01*
X208Y852D01*
X208Y850D01*
X492Y850D01*
X492Y852D01*
X486Y852D01*
X486Y854D01*
X480Y854D01*
X480Y856D01*
X476Y856D01*
X476Y858D01*
X474Y858D01*
X474Y860D01*
X470Y860D01*
X470Y862D01*
X468Y862D01*
X468Y864D01*
X466Y864D01*
X466Y866D01*
X464Y866D01*
X464Y868D01*
X462Y868D01*
X462Y872D01*
X460Y872D01*
X460Y876D01*
X458Y876D01*
X458Y878D01*
X456Y878D01*
X456Y884D01*
X454Y884D01*
X454Y910D01*
X456Y910D01*
X456Y916D01*
X458Y916D01*
X458Y920D01*
X460Y920D01*
X460Y924D01*
X462Y924D01*
X462Y926D01*
X464Y926D01*
X464Y928D01*
X466Y928D01*
X466Y932D01*
X470Y932D01*
X470Y934D01*
X472Y934D01*
X472Y936D01*
X474Y936D01*
X474Y938D01*
X478Y938D01*
X478Y940D01*
X482Y940D01*
X482Y942D01*
X488Y942D01*
X488Y944D01*
X498Y944D01*
X498Y946D01*
X204Y946D01*
G37*
D02*
G36*
X624Y944D02*
X624Y942D01*
X916Y942D01*
X916Y944D01*
X624Y944D01*
G37*
D02*
G36*
X624Y944D02*
X624Y942D01*
X916Y942D01*
X916Y944D01*
X624Y944D01*
G37*
D02*
G36*
X624Y942D02*
X624Y938D01*
X626Y938D01*
X626Y936D01*
X630Y936D01*
X630Y934D01*
X632Y934D01*
X632Y932D01*
X634Y932D01*
X634Y930D01*
X636Y930D01*
X636Y928D01*
X638Y928D01*
X638Y926D01*
X640Y926D01*
X640Y922D01*
X642Y922D01*
X642Y918D01*
X644Y918D01*
X644Y914D01*
X646Y914D01*
X646Y906D01*
X648Y906D01*
X648Y888D01*
X646Y888D01*
X646Y882D01*
X644Y882D01*
X644Y876D01*
X642Y876D01*
X642Y874D01*
X640Y874D01*
X640Y870D01*
X638Y870D01*
X638Y868D01*
X636Y868D01*
X636Y866D01*
X634Y866D01*
X634Y864D01*
X632Y864D01*
X632Y862D01*
X630Y862D01*
X630Y860D01*
X628Y860D01*
X628Y858D01*
X624Y858D01*
X624Y838D01*
X626Y838D01*
X626Y836D01*
X630Y836D01*
X630Y834D01*
X632Y834D01*
X632Y832D01*
X634Y832D01*
X634Y830D01*
X636Y830D01*
X636Y828D01*
X638Y828D01*
X638Y826D01*
X640Y826D01*
X640Y822D01*
X642Y822D01*
X642Y818D01*
X644Y818D01*
X644Y814D01*
X646Y814D01*
X646Y806D01*
X648Y806D01*
X648Y788D01*
X646Y788D01*
X646Y782D01*
X644Y782D01*
X644Y776D01*
X642Y776D01*
X642Y774D01*
X640Y774D01*
X640Y770D01*
X638Y770D01*
X638Y768D01*
X636Y768D01*
X636Y766D01*
X634Y766D01*
X634Y748D01*
X852Y748D01*
X852Y646D01*
X878Y646D01*
X878Y900D01*
X880Y900D01*
X880Y906D01*
X882Y906D01*
X882Y910D01*
X884Y910D01*
X884Y912D01*
X886Y912D01*
X886Y914D01*
X888Y914D01*
X888Y916D01*
X890Y916D01*
X890Y918D01*
X892Y918D01*
X892Y920D01*
X894Y920D01*
X894Y922D01*
X896Y922D01*
X896Y924D01*
X898Y924D01*
X898Y926D01*
X900Y926D01*
X900Y928D01*
X902Y928D01*
X902Y930D01*
X904Y930D01*
X904Y932D01*
X906Y932D01*
X906Y934D01*
X908Y934D01*
X908Y936D01*
X910Y936D01*
X910Y938D01*
X912Y938D01*
X912Y940D01*
X914Y940D01*
X914Y942D01*
X624Y942D01*
G37*
D02*
G36*
X540Y874D02*
X540Y870D01*
X538Y870D01*
X538Y868D01*
X536Y868D01*
X536Y866D01*
X534Y866D01*
X534Y864D01*
X532Y864D01*
X532Y862D01*
X530Y862D01*
X530Y860D01*
X528Y860D01*
X528Y858D01*
X524Y858D01*
X524Y856D01*
X520Y856D01*
X520Y854D01*
X516Y854D01*
X516Y852D01*
X508Y852D01*
X508Y850D01*
X576Y850D01*
X576Y858D01*
X574Y858D01*
X574Y860D01*
X570Y860D01*
X570Y862D01*
X568Y862D01*
X568Y864D01*
X566Y864D01*
X566Y866D01*
X564Y866D01*
X564Y868D01*
X562Y868D01*
X562Y872D01*
X560Y872D01*
X560Y874D01*
X540Y874D01*
G37*
D02*
G36*
X40Y850D02*
X40Y848D01*
X576Y848D01*
X576Y850D01*
X40Y850D01*
G37*
D02*
G36*
X40Y850D02*
X40Y848D01*
X576Y848D01*
X576Y850D01*
X40Y850D01*
G37*
D02*
G36*
X40Y850D02*
X40Y848D01*
X576Y848D01*
X576Y850D01*
X40Y850D01*
G37*
D02*
G36*
X40Y848D02*
X40Y846D01*
X112Y846D01*
X112Y844D01*
X118Y844D01*
X118Y842D01*
X122Y842D01*
X122Y840D01*
X126Y840D01*
X126Y838D01*
X130Y838D01*
X130Y836D01*
X132Y836D01*
X132Y834D01*
X134Y834D01*
X134Y832D01*
X136Y832D01*
X136Y830D01*
X138Y830D01*
X138Y828D01*
X140Y828D01*
X140Y824D01*
X142Y824D01*
X142Y822D01*
X144Y822D01*
X144Y818D01*
X146Y818D01*
X146Y812D01*
X148Y812D01*
X148Y804D01*
X150Y804D01*
X150Y792D01*
X148Y792D01*
X148Y784D01*
X146Y784D01*
X146Y778D01*
X144Y778D01*
X144Y774D01*
X142Y774D01*
X142Y770D01*
X140Y770D01*
X140Y768D01*
X138Y768D01*
X138Y766D01*
X136Y766D01*
X136Y764D01*
X134Y764D01*
X134Y762D01*
X132Y762D01*
X132Y760D01*
X130Y760D01*
X130Y758D01*
X128Y758D01*
X128Y746D01*
X348Y746D01*
X348Y650D01*
X334Y650D01*
X334Y630D01*
X336Y630D01*
X336Y628D01*
X338Y628D01*
X338Y626D01*
X340Y626D01*
X340Y622D01*
X342Y622D01*
X342Y618D01*
X344Y618D01*
X344Y614D01*
X346Y614D01*
X346Y606D01*
X348Y606D01*
X348Y588D01*
X346Y588D01*
X346Y582D01*
X344Y582D01*
X344Y576D01*
X342Y576D01*
X342Y574D01*
X340Y574D01*
X340Y570D01*
X338Y570D01*
X338Y568D01*
X336Y568D01*
X336Y566D01*
X334Y566D01*
X334Y564D01*
X332Y564D01*
X332Y562D01*
X330Y562D01*
X330Y560D01*
X328Y560D01*
X328Y558D01*
X324Y558D01*
X324Y550D01*
X592Y550D01*
X592Y552D01*
X586Y552D01*
X586Y554D01*
X580Y554D01*
X580Y556D01*
X576Y556D01*
X576Y558D01*
X574Y558D01*
X574Y560D01*
X570Y560D01*
X570Y562D01*
X568Y562D01*
X568Y564D01*
X566Y564D01*
X566Y566D01*
X564Y566D01*
X564Y568D01*
X562Y568D01*
X562Y572D01*
X560Y572D01*
X560Y576D01*
X558Y576D01*
X558Y578D01*
X556Y578D01*
X556Y584D01*
X554Y584D01*
X554Y610D01*
X556Y610D01*
X556Y616D01*
X558Y616D01*
X558Y620D01*
X560Y620D01*
X560Y624D01*
X562Y624D01*
X562Y626D01*
X564Y626D01*
X564Y628D01*
X566Y628D01*
X566Y650D01*
X554Y650D01*
X554Y652D01*
X552Y652D01*
X552Y744D01*
X554Y744D01*
X554Y746D01*
X566Y746D01*
X566Y766D01*
X564Y766D01*
X564Y768D01*
X562Y768D01*
X562Y772D01*
X560Y772D01*
X560Y776D01*
X558Y776D01*
X558Y778D01*
X556Y778D01*
X556Y784D01*
X554Y784D01*
X554Y810D01*
X556Y810D01*
X556Y816D01*
X558Y816D01*
X558Y820D01*
X560Y820D01*
X560Y824D01*
X562Y824D01*
X562Y826D01*
X564Y826D01*
X564Y828D01*
X566Y828D01*
X566Y832D01*
X570Y832D01*
X570Y834D01*
X572Y834D01*
X572Y836D01*
X574Y836D01*
X574Y838D01*
X576Y838D01*
X576Y848D01*
X40Y848D01*
G37*
D02*
G36*
X40Y846D02*
X40Y824D01*
X60Y824D01*
X60Y826D01*
X62Y826D01*
X62Y828D01*
X64Y828D01*
X64Y832D01*
X66Y832D01*
X66Y834D01*
X70Y834D01*
X70Y836D01*
X72Y836D01*
X72Y838D01*
X74Y838D01*
X74Y840D01*
X78Y840D01*
X78Y842D01*
X82Y842D01*
X82Y844D01*
X88Y844D01*
X88Y846D01*
X40Y846D01*
G37*
D02*
G36*
X922Y846D02*
X922Y750D01*
X992Y750D01*
X992Y752D01*
X986Y752D01*
X986Y754D01*
X980Y754D01*
X980Y756D01*
X976Y756D01*
X976Y758D01*
X974Y758D01*
X974Y760D01*
X970Y760D01*
X970Y762D01*
X968Y762D01*
X968Y764D01*
X966Y764D01*
X966Y766D01*
X964Y766D01*
X964Y768D01*
X962Y768D01*
X962Y772D01*
X960Y772D01*
X960Y776D01*
X958Y776D01*
X958Y778D01*
X956Y778D01*
X956Y784D01*
X954Y784D01*
X954Y810D01*
X956Y810D01*
X956Y816D01*
X958Y816D01*
X958Y820D01*
X960Y820D01*
X960Y824D01*
X962Y824D01*
X962Y826D01*
X964Y826D01*
X964Y828D01*
X966Y828D01*
X966Y832D01*
X970Y832D01*
X970Y834D01*
X972Y834D01*
X972Y836D01*
X974Y836D01*
X974Y838D01*
X978Y838D01*
X978Y840D01*
X982Y840D01*
X982Y842D01*
X988Y842D01*
X988Y844D01*
X998Y844D01*
X998Y846D01*
X922Y846D01*
G37*
D02*
G36*
X922Y750D02*
X922Y748D01*
X1156Y748D01*
X1156Y750D01*
X922Y750D01*
G37*
D02*
G36*
X922Y750D02*
X922Y748D01*
X1156Y748D01*
X1156Y750D01*
X922Y750D01*
G37*
D02*
G36*
X634Y748D02*
X634Y746D01*
X648Y746D01*
X648Y650D01*
X634Y650D01*
X634Y646D01*
X750Y646D01*
X750Y748D01*
X634Y748D01*
G37*
D02*
G36*
X922Y748D02*
X922Y646D01*
X1004Y646D01*
X1004Y644D01*
X1014Y644D01*
X1014Y642D01*
X1020Y642D01*
X1020Y640D01*
X1024Y640D01*
X1024Y638D01*
X1026Y638D01*
X1026Y636D01*
X1030Y636D01*
X1030Y634D01*
X1032Y634D01*
X1032Y632D01*
X1034Y632D01*
X1034Y630D01*
X1036Y630D01*
X1036Y628D01*
X1038Y628D01*
X1038Y626D01*
X1040Y626D01*
X1040Y622D01*
X1042Y622D01*
X1042Y618D01*
X1044Y618D01*
X1044Y614D01*
X1046Y614D01*
X1046Y606D01*
X1048Y606D01*
X1048Y588D01*
X1046Y588D01*
X1046Y582D01*
X1044Y582D01*
X1044Y576D01*
X1042Y576D01*
X1042Y574D01*
X1040Y574D01*
X1040Y570D01*
X1038Y570D01*
X1038Y568D01*
X1036Y568D01*
X1036Y566D01*
X1034Y566D01*
X1034Y564D01*
X1032Y564D01*
X1032Y562D01*
X1030Y562D01*
X1030Y560D01*
X1028Y560D01*
X1028Y558D01*
X1024Y558D01*
X1024Y556D01*
X1020Y556D01*
X1020Y554D01*
X1016Y554D01*
X1016Y552D01*
X1008Y552D01*
X1008Y550D01*
X1156Y550D01*
X1156Y748D01*
X922Y748D01*
G37*
D02*
G36*
X128Y746D02*
X128Y738D01*
X130Y738D01*
X130Y736D01*
X132Y736D01*
X132Y734D01*
X134Y734D01*
X134Y732D01*
X136Y732D01*
X136Y730D01*
X138Y730D01*
X138Y728D01*
X140Y728D01*
X140Y724D01*
X142Y724D01*
X142Y722D01*
X144Y722D01*
X144Y718D01*
X146Y718D01*
X146Y712D01*
X148Y712D01*
X148Y704D01*
X150Y704D01*
X150Y692D01*
X148Y692D01*
X148Y684D01*
X146Y684D01*
X146Y678D01*
X144Y678D01*
X144Y674D01*
X142Y674D01*
X142Y670D01*
X140Y670D01*
X140Y668D01*
X138Y668D01*
X138Y666D01*
X136Y666D01*
X136Y664D01*
X134Y664D01*
X134Y662D01*
X132Y662D01*
X132Y660D01*
X130Y660D01*
X130Y658D01*
X128Y658D01*
X128Y638D01*
X130Y638D01*
X130Y636D01*
X132Y636D01*
X132Y634D01*
X134Y634D01*
X134Y632D01*
X136Y632D01*
X136Y630D01*
X138Y630D01*
X138Y628D01*
X140Y628D01*
X140Y624D01*
X142Y624D01*
X142Y622D01*
X144Y622D01*
X144Y618D01*
X146Y618D01*
X146Y612D01*
X148Y612D01*
X148Y604D01*
X150Y604D01*
X150Y592D01*
X148Y592D01*
X148Y584D01*
X146Y584D01*
X146Y578D01*
X144Y578D01*
X144Y574D01*
X142Y574D01*
X142Y570D01*
X140Y570D01*
X140Y568D01*
X138Y568D01*
X138Y566D01*
X136Y566D01*
X136Y564D01*
X134Y564D01*
X134Y562D01*
X132Y562D01*
X132Y560D01*
X130Y560D01*
X130Y558D01*
X128Y558D01*
X128Y556D01*
X124Y556D01*
X124Y554D01*
X120Y554D01*
X120Y552D01*
X114Y552D01*
X114Y550D01*
X106Y550D01*
X106Y548D01*
X276Y548D01*
X276Y558D01*
X274Y558D01*
X274Y560D01*
X270Y560D01*
X270Y562D01*
X268Y562D01*
X268Y564D01*
X266Y564D01*
X266Y566D01*
X264Y566D01*
X264Y568D01*
X262Y568D01*
X262Y572D01*
X260Y572D01*
X260Y576D01*
X258Y576D01*
X258Y578D01*
X256Y578D01*
X256Y584D01*
X254Y584D01*
X254Y610D01*
X256Y610D01*
X256Y616D01*
X258Y616D01*
X258Y620D01*
X260Y620D01*
X260Y624D01*
X262Y624D01*
X262Y626D01*
X264Y626D01*
X264Y628D01*
X266Y628D01*
X266Y650D01*
X254Y650D01*
X254Y652D01*
X252Y652D01*
X252Y744D01*
X254Y744D01*
X254Y746D01*
X128Y746D01*
G37*
D02*
G36*
X634Y646D02*
X634Y644D01*
X878Y644D01*
X878Y646D01*
X634Y646D01*
G37*
D02*
G36*
X634Y646D02*
X634Y644D01*
X878Y644D01*
X878Y646D01*
X634Y646D01*
G37*
D02*
G36*
X922Y646D02*
X922Y550D01*
X992Y550D01*
X992Y552D01*
X986Y552D01*
X986Y554D01*
X980Y554D01*
X980Y556D01*
X976Y556D01*
X976Y558D01*
X974Y558D01*
X974Y560D01*
X970Y560D01*
X970Y562D01*
X968Y562D01*
X968Y564D01*
X966Y564D01*
X966Y566D01*
X964Y566D01*
X964Y568D01*
X962Y568D01*
X962Y572D01*
X960Y572D01*
X960Y576D01*
X958Y576D01*
X958Y578D01*
X956Y578D01*
X956Y584D01*
X954Y584D01*
X954Y610D01*
X956Y610D01*
X956Y616D01*
X958Y616D01*
X958Y620D01*
X960Y620D01*
X960Y624D01*
X962Y624D01*
X962Y626D01*
X964Y626D01*
X964Y628D01*
X966Y628D01*
X966Y632D01*
X970Y632D01*
X970Y634D01*
X972Y634D01*
X972Y636D01*
X974Y636D01*
X974Y638D01*
X978Y638D01*
X978Y640D01*
X982Y640D01*
X982Y642D01*
X988Y642D01*
X988Y644D01*
X998Y644D01*
X998Y646D01*
X922Y646D01*
G37*
D02*
G36*
X634Y644D02*
X634Y630D01*
X636Y630D01*
X636Y628D01*
X638Y628D01*
X638Y626D01*
X640Y626D01*
X640Y622D01*
X642Y622D01*
X642Y618D01*
X644Y618D01*
X644Y614D01*
X646Y614D01*
X646Y606D01*
X648Y606D01*
X648Y588D01*
X646Y588D01*
X646Y582D01*
X644Y582D01*
X644Y576D01*
X642Y576D01*
X642Y574D01*
X640Y574D01*
X640Y570D01*
X638Y570D01*
X638Y568D01*
X636Y568D01*
X636Y566D01*
X634Y566D01*
X634Y564D01*
X632Y564D01*
X632Y562D01*
X630Y562D01*
X630Y560D01*
X628Y560D01*
X628Y558D01*
X624Y558D01*
X624Y556D01*
X620Y556D01*
X620Y554D01*
X616Y554D01*
X616Y552D01*
X608Y552D01*
X608Y550D01*
X878Y550D01*
X878Y644D01*
X634Y644D01*
G37*
D02*
G36*
X40Y572D02*
X40Y548D01*
X96Y548D01*
X96Y550D01*
X86Y550D01*
X86Y552D01*
X80Y552D01*
X80Y554D01*
X76Y554D01*
X76Y556D01*
X74Y556D01*
X74Y558D01*
X70Y558D01*
X70Y560D01*
X68Y560D01*
X68Y562D01*
X66Y562D01*
X66Y564D01*
X64Y564D01*
X64Y566D01*
X62Y566D01*
X62Y568D01*
X60Y568D01*
X60Y572D01*
X40Y572D01*
G37*
D02*
G36*
X324Y550D02*
X324Y548D01*
X878Y548D01*
X878Y550D01*
X324Y550D01*
G37*
D02*
G36*
X324Y550D02*
X324Y548D01*
X878Y548D01*
X878Y550D01*
X324Y550D01*
G37*
D02*
G36*
X922Y550D02*
X922Y548D01*
X1156Y548D01*
X1156Y550D01*
X922Y550D01*
G37*
D02*
G36*
X922Y550D02*
X922Y548D01*
X1156Y548D01*
X1156Y550D01*
X922Y550D01*
G37*
D02*
G36*
X40Y548D02*
X40Y546D01*
X276Y546D01*
X276Y548D01*
X40Y548D01*
G37*
D02*
G36*
X40Y548D02*
X40Y546D01*
X276Y546D01*
X276Y548D01*
X40Y548D01*
G37*
D02*
G36*
X324Y548D02*
X324Y546D01*
X748Y546D01*
X748Y450D01*
X734Y450D01*
X734Y430D01*
X736Y430D01*
X736Y428D01*
X738Y428D01*
X738Y426D01*
X740Y426D01*
X740Y422D01*
X742Y422D01*
X742Y418D01*
X744Y418D01*
X744Y414D01*
X746Y414D01*
X746Y406D01*
X748Y406D01*
X748Y396D01*
X768Y396D01*
X768Y398D01*
X770Y398D01*
X770Y400D01*
X772Y400D01*
X772Y402D01*
X774Y402D01*
X774Y404D01*
X776Y404D01*
X776Y406D01*
X778Y406D01*
X778Y408D01*
X780Y408D01*
X780Y410D01*
X782Y410D01*
X782Y412D01*
X784Y412D01*
X784Y414D01*
X786Y414D01*
X786Y416D01*
X788Y416D01*
X788Y418D01*
X790Y418D01*
X790Y420D01*
X792Y420D01*
X792Y422D01*
X794Y422D01*
X794Y424D01*
X796Y424D01*
X796Y426D01*
X798Y426D01*
X798Y428D01*
X800Y428D01*
X800Y430D01*
X802Y430D01*
X802Y432D01*
X804Y432D01*
X804Y434D01*
X806Y434D01*
X806Y436D01*
X808Y436D01*
X808Y438D01*
X810Y438D01*
X810Y440D01*
X812Y440D01*
X812Y442D01*
X814Y442D01*
X814Y444D01*
X816Y444D01*
X816Y446D01*
X818Y446D01*
X818Y448D01*
X820Y448D01*
X820Y450D01*
X822Y450D01*
X822Y452D01*
X824Y452D01*
X824Y454D01*
X826Y454D01*
X826Y456D01*
X828Y456D01*
X828Y458D01*
X830Y458D01*
X830Y460D01*
X832Y460D01*
X832Y462D01*
X834Y462D01*
X834Y464D01*
X836Y464D01*
X836Y466D01*
X838Y466D01*
X838Y468D01*
X840Y468D01*
X840Y470D01*
X842Y470D01*
X842Y472D01*
X844Y472D01*
X844Y474D01*
X846Y474D01*
X846Y476D01*
X848Y476D01*
X848Y478D01*
X850Y478D01*
X850Y480D01*
X852Y480D01*
X852Y482D01*
X854Y482D01*
X854Y484D01*
X856Y484D01*
X856Y486D01*
X858Y486D01*
X858Y488D01*
X860Y488D01*
X860Y490D01*
X862Y490D01*
X862Y492D01*
X864Y492D01*
X864Y494D01*
X866Y494D01*
X866Y496D01*
X868Y496D01*
X868Y498D01*
X870Y498D01*
X870Y500D01*
X872Y500D01*
X872Y502D01*
X874Y502D01*
X874Y504D01*
X876Y504D01*
X876Y506D01*
X878Y506D01*
X878Y548D01*
X324Y548D01*
G37*
D02*
G36*
X922Y548D02*
X922Y490D01*
X920Y490D01*
X920Y486D01*
X918Y486D01*
X918Y482D01*
X916Y482D01*
X916Y480D01*
X914Y480D01*
X914Y478D01*
X912Y478D01*
X912Y476D01*
X910Y476D01*
X910Y474D01*
X908Y474D01*
X908Y472D01*
X906Y472D01*
X906Y470D01*
X904Y470D01*
X904Y468D01*
X902Y468D01*
X902Y466D01*
X900Y466D01*
X900Y464D01*
X898Y464D01*
X898Y462D01*
X896Y462D01*
X896Y460D01*
X894Y460D01*
X894Y458D01*
X892Y458D01*
X892Y456D01*
X890Y456D01*
X890Y454D01*
X888Y454D01*
X888Y452D01*
X886Y452D01*
X886Y450D01*
X884Y450D01*
X884Y448D01*
X882Y448D01*
X882Y446D01*
X1048Y446D01*
X1048Y350D01*
X984Y350D01*
X984Y348D01*
X982Y348D01*
X982Y346D01*
X980Y346D01*
X980Y344D01*
X978Y344D01*
X978Y342D01*
X976Y342D01*
X976Y340D01*
X974Y340D01*
X974Y338D01*
X972Y338D01*
X972Y336D01*
X970Y336D01*
X970Y334D01*
X968Y334D01*
X968Y332D01*
X966Y332D01*
X966Y330D01*
X964Y330D01*
X964Y328D01*
X962Y328D01*
X962Y326D01*
X960Y326D01*
X960Y324D01*
X958Y324D01*
X958Y322D01*
X956Y322D01*
X956Y320D01*
X954Y320D01*
X954Y318D01*
X952Y318D01*
X952Y316D01*
X950Y316D01*
X950Y314D01*
X948Y314D01*
X948Y312D01*
X946Y312D01*
X946Y310D01*
X944Y310D01*
X944Y308D01*
X942Y308D01*
X942Y306D01*
X940Y306D01*
X940Y304D01*
X938Y304D01*
X938Y302D01*
X936Y302D01*
X936Y300D01*
X934Y300D01*
X934Y298D01*
X932Y298D01*
X932Y296D01*
X930Y296D01*
X930Y294D01*
X928Y294D01*
X928Y292D01*
X926Y292D01*
X926Y290D01*
X924Y290D01*
X924Y288D01*
X922Y288D01*
X922Y286D01*
X920Y286D01*
X920Y284D01*
X918Y284D01*
X918Y282D01*
X916Y282D01*
X916Y280D01*
X914Y280D01*
X914Y278D01*
X912Y278D01*
X912Y276D01*
X910Y276D01*
X910Y274D01*
X908Y274D01*
X908Y272D01*
X906Y272D01*
X906Y270D01*
X904Y270D01*
X904Y268D01*
X902Y268D01*
X902Y266D01*
X900Y266D01*
X900Y264D01*
X898Y264D01*
X898Y262D01*
X896Y262D01*
X896Y260D01*
X894Y260D01*
X894Y258D01*
X892Y258D01*
X892Y256D01*
X890Y256D01*
X890Y254D01*
X888Y254D01*
X888Y252D01*
X886Y252D01*
X886Y250D01*
X884Y250D01*
X884Y248D01*
X882Y248D01*
X882Y246D01*
X880Y246D01*
X880Y244D01*
X878Y244D01*
X878Y242D01*
X876Y242D01*
X876Y240D01*
X874Y240D01*
X874Y238D01*
X872Y238D01*
X872Y236D01*
X870Y236D01*
X870Y234D01*
X868Y234D01*
X868Y232D01*
X866Y232D01*
X866Y230D01*
X864Y230D01*
X864Y228D01*
X862Y228D01*
X862Y226D01*
X860Y226D01*
X860Y224D01*
X858Y224D01*
X858Y222D01*
X856Y222D01*
X856Y220D01*
X854Y220D01*
X854Y218D01*
X852Y218D01*
X852Y216D01*
X850Y216D01*
X850Y214D01*
X848Y214D01*
X848Y212D01*
X846Y212D01*
X846Y210D01*
X844Y210D01*
X844Y208D01*
X842Y208D01*
X842Y206D01*
X840Y206D01*
X840Y204D01*
X838Y204D01*
X838Y202D01*
X836Y202D01*
X836Y200D01*
X834Y200D01*
X834Y198D01*
X832Y198D01*
X832Y196D01*
X830Y196D01*
X830Y194D01*
X828Y194D01*
X828Y192D01*
X826Y192D01*
X826Y190D01*
X824Y190D01*
X824Y188D01*
X822Y188D01*
X822Y186D01*
X820Y186D01*
X820Y184D01*
X818Y184D01*
X818Y182D01*
X816Y182D01*
X816Y180D01*
X814Y180D01*
X814Y178D01*
X810Y178D01*
X810Y176D01*
X1156Y176D01*
X1156Y548D01*
X922Y548D01*
G37*
D02*
G36*
X40Y546D02*
X40Y350D01*
X294Y350D01*
X294Y352D01*
X286Y352D01*
X286Y354D01*
X280Y354D01*
X280Y356D01*
X278Y356D01*
X278Y358D01*
X274Y358D01*
X274Y360D01*
X272Y360D01*
X272Y362D01*
X268Y362D01*
X268Y364D01*
X266Y364D01*
X266Y366D01*
X264Y366D01*
X264Y370D01*
X262Y370D01*
X262Y372D01*
X260Y372D01*
X260Y376D01*
X258Y376D01*
X258Y378D01*
X256Y378D01*
X256Y386D01*
X254Y386D01*
X254Y410D01*
X256Y410D01*
X256Y418D01*
X258Y418D01*
X258Y420D01*
X260Y420D01*
X260Y424D01*
X262Y424D01*
X262Y426D01*
X264Y426D01*
X264Y430D01*
X266Y430D01*
X266Y432D01*
X268Y432D01*
X268Y434D01*
X272Y434D01*
X272Y436D01*
X274Y436D01*
X274Y438D01*
X276Y438D01*
X276Y458D01*
X274Y458D01*
X274Y460D01*
X270Y460D01*
X270Y462D01*
X268Y462D01*
X268Y464D01*
X266Y464D01*
X266Y466D01*
X264Y466D01*
X264Y468D01*
X262Y468D01*
X262Y472D01*
X260Y472D01*
X260Y476D01*
X258Y476D01*
X258Y478D01*
X256Y478D01*
X256Y484D01*
X254Y484D01*
X254Y510D01*
X256Y510D01*
X256Y516D01*
X258Y516D01*
X258Y520D01*
X260Y520D01*
X260Y524D01*
X262Y524D01*
X262Y526D01*
X264Y526D01*
X264Y528D01*
X266Y528D01*
X266Y532D01*
X268Y532D01*
X268Y534D01*
X272Y534D01*
X272Y536D01*
X274Y536D01*
X274Y538D01*
X276Y538D01*
X276Y546D01*
X40Y546D01*
G37*
D02*
G36*
X324Y546D02*
X324Y538D01*
X326Y538D01*
X326Y536D01*
X330Y536D01*
X330Y534D01*
X332Y534D01*
X332Y532D01*
X334Y532D01*
X334Y530D01*
X336Y530D01*
X336Y528D01*
X338Y528D01*
X338Y526D01*
X340Y526D01*
X340Y522D01*
X342Y522D01*
X342Y518D01*
X344Y518D01*
X344Y514D01*
X346Y514D01*
X346Y506D01*
X348Y506D01*
X348Y488D01*
X346Y488D01*
X346Y482D01*
X344Y482D01*
X344Y476D01*
X342Y476D01*
X342Y474D01*
X340Y474D01*
X340Y470D01*
X338Y470D01*
X338Y468D01*
X336Y468D01*
X336Y466D01*
X334Y466D01*
X334Y464D01*
X332Y464D01*
X332Y462D01*
X330Y462D01*
X330Y460D01*
X328Y460D01*
X328Y458D01*
X324Y458D01*
X324Y438D01*
X328Y438D01*
X328Y436D01*
X330Y436D01*
X330Y434D01*
X332Y434D01*
X332Y432D01*
X334Y432D01*
X334Y430D01*
X336Y430D01*
X336Y428D01*
X338Y428D01*
X338Y426D01*
X340Y426D01*
X340Y422D01*
X342Y422D01*
X342Y418D01*
X344Y418D01*
X344Y414D01*
X346Y414D01*
X346Y406D01*
X348Y406D01*
X348Y390D01*
X346Y390D01*
X346Y382D01*
X344Y382D01*
X344Y378D01*
X342Y378D01*
X342Y374D01*
X340Y374D01*
X340Y370D01*
X338Y370D01*
X338Y368D01*
X336Y368D01*
X336Y366D01*
X334Y366D01*
X334Y364D01*
X332Y364D01*
X332Y362D01*
X330Y362D01*
X330Y360D01*
X328Y360D01*
X328Y358D01*
X324Y358D01*
X324Y356D01*
X320Y356D01*
X320Y354D01*
X314Y354D01*
X314Y352D01*
X306Y352D01*
X306Y350D01*
X674Y350D01*
X674Y360D01*
X670Y360D01*
X670Y362D01*
X668Y362D01*
X668Y364D01*
X666Y364D01*
X666Y366D01*
X664Y366D01*
X664Y368D01*
X662Y368D01*
X662Y372D01*
X660Y372D01*
X660Y376D01*
X658Y376D01*
X658Y378D01*
X656Y378D01*
X656Y384D01*
X654Y384D01*
X654Y410D01*
X656Y410D01*
X656Y416D01*
X658Y416D01*
X658Y420D01*
X660Y420D01*
X660Y424D01*
X662Y424D01*
X662Y426D01*
X664Y426D01*
X664Y428D01*
X666Y428D01*
X666Y450D01*
X654Y450D01*
X654Y452D01*
X652Y452D01*
X652Y544D01*
X654Y544D01*
X654Y546D01*
X324Y546D01*
G37*
D02*
G36*
X880Y446D02*
X880Y444D01*
X878Y444D01*
X878Y442D01*
X876Y442D01*
X876Y440D01*
X874Y440D01*
X874Y438D01*
X872Y438D01*
X872Y436D01*
X870Y436D01*
X870Y434D01*
X868Y434D01*
X868Y432D01*
X866Y432D01*
X866Y430D01*
X864Y430D01*
X864Y428D01*
X862Y428D01*
X862Y426D01*
X860Y426D01*
X860Y424D01*
X858Y424D01*
X858Y422D01*
X856Y422D01*
X856Y420D01*
X854Y420D01*
X854Y418D01*
X852Y418D01*
X852Y416D01*
X850Y416D01*
X850Y414D01*
X848Y414D01*
X848Y412D01*
X846Y412D01*
X846Y410D01*
X844Y410D01*
X844Y408D01*
X842Y408D01*
X842Y406D01*
X840Y406D01*
X840Y404D01*
X838Y404D01*
X838Y402D01*
X836Y402D01*
X836Y400D01*
X834Y400D01*
X834Y398D01*
X832Y398D01*
X832Y396D01*
X830Y396D01*
X830Y394D01*
X828Y394D01*
X828Y392D01*
X826Y392D01*
X826Y390D01*
X824Y390D01*
X824Y388D01*
X822Y388D01*
X822Y386D01*
X820Y386D01*
X820Y384D01*
X818Y384D01*
X818Y382D01*
X816Y382D01*
X816Y380D01*
X814Y380D01*
X814Y378D01*
X812Y378D01*
X812Y376D01*
X810Y376D01*
X810Y374D01*
X808Y374D01*
X808Y372D01*
X806Y372D01*
X806Y370D01*
X804Y370D01*
X804Y368D01*
X802Y368D01*
X802Y366D01*
X800Y366D01*
X800Y364D01*
X798Y364D01*
X798Y362D01*
X796Y362D01*
X796Y360D01*
X794Y360D01*
X794Y358D01*
X792Y358D01*
X792Y356D01*
X790Y356D01*
X790Y354D01*
X788Y354D01*
X788Y352D01*
X786Y352D01*
X786Y350D01*
X784Y350D01*
X784Y348D01*
X782Y348D01*
X782Y346D01*
X780Y346D01*
X780Y344D01*
X778Y344D01*
X778Y342D01*
X776Y342D01*
X776Y340D01*
X772Y340D01*
X772Y338D01*
X770Y338D01*
X770Y336D01*
X768Y336D01*
X768Y334D01*
X766Y334D01*
X766Y332D01*
X764Y332D01*
X764Y330D01*
X762Y330D01*
X762Y328D01*
X760Y328D01*
X760Y326D01*
X758Y326D01*
X758Y324D01*
X756Y324D01*
X756Y322D01*
X754Y322D01*
X754Y320D01*
X752Y320D01*
X752Y318D01*
X750Y318D01*
X750Y292D01*
X748Y292D01*
X748Y284D01*
X746Y284D01*
X746Y278D01*
X744Y278D01*
X744Y274D01*
X742Y274D01*
X742Y270D01*
X740Y270D01*
X740Y268D01*
X738Y268D01*
X738Y266D01*
X736Y266D01*
X736Y264D01*
X734Y264D01*
X734Y262D01*
X732Y262D01*
X732Y260D01*
X730Y260D01*
X730Y258D01*
X728Y258D01*
X728Y256D01*
X724Y256D01*
X724Y254D01*
X720Y254D01*
X720Y252D01*
X714Y252D01*
X714Y250D01*
X706Y250D01*
X706Y248D01*
X700Y248D01*
X700Y228D01*
X702Y228D01*
X702Y226D01*
X704Y226D01*
X704Y224D01*
X706Y224D01*
X706Y222D01*
X708Y222D01*
X708Y220D01*
X794Y220D01*
X794Y222D01*
X796Y222D01*
X796Y224D01*
X798Y224D01*
X798Y226D01*
X800Y226D01*
X800Y228D01*
X802Y228D01*
X802Y230D01*
X804Y230D01*
X804Y232D01*
X806Y232D01*
X806Y234D01*
X808Y234D01*
X808Y236D01*
X810Y236D01*
X810Y238D01*
X812Y238D01*
X812Y240D01*
X814Y240D01*
X814Y242D01*
X816Y242D01*
X816Y244D01*
X818Y244D01*
X818Y246D01*
X820Y246D01*
X820Y248D01*
X822Y248D01*
X822Y250D01*
X824Y250D01*
X824Y252D01*
X826Y252D01*
X826Y254D01*
X828Y254D01*
X828Y256D01*
X830Y256D01*
X830Y258D01*
X832Y258D01*
X832Y260D01*
X834Y260D01*
X834Y262D01*
X836Y262D01*
X836Y264D01*
X838Y264D01*
X838Y266D01*
X840Y266D01*
X840Y268D01*
X842Y268D01*
X842Y270D01*
X844Y270D01*
X844Y272D01*
X846Y272D01*
X846Y274D01*
X848Y274D01*
X848Y276D01*
X850Y276D01*
X850Y278D01*
X852Y278D01*
X852Y280D01*
X854Y280D01*
X854Y282D01*
X856Y282D01*
X856Y284D01*
X858Y284D01*
X858Y286D01*
X860Y286D01*
X860Y288D01*
X862Y288D01*
X862Y290D01*
X864Y290D01*
X864Y292D01*
X866Y292D01*
X866Y294D01*
X868Y294D01*
X868Y296D01*
X870Y296D01*
X870Y298D01*
X872Y298D01*
X872Y300D01*
X874Y300D01*
X874Y302D01*
X876Y302D01*
X876Y304D01*
X878Y304D01*
X878Y306D01*
X880Y306D01*
X880Y308D01*
X882Y308D01*
X882Y310D01*
X884Y310D01*
X884Y312D01*
X886Y312D01*
X886Y314D01*
X888Y314D01*
X888Y316D01*
X890Y316D01*
X890Y318D01*
X892Y318D01*
X892Y320D01*
X894Y320D01*
X894Y322D01*
X896Y322D01*
X896Y324D01*
X898Y324D01*
X898Y326D01*
X900Y326D01*
X900Y328D01*
X902Y328D01*
X902Y330D01*
X904Y330D01*
X904Y332D01*
X906Y332D01*
X906Y334D01*
X908Y334D01*
X908Y336D01*
X910Y336D01*
X910Y338D01*
X912Y338D01*
X912Y340D01*
X914Y340D01*
X914Y342D01*
X916Y342D01*
X916Y344D01*
X918Y344D01*
X918Y348D01*
X920Y348D01*
X920Y350D01*
X922Y350D01*
X922Y352D01*
X924Y352D01*
X924Y354D01*
X926Y354D01*
X926Y356D01*
X928Y356D01*
X928Y358D01*
X930Y358D01*
X930Y360D01*
X932Y360D01*
X932Y362D01*
X934Y362D01*
X934Y364D01*
X936Y364D01*
X936Y366D01*
X938Y366D01*
X938Y368D01*
X940Y368D01*
X940Y370D01*
X942Y370D01*
X942Y372D01*
X944Y372D01*
X944Y374D01*
X946Y374D01*
X946Y376D01*
X948Y376D01*
X948Y378D01*
X950Y378D01*
X950Y380D01*
X952Y380D01*
X952Y444D01*
X954Y444D01*
X954Y446D01*
X880Y446D01*
G37*
D02*
G36*
X40Y350D02*
X40Y348D01*
X674Y348D01*
X674Y350D01*
X40Y350D01*
G37*
D02*
G36*
X40Y350D02*
X40Y348D01*
X674Y348D01*
X674Y350D01*
X40Y350D01*
G37*
D02*
G36*
X40Y348D02*
X40Y346D01*
X612Y346D01*
X612Y344D01*
X618Y344D01*
X618Y342D01*
X622Y342D01*
X622Y340D01*
X626Y340D01*
X626Y338D01*
X630Y338D01*
X630Y336D01*
X632Y336D01*
X632Y334D01*
X634Y334D01*
X634Y332D01*
X636Y332D01*
X636Y330D01*
X638Y330D01*
X638Y328D01*
X640Y328D01*
X640Y324D01*
X660Y324D01*
X660Y326D01*
X662Y326D01*
X662Y328D01*
X664Y328D01*
X664Y332D01*
X666Y332D01*
X666Y334D01*
X670Y334D01*
X670Y336D01*
X672Y336D01*
X672Y338D01*
X674Y338D01*
X674Y348D01*
X40Y348D01*
G37*
D02*
G36*
X40Y346D02*
X40Y176D01*
X692Y176D01*
X692Y178D01*
X688Y178D01*
X688Y180D01*
X686Y180D01*
X686Y182D01*
X684Y182D01*
X684Y184D01*
X682Y184D01*
X682Y186D01*
X680Y186D01*
X680Y188D01*
X678Y188D01*
X678Y190D01*
X676Y190D01*
X676Y192D01*
X674Y192D01*
X674Y194D01*
X672Y194D01*
X672Y196D01*
X670Y196D01*
X670Y198D01*
X668Y198D01*
X668Y200D01*
X666Y200D01*
X666Y202D01*
X664Y202D01*
X664Y204D01*
X662Y204D01*
X662Y206D01*
X660Y206D01*
X660Y208D01*
X658Y208D01*
X658Y210D01*
X656Y210D01*
X656Y212D01*
X654Y212D01*
X654Y214D01*
X652Y214D01*
X652Y216D01*
X650Y216D01*
X650Y218D01*
X648Y218D01*
X648Y220D01*
X646Y220D01*
X646Y222D01*
X644Y222D01*
X644Y224D01*
X642Y224D01*
X642Y226D01*
X640Y226D01*
X640Y228D01*
X638Y228D01*
X638Y230D01*
X636Y230D01*
X636Y232D01*
X634Y232D01*
X634Y234D01*
X632Y234D01*
X632Y236D01*
X630Y236D01*
X630Y238D01*
X628Y238D01*
X628Y240D01*
X626Y240D01*
X626Y242D01*
X624Y242D01*
X624Y244D01*
X622Y244D01*
X622Y246D01*
X620Y246D01*
X620Y248D01*
X596Y248D01*
X596Y250D01*
X586Y250D01*
X586Y252D01*
X580Y252D01*
X580Y254D01*
X576Y254D01*
X576Y256D01*
X574Y256D01*
X574Y258D01*
X570Y258D01*
X570Y260D01*
X568Y260D01*
X568Y262D01*
X566Y262D01*
X566Y264D01*
X564Y264D01*
X564Y266D01*
X562Y266D01*
X562Y268D01*
X560Y268D01*
X560Y272D01*
X558Y272D01*
X558Y276D01*
X556Y276D01*
X556Y280D01*
X554Y280D01*
X554Y286D01*
X552Y286D01*
X552Y310D01*
X554Y310D01*
X554Y316D01*
X556Y316D01*
X556Y320D01*
X558Y320D01*
X558Y324D01*
X560Y324D01*
X560Y326D01*
X562Y326D01*
X562Y328D01*
X564Y328D01*
X564Y332D01*
X566Y332D01*
X566Y334D01*
X570Y334D01*
X570Y336D01*
X572Y336D01*
X572Y338D01*
X574Y338D01*
X574Y340D01*
X578Y340D01*
X578Y342D01*
X582Y342D01*
X582Y344D01*
X588Y344D01*
X588Y346D01*
X40Y346D01*
G37*
D02*
G36*
X40Y176D02*
X40Y174D01*
X1156Y174D01*
X1156Y176D01*
X40Y176D01*
G37*
D02*
G36*
X40Y176D02*
X40Y174D01*
X1156Y174D01*
X1156Y176D01*
X40Y176D01*
G37*
D02*
G36*
X40Y174D02*
X40Y146D01*
X1112Y146D01*
X1112Y144D01*
X1118Y144D01*
X1118Y142D01*
X1122Y142D01*
X1122Y140D01*
X1126Y140D01*
X1126Y138D01*
X1130Y138D01*
X1130Y136D01*
X1132Y136D01*
X1132Y134D01*
X1134Y134D01*
X1134Y132D01*
X1136Y132D01*
X1136Y130D01*
X1156Y130D01*
X1156Y174D01*
X40Y174D01*
G37*
D02*
G36*
X40Y146D02*
X40Y124D01*
X60Y124D01*
X60Y126D01*
X62Y126D01*
X62Y128D01*
X64Y128D01*
X64Y132D01*
X66Y132D01*
X66Y134D01*
X70Y134D01*
X70Y136D01*
X72Y136D01*
X72Y138D01*
X74Y138D01*
X74Y140D01*
X78Y140D01*
X78Y142D01*
X82Y142D01*
X82Y144D01*
X88Y144D01*
X88Y146D01*
X40Y146D01*
G37*
D02*
G36*
X112Y146D02*
X112Y144D01*
X118Y144D01*
X118Y142D01*
X122Y142D01*
X122Y140D01*
X126Y140D01*
X126Y138D01*
X130Y138D01*
X130Y136D01*
X132Y136D01*
X132Y134D01*
X134Y134D01*
X134Y132D01*
X136Y132D01*
X136Y130D01*
X138Y130D01*
X138Y128D01*
X140Y128D01*
X140Y124D01*
X142Y124D01*
X142Y122D01*
X144Y122D01*
X144Y118D01*
X146Y118D01*
X146Y112D01*
X148Y112D01*
X148Y104D01*
X150Y104D01*
X150Y92D01*
X148Y92D01*
X148Y84D01*
X146Y84D01*
X146Y78D01*
X144Y78D01*
X144Y74D01*
X142Y74D01*
X142Y70D01*
X140Y70D01*
X140Y68D01*
X138Y68D01*
X138Y66D01*
X136Y66D01*
X136Y64D01*
X134Y64D01*
X134Y62D01*
X132Y62D01*
X132Y60D01*
X130Y60D01*
X130Y40D01*
X1070Y40D01*
X1070Y60D01*
X1068Y60D01*
X1068Y62D01*
X1066Y62D01*
X1066Y64D01*
X1064Y64D01*
X1064Y66D01*
X1062Y66D01*
X1062Y68D01*
X1060Y68D01*
X1060Y72D01*
X1058Y72D01*
X1058Y76D01*
X1056Y76D01*
X1056Y80D01*
X1054Y80D01*
X1054Y86D01*
X1052Y86D01*
X1052Y110D01*
X1054Y110D01*
X1054Y116D01*
X1056Y116D01*
X1056Y120D01*
X1058Y120D01*
X1058Y124D01*
X1060Y124D01*
X1060Y126D01*
X1062Y126D01*
X1062Y128D01*
X1064Y128D01*
X1064Y132D01*
X1066Y132D01*
X1066Y134D01*
X1070Y134D01*
X1070Y136D01*
X1072Y136D01*
X1072Y138D01*
X1074Y138D01*
X1074Y140D01*
X1078Y140D01*
X1078Y142D01*
X1082Y142D01*
X1082Y144D01*
X1088Y144D01*
X1088Y146D01*
X112Y146D01*
G37*
D02*
G36*
X548Y720D02*
X582Y720D01*
X582Y677D01*
X548Y677D01*
X548Y720D01*
G37*
D02*
G36*
X616Y720D02*
X648Y720D01*
X648Y677D01*
X616Y677D01*
X616Y720D01*
G37*
D02*
G36*
X48Y721D02*
X80Y721D01*
X80Y676D01*
X48Y676D01*
X48Y721D01*
G37*
D02*
G36*
X118Y721D02*
X150Y721D01*
X150Y676D01*
X118Y676D01*
X118Y721D01*
G37*
D02*
G36*
X550Y820D02*
X582Y820D01*
X582Y777D01*
X550Y777D01*
X550Y820D01*
G37*
D02*
G36*
X616Y820D02*
X648Y820D01*
X648Y777D01*
X616Y777D01*
X616Y820D01*
G37*
D02*
G04 End of Copper0*
M02*