; NON-PLATED HOLES START AT T1
; THROUGH (PLATED) HOLES START AT T100
M48
INCH
T100C0.035000
T101C0.038000
T102C0.042000
T103C0.035433
%
T100
X006004Y008981
X006004Y007981
X010004Y005981
X007004Y004981
X003004Y003984
X002004Y008981
X005004Y008981
X010004Y007981
X010004Y009981
X006004Y005981
X003004Y005981
X006004Y006981
X003004Y004981
X007004Y003981
X006004Y009981
T101
X006004Y002981
X001004Y005981
X007004Y002981
X001004Y000981
X001004Y007981
X001004Y006981
X011004Y000981
T102
X008004Y009961
X008004Y006981
T103
X010004Y003981
X003004Y006981
T00
M30
